<?xml version="1.0" encoding="UTF-8"?>
<svg version="1.1" xmlns="http://www.w3.org/2000/svg" width="400" height="400">
<path d="M0 0 C1.04393417 -0.00807175 2.08786835 -0.01614349 3.16343689 -0.02445984 C5.37302014 -0.03824449 7.58262418 -0.04899157 9.79223633 -0.05688477 C12.00551803 -0.06830255 14.2187745 -0.08858814 16.43188477 -0.1184082 C69.88498114 -0.83635705 117.25588978 20.74132428 155.96484375 56.92578125 C160.42740024 61.27677383 160.42740024 61.27677383 162.08984375 63.23828125 C162.08984375 63.89828125 162.08984375 64.55828125 162.08984375 65.23828125 C162.74984375 65.23828125 163.40984375 65.23828125 164.08984375 65.23828125 C165.8439382 67.24209053 167.47549212 69.2505429 169.08984375 71.36328125 C169.5796875 71.99927246 170.06953125 72.63526367 170.57421875 73.29052734 C172.08781151 75.26687768 173.58923418 77.25206328 175.08984375 79.23828125 C175.52425781 79.80417969 175.95867187 80.37007813 176.40625 80.953125 C201.73445205 114.06240479 214.94256128 155.55843566 214.61132812 197.05175781 C214.5898517 200.23710177 214.6112913 203.42019149 214.63671875 206.60546875 C214.71064166 260.30787452 189.89303999 309.38611289 152.61328125 346.98046875 C151.08984375 348.23828125 151.08984375 348.23828125 149.08984375 348.23828125 C149.08984375 348.89828125 149.08984375 349.55828125 149.08984375 350.23828125 C126.95267585 371.56263737 97.30305505 386.34454106 67.96484375 394.55078125 C66.73314453 394.89665283 66.73314453 394.89665283 65.4765625 395.24951172 C49.50644005 399.46178626 34.04910357 400.75029971 17.578125 400.68432617 C14.35741882 400.67582763 11.13850088 400.70468213 7.91796875 400.73632812 C-41.96493856 400.90540012 -88.58106028 379.76466497 -124.91015625 346.23828125 C-125.41772461 345.77067383 -125.92529297 345.30306641 -126.44824219 344.82128906 C-133.61266877 338.1380194 -139.72985076 330.82142446 -145.58691406 323.00146484 C-146.84463659 321.32558439 -148.12246255 319.66678619 -149.40234375 318.0078125 C-163.79536462 298.9902053 -173.82004031 277.00333747 -180.22265625 254.11328125 C-180.4532373 253.29214844 -180.68381836 252.47101563 -180.92138672 251.625 C-185.15816905 235.56196043 -186.39818969 220.07272839 -186.30126953 203.50683594 C-186.28517662 200.24241365 -186.30121394 196.97922897 -186.3203125 193.71484375 C-186.33334719 181.24554186 -185.52196441 169.43614823 -182.91015625 157.23828125 C-182.69649414 156.22733398 -182.48283203 155.21638672 -182.26269531 154.17480469 C-181.68394457 151.63333403 -181.04227569 149.12537094 -180.34765625 146.61328125 C-180.09790039 145.7099707 -179.84814453 144.80666016 -179.59082031 143.87597656 C-164.77106047 92.71711331 -129.61063458 49.84603657 -83.4609375 23.6875 C-58.10790358 9.77566517 -29.06049576 0.21899383 0 0 Z M-75.91015625 72.23828125 C-76.90015625 72.89828125 -77.89015625 73.55828125 -78.91015625 74.23828125 C-77.58464361 77.17670546 -76.14890155 79.24653193 -73.86705017 81.51516724 C-73.2430986 82.14042297 -72.61914703 82.76567871 -71.97628784 83.40988159 C-71.29309479 84.08431305 -70.60990173 84.75874451 -69.90600586 85.45361328 C-69.18555588 86.17274902 -68.4651059 86.89188477 -67.7228241 87.6328125 C-65.34061105 90.00853476 -62.95150854 92.37720682 -60.5625 94.74609375 C-58.90814897 96.39417523 -57.25431147 98.04277235 -55.60096741 99.69186401 C-51.24737504 104.03214924 -46.88825206 108.3668337 -42.52752686 112.69995117 C-35.54235384 119.64201075 -28.56389138 126.59080031 -21.58862495 133.54281235 C-19.14631708 135.97486617 -16.70064142 138.40349598 -14.25462341 140.83181763 C-12.76460574 142.31501009 -11.27469602 143.79831102 -9.78491211 145.28173828 C-8.75708618 146.29945816 -8.75708618 146.29945816 -7.70849609 147.33773804 C-7.08736435 147.95735413 -6.4662326 148.57697021 -5.82627869 149.21536255 C-5.28409667 149.75402514 -4.74191465 150.29268772 -4.18330288 150.84767342 C-2.91015625 152.23828125 -2.91015625 152.23828125 -1.91015625 154.23828125 C-8.84015625 154.23828125 -15.77015625 154.23828125 -22.91015625 154.23828125 C-22.91015625 167.10828125 -22.91015625 179.97828125 -22.91015625 193.23828125 C-23.90015625 193.23828125 -24.89015625 193.23828125 -25.91015625 193.23828125 C-26.11253906 192.69042969 -26.31492187 192.14257812 -26.5234375 191.578125 C-28.08590992 188.94172787 -30.0438719 187.30631478 -32.35449219 185.32910156 C-41.3942462 177.4034909 -44.39586555 168.50768823 -47.36035156 157.07324219 C-47.75205681 155.2382471 -47.75205681 155.2382471 -48.91015625 154.23828125 C-49.89227585 154.25174088 -50.87439545 154.2652005 -51.88627625 154.27906799 C-59.30690948 154.33989118 -64.02198684 154.01982481 -69.80395508 148.90209961 C-71.70402026 146.9864056 -73.54235498 145.06077145 -75.3671875 143.078125 C-76.36900772 142.04503075 -77.3741802 141.01517788 -78.38249207 139.98841858 C-81.00300054 137.30373728 -83.57946195 134.58065069 -86.1473999 131.84576416 C-89.29162067 128.51246863 -92.48413291 125.22550758 -95.67163372 121.933671 C-98.14626114 119.37690249 -100.61224306 116.81343761 -103.05488586 114.22605896 C-103.92727402 113.30833206 -104.79966217 112.39060516 -105.69848633 111.44506836 C-106.46598709 110.63089951 -107.23348785 109.81673065 -108.02424622 108.97789001 C-109.72755122 107.01227427 -109.72755122 107.01227427 -111.91015625 107.23828125 C-113.21783101 108.79893853 -113.21783101 108.79893853 -114.484375 110.8671875 C-114.98372559 111.64715088 -115.48307617 112.42711426 -115.99755859 113.23071289 C-116.52559082 114.07883545 -117.05362305 114.92695801 -117.59765625 115.80078125 C-118.1385791 116.66759521 -118.67950195 117.53440918 -119.23681641 118.42749023 C-140.67511114 153.33293778 -147.54186071 195.90423429 -138.30810547 235.84228516 C-127.86043432 278.56426029 -101.27062073 312.80707876 -63.9609375 335.6875 C-29.67429296 356.10567748 12.99157784 361.87988811 51.64453125 352.13671875 C69.03540199 347.42341408 96.77680472 339.7078398 107.08984375 324.23828125 C106.68877442 323.83813372 106.2877051 323.43798618 105.87448215 323.02571297 C96.12407407 313.29737146 86.37645365 303.56624447 76.63184452 293.83209419 C71.91937707 289.12485399 67.20598213 284.41855386 62.49047852 279.71435547 C57.94311347 275.17782488 53.39816793 270.63888346 48.85491753 266.09823227 C47.11777844 264.36294641 45.37975687 262.62854353 43.64085579 260.89502335 C41.21276402 258.47414937 38.78777788 256.050206 36.36352539 253.62548828 C35.63776306 252.90332123 34.91200073 252.18115417 34.16424561 251.43710327 C33.50656693 250.77804993 32.84888824 250.11899658 32.17127991 249.43997192 C31.59700288 248.86661669 31.02272585 248.29326145 30.43104649 247.70253181 C29.08984375 246.23828125 29.08984375 246.23828125 28.08984375 244.23828125 C29.39308594 244.07005859 29.39308594 244.07005859 30.72265625 243.8984375 C40.968464 241.88968865 49.59027368 235.77032757 55.46484375 227.2421875 C57.47842979 223.96064034 57.47842979 223.96064034 58.08984375 220.23828125 C59.07984375 220.23828125 60.06984375 220.23828125 61.08984375 220.23828125 C61.12078125 221.66140625 61.12078125 221.66140625 61.15234375 223.11328125 C62.10300668 229.53351174 66.41986386 234.75863656 71.0625 239.0703125 C75.41542615 242.28415517 79.42112224 243.61010768 84.68408203 244.74902344 C92.96889824 247.06050724 97.73110745 251.57627075 103.51953125 257.69140625 C104.52862752 258.71921065 105.53999692 259.74478768 106.55349731 260.76824951 C109.18362917 263.43611841 111.78229208 266.13260647 114.375 268.83679199 C117.03851801 271.60358677 119.7314609 274.34142842 122.421875 277.08203125 C127.67332376 282.43993871 132.89178512 287.82850569 138.08984375 293.23828125 C160.86962317 270.99750035 169.72498504 234.03624841 170.37109375 203.23681641 C170.73893172 164.99890949 158.48662541 128.14738377 133.08984375 99.23828125 C132.3834375 98.41070312 131.67703125 97.583125 130.94921875 96.73046875 C105.51347431 67.54340949 68.33326685 47.34644453 29.38330078 44.3671875 C-9.15586412 42.20105177 -43.73292465 50.71899488 -75.91015625 72.23828125 Z " fill="#FB0800" transform="translate(185.91015625,-0.23828125)"/>
<path d="M0 0 C11.2921875 -0.12375 11.2921875 -0.12375 22.8125 -0.25 C26.34287964 -0.30462402 26.34287964 -0.30462402 29.94458008 -0.36035156 C31.84455457 -0.37205198 33.74453923 -0.38224059 35.64453125 -0.390625 C36.60307007 -0.41108887 37.56160889 -0.43155273 38.54919434 -0.45263672 C50.15871384 -0.45852614 59.39076831 3.62078798 67.68359375 11.625 C76.35513013 20.96690453 78.29714681 33.12521526 77.8828125 45.5 C76.61128834 56.29498065 72.26045091 65.90972393 64.20703125 73.31640625 C55.08513188 80.2748817 45.67101185 82.31775158 34.47265625 82.1953125 C33.59508667 82.19329834 32.71751709 82.19128418 31.81335449 82.18920898 C28.56301581 82.17881509 25.31275216 82.15089295 22.0625 82.125 C11.1415625 82.063125 11.1415625 82.063125 0 82 C0 54.94 0 27.88 0 0 Z M26 19 C26 33.52 26 48.04 26 63 C37.56167271 63.79399636 37.56167271 63.79399636 46 59 C51.93680421 51.12688427 51.54550089 42.42228811 51 33 C49.92783112 27.41121416 47.40007601 23.63006271 43 20 C37.61483519 18.20494506 31.67646212 19 26 19 Z " fill="#000000" transform="translate(167,159)"/>
<path d="M0 0 C4.51369267 3.28194889 8.03677153 7.19020816 10.1875 12.375 C10.6825 16.83 10.6825 16.83 11.1875 21.375 C3.2675 21.375 -4.6525 21.375 -12.8125 21.375 C-13.8025 19.395 -14.7925 17.415 -15.8125 15.375 C-19.16195689 12.74328387 -22.69315478 13.15030844 -26.8125 13.375 C-29.8930106 14.01441744 -29.8930106 14.01441744 -30.75 16.1875 C-31.04390168 18.49779066 -31.04390168 18.49779066 -29.31640625 20.359375 C-26.08414717 22.96131835 -22.7547714 23.80942399 -18.8125 24.8125 C-6.75415083 28.14896483 4.69755891 31.40573067 12.125 42.1875 C14.81525157 50.2582547 14.86336344 57.60353784 11.1875 65.375 C6.48658822 72.8105142 -0.10921032 76.77774439 -8.4765625 79.12109375 C-20.81758278 81.699549 -34.97622132 81.59394496 -46.1875 75.1875 C-53.33593415 70.12465552 -58.02268836 64.01723337 -59.8125 55.375 C-59.8125 54.385 -59.8125 53.395 -59.8125 52.375 C-51.5625 52.375 -43.3125 52.375 -34.8125 52.375 C-33.8225 54.355 -32.8325 56.335 -31.8125 58.375 C-27.88223224 60.9951785 -24.48624058 61.33525731 -19.8125 61.375 C-16.38424316 60.5700483 -16.38424316 60.5700483 -13.8125 59.375 C-13.8125 57.065 -13.8125 54.755 -13.8125 52.375 C-19.75326599 49.81875694 -25.75250273 47.73847009 -31.9375 45.875 C-42.01475435 42.79489732 -49.75299156 39.46426266 -55.8125 30.375 C-57.96614435 23.91406695 -58.12569976 15.23311884 -55.3125 8.9375 C-50.54105102 1.22723469 -44.09407771 -2.64100809 -35.4453125 -4.96875 C-23.31147511 -7.16066901 -10.76535814 -6.4377557 0 0 Z " fill="#000000" transform="translate(309.8125,162.625)"/>
<path d="M0 0 C10.89 0 21.78 0 33 0 C48.81357498 47.26414657 48.81357498 47.26414657 54.36065674 64.34542847 C54.78521961 65.65168379 55.21127442 66.95745518 55.63885498 68.26272583 C56.22201493 70.04479589 56.79870527 71.82897926 57.375 73.61328125 C57.69210938 74.59079346 58.00921875 75.56830566 58.3359375 76.57543945 C59 79 59 79 59 82 C50.09 82 41.18 82 32 82 C28 69.25 28 69.25 28 67 C20.08 67 12.16 67 4 67 C3.525625 68.918125 3.05125 70.83625 2.5625 72.8125 C1.79317287 75.92325754 1.01348676 78.95953973 0 82 C-8.25 82 -16.5 82 -25 82 C-24.28316867 76.98218069 -23.51941227 73.01448198 -22.00634766 68.28955078 C-21.80619553 67.65924957 -21.6060434 67.02894836 -21.39982605 66.37954712 C-20.74321125 64.31639867 -20.07873344 62.25587819 -19.4140625 60.1953125 C-18.95138181 58.74729213 -18.48918089 57.29911839 -18.0274353 55.85079956 C-16.8137294 52.04854445 -15.59324893 48.24849706 -14.37139893 44.44885254 C-13.13647348 40.6040123 -11.90851574 36.75694849 -10.6796875 32.91015625 C-8.87394907 27.2621103 -7.06644115 21.61463691 -5.25244141 15.96923828 C-4.8890567 14.83785431 -4.525672 13.70647034 -4.15127563 12.540802 C-2.78971303 8.3532526 -1.39245907 4.17737722 0 0 Z M15 21 C13.99402985 24.76926669 12.99625198 28.54065412 12 32.3125 C11.71382812 33.38435547 11.42765625 34.45621094 11.1328125 35.56054688 C10.86210938 36.58857422 10.59140625 37.61660156 10.3125 38.67578125 C10.06113281 39.62364502 9.80976562 40.57150879 9.55078125 41.5480957 C8.89041382 44.06900889 8.89041382 44.06900889 9 47 C13.62 47 18.24 47 23 47 C20.86602101 38.26910121 18.71981556 29.57153995 16 21 C15.67 21 15.34 21 15 21 Z " fill="#000000" transform="translate(102,159)"/>
</svg>
