<?xml version="1.0" encoding="UTF-8"?>
<svg version="1.1" xmlns="http://www.w3.org/2000/svg" width="256" height="256">
    <path d="M0 0 C1.2065625 0.3403125 2.413125 0.680625 3.65625 1.03125 C35.33420904 10.71789863 59.1109042 32.70300493 74.6875 61.5625 C86.20189742 85.23545694 89.63212193 116.64165938 82 142 C81.6596875 143.2065625 81.319375 144.413125 80.96875 145.65625 C71.28210137 177.33420904 49.29699507 201.1109042 20.4375 216.6875 C-3.23545694 228.20189742 -34.64165938 231.63212193 -60 224 C-61.2065625 223.6596875 -62.413125 223.319375 -63.65625 222.96875 C-95.33420904 213.28210137 -119.1109042 191.29699507 -134.6875 162.4375 C-146.20189742 138.76454306 -149.63212193 107.35834062 -142 82 C-141.6596875 80.7934375 -141.319375 79.586875 -140.96875 78.34375 C-131.73010222 48.13087481 -111.22872971 24.75144118 -83.96484375 9.27734375 C-76.29053057 5.23877517 -68.30751472 2.41020489 -60 0 C-58.93265625 -0.32226562 -57.8653125 -0.64453125 -56.765625 -0.9765625 C-39.40657932 -5.33669839 -17.12921878 -5.15539594 0 0 Z M-98.3125 100.5625 C-102.79464196 106.03283073 -102.64658846 111.0514508 -102 118 C-99.68026575 122.90713015 -96.28223069 125.8111048 -92 129 C-86.98774506 130.67075165 -81.69543108 131.06531518 -76.70703125 129.09375 C-71.28543241 125.92013117 -68.00976772 122.02930315 -66 116 C-65.46150964 109.64581373 -66.36027202 105.30057473 -70 100 C-74.22537673 95.98589211 -78.00371882 93.71493589 -83.875 93.6875 C-90.35102459 93.85842147 -94.04676589 95.72195065 -98.3125 100.5625 Z M-44.875 101.0625 C-48.53800469 106.1260653 -48.65533105 110.93588025 -48 117 C-46.18823394 122.39388637 -42.48314334 125.75687503 -38 129 C-33.16935225 130.61021592 -27.8521888 130.95802887 -22.96484375 129.31640625 C-17.80219018 126.58190183 -13.85467001 122.56401003 -12 117 C-11.26511598 110.10895641 -11.83703009 105.58714383 -16 100 C-20.18017254 95.79799889 -23.79986938 93.86304733 -29.75 93.6875 C-36.39674729 93.77457529 -40.46996677 96.02996916 -44.875 101.0625 Z M8.5625 102.125 C6.05820752 106.73289816 5.33431149 110.81317699 6 116 C8.05150568 122.16566651 11.23094074 125.7974063 16.8515625 129.08203125 C21.73930818 131.17043168 27.30875935 130.5529056 32.25 128.9375 C36.30523038 126.08040587 39.76585617 122.46828766 42 118 C42.50239048 112.49841245 42.76205731 107.61204431 40.375 102.5625 C35.59163359 97.4014994 31.61213792 93.9229444 24.3125 93.625 C17.19662191 93.70810515 12.86571162 96.60806203 8.5625 102.125 Z " fill="#FFFFFF" transform="translate(158,16)"/>
</svg>