<?xml version="1.0" encoding="UTF-8"?>
<svg version="1.1" xmlns="http://www.w3.org/2000/svg" width="512" height="512">
<path d="M0 0 C3.04782095 2.99021609 5.89956434 6.02877025 8.625 9.3125 C19.00456053 20.9895056 33.76479288 28.85742427 49 32 C50.093125 32.226875 51.18625 32.45375 52.3125 32.6875 C74.68144759 34.58317352 93.86673844 29.18652086 111.3671875 15.09375 C116.67587325 10.58941058 120.93762276 5.64291629 125 0 C149.45038836 7.11965331 189.92503533 21.9972287 204.2409668 44.9934082 C205.44553769 48.17783025 204.07261632 50.14620918 202.75 53.1875 C195.70649437 69.54980099 195.54194875 89.34953364 202 106 C210.39294626 125.61584668 224.39849143 139.72716868 243.93359375 148.28515625 C252.6531746 151.46580779 261.8549269 152.65872261 271 154 C277.47851771 183.56216818 281.06017395 216.30553706 273 246 C271.74509766 246.03867187 271.74509766 246.03867187 270.46484375 246.078125 C249.87765961 247.08126576 231.6126543 254.16222077 217 269 C210.59792805 276.46017361 205.31948096 284.72312356 202 294 C201.60941406 295.08152344 201.21882813 296.16304688 200.81640625 297.27734375 C194.9367261 316.01500956 196.82501499 335.35835832 205.75 352.75 C206.36359375 353.87921875 206.9771875 355.0084375 207.609375 356.171875 C209 359 209 359 209 362 C207.52246094 363.60668945 207.52246094 363.60668945 205.484375 365.30078125 C204.75025391 365.91518066 204.01613281 366.52958008 203.25976562 367.16259766 C202.51404297 367.76894043 201.76832031 368.3752832 201 369 C200.04383789 369.78769775 200.04383789 369.78769775 199.06835938 370.59130859 C179.78946725 386.24152966 156.20259106 401.33662841 132 408 C127.97813241 406.65937747 127.0394269 404.0982003 125 400.625 C114.75002036 384.0650618 98.84152297 372.67366734 79.87890625 367.88671875 C59.6436161 363.61421434 40.53398813 367.77184026 23 378 C19.75616994 380.11411467 16.86374304 382.39862718 14 385 C12.89978516 385.96292969 12.89978516 385.96292969 11.77734375 386.9453125 C5.15038852 393.10622113 0.62817853 400.30825175 -4 408 C-30.96096458 401.49685276 -55.37224255 384.89176031 -76.32910156 367.38769531 C-78.52844696 365.56112032 -80.76009262 363.77647826 -83 362 C-82.39390911 358.71564262 -81.05907299 355.95206901 -79.57446289 352.97802734 C-71.03430909 335.74839331 -68.81185639 316.16988901 -74.6171875 297.6171875 C-82.51689197 276.9529888 -94.84847251 261.54971806 -115.42797852 252.25415039 C-124.67840062 248.29475667 -133.3501107 246.68435053 -143.3828125 246.50390625 C-144.67832031 246.25447266 -144.67832031 246.25447266 -146 246 C-159.23564259 225.54703252 -151.01591869 181.57065675 -146.3125 159.375 C-145.88874846 157.58003194 -145.45800274 155.78653552 -145 154 C-143.86304688 153.84144531 -142.72609375 153.68289062 -141.5546875 153.51953125 C-119.1139648 150.20836477 -99.1100808 141.92739077 -85.1875 123.25 C-73.86925578 105.78835672 -68.46984749 85.33523523 -72.796875 64.6328125 C-73.68191094 61.02683233 -74.8026753 57.51472734 -76 54 C-76.30808594 53.03707031 -76.61617188 52.07414062 -76.93359375 51.08203125 C-77.5936114 49.04513467 -78.29108786 47.02039961 -79 45 C-57.08739463 23.67962721 -28.79113979 9.51296734 0 0 Z " fill="#7A838C" transform="translate(193,51)"/>
<path d="M0 0 C0.63309082 0.28891113 1.26618164 0.57782227 1.91845703 0.87548828 C27.34273005 12.78576589 46.7114721 35.93223871 56.57128906 61.88916016 C67.06368837 91.01129027 65.36909166 122.09713065 52.25097656 150.13427734 C40.03003817 175.20210464 18.01309082 195.74177439 -8 206 C-13.90736609 208.02353949 -19.93264867 209.54407633 -26 211 C-26.94101562 211.2475 -27.88203125 211.495 -28.8515625 211.75 C-52.24054034 217.09605208 -79.05215858 211.70132384 -100 201 C-100.95777344 200.525625 -101.91554687 200.05125 -102.90234375 199.5625 C-109.60852734 196.10124395 -115.28984109 191.91381346 -121 187 C-121.82371094 186.31035156 -122.64742187 185.62070312 -123.49609375 184.91015625 C-138.710853 171.7841627 -147.6466529 156.39489337 -155 138 C-155.31839844 137.23945313 -155.63679687 136.47890625 -155.96484375 135.6953125 C-162.72420829 118.94823021 -162.4181905 98.60878475 -159.6875 81 C-159.56987305 80.23550537 -159.45224609 79.47101074 -159.33105469 78.68334961 C-156.84466727 64.05913105 -150.48314334 50.08152586 -142 38 C-141.3090625 37.01128906 -140.618125 36.02257812 -139.90625 35.00390625 C-123.02612593 11.67486154 -97.54722459 -4.86052804 -69.0625 -9.75 C-44.50899826 -13.52349071 -22.47714247 -10.29483679 0 0 Z " fill="#E4E4E4" transform="translate(305,155)"/>
<path d="M0 0 C16.23839891 14.03532345 25.72989869 32.20332274 27.71484375 53.55859375 C28.3211495 75.09457388 20.39804672 94.96515431 5.7421875 110.55859375 C-9.22937529 125.38192325 -26.92149189 132.18837973 -47.75 132.33984375 C-49.37663574 132.35519165 -49.37663574 132.35519165 -51.03613281 132.37084961 C-61.63799908 132.25596124 -71.33452143 130.13134251 -80.75 125.21484375 C-81.42667725 124.8681665 -82.10335449 124.52148926 -82.80053711 124.16430664 C-88.65778241 121.06768548 -93.72691243 117.37093483 -98.625 112.90234375 C-99.53765625 112.12697266 -99.53765625 112.12697266 -100.46875 111.3359375 C-113.82919887 99.22043955 -121.76535794 79.616321 -122.875 61.9140625 C-123.38138818 42.11334672 -117.38467575 23.62690114 -104.1875 8.58984375 C-102.68525606 7.00946296 -101.16546028 5.44549714 -99.625 3.90234375 C-99.01140625 3.27714844 -98.3978125 2.65195313 -97.765625 2.0078125 C-70.8243502 -23.49429164 -28.32263575 -22.63282053 0 0 Z " fill="#115B9C" transform="translate(303.625,198.09765625)"/>
</svg>
