<?xml version="1.0" encoding="UTF-8"?>
<svg version="1.1" xmlns="http://www.w3.org/2000/svg" width="512" height="512">
<path d="M0 0 C1.42876604 -0.00256327 1.42876604 -0.00256327 2.88639605 -0.00517833 C6.07396856 -0.0084692 9.26132998 0.00252394 12.44888306 0.01345825 C14.73545324 0.01402245 17.02202378 0.01370563 19.30859375 0.01257324 C25.51468381 0.01199908 31.72069667 0.02376384 37.92676878 0.03772116 C44.41302824 0.05021779 50.89928944 0.05139818 57.38555908 0.05377197 C68.27191546 0.05928328 79.15824331 0.07177845 90.04458618 0.08963013 C101.25617329 0.10799599 112.46775269 0.12214904 123.67935181 0.13064575 C124.71646176 0.13143392 124.71646176 0.13143392 125.77452342 0.13223802 C129.2432041 0.13484814 132.71188483 0.13737555 136.1805656 0.13986182 C164.94401781 0.16058582 193.70742744 0.197451 222.47085571 0.24050903 C222.47085571 18.72050903 222.47085571 37.20050903 222.47085571 56.24050903 C202.67085571 56.24050903 182.87085571 56.24050903 162.47085571 56.24050903 C161.81085571 57.56050903 161.15085571 58.88050903 160.47085571 60.24050903 C159.48425429 61.68267417 158.4658854 63.10340196 157.42398071 64.50613403 C156.82585571 65.31437622 156.22773071 66.12261841 155.61148071 66.95535278 C154.98757446 67.79195435 154.36366821 68.62855591 153.72085571 69.49050903 C153.11241821 70.31164185 152.50398071 71.13277466 151.87710571 71.97879028 C150.66697499 73.61039816 149.4541204 75.23998964 148.23843384 76.86746216 C147.06810557 78.43867635 145.90521297 80.01545885 144.75015259 81.59793091 C144.21970337 82.32045044 143.68925415 83.04296997 143.14273071 83.78738403 C142.67447876 84.43030396 142.20622681 85.07322388 141.7237854 85.73562622 C140.47085571 87.24050903 140.47085571 87.24050903 138.47085571 88.24050903 C136.41833228 88.33466279 134.36266455 88.36241257 132.3079834 88.36076355 C130.33494736 88.36282555 130.33494736 88.36282555 128.322052 88.3649292 C126.85586525 88.3613898 125.38967873 88.35775499 123.92349243 88.35403442 C122.38627118 88.35375248 120.84904979 88.35391042 119.31182861 88.35447693 C115.1302505 88.35476464 110.94870089 88.34887217 106.76712942 88.34190297 C102.40023536 88.33566504 98.0333407 88.33506528 93.66644287 88.33387756 C85.39333319 88.33076555 77.12023668 88.3225539 68.8471328 88.31252807 C59.4300969 88.30136292 50.01306038 88.29585547 40.59601951 88.29083264 C21.22095744 88.28037119 1.84590763 88.26277424 -17.52914429 88.24050903 C-17.4702473 123.75770712 -17.39568697 159.27483786 -17.30015801 194.79195675 C-17.28889002 198.98631437 -17.27775154 203.18067233 -17.26669312 207.37503052 C-17.26448943 208.21004186 -17.26228575 209.0450532 -17.26001529 209.90536792 C-17.22465542 223.42078497 -17.19978389 236.93620197 -17.17879727 250.45164811 C-17.15702478 264.32263077 -17.12396059 278.19355348 -17.08044273 292.06448513 C-17.05395096 300.62166342 -17.03623737 309.17876701 -17.02979825 317.73598427 C-17.02453679 323.60621701 -17.00829438 329.47635581 -16.98347863 335.34653818 C-16.96948937 338.73196057 -16.96191237 342.11707167 -16.96413612 345.5025444 C-16.96578808 349.17800456 -16.94909489 352.8529465 -16.9278717 356.52833557 C-16.93271928 357.59158552 -16.93756686 358.65483547 -16.94256133 359.75030512 C-16.87363383 366.99012279 -16.37605899 374.15635143 -11.27914429 379.67800903 C-5.96239476 382.69888945 -0.74367363 383.49046154 5.30412102 383.49498463 C5.95783705 383.4981911 6.61155309 383.50139758 7.2850787 383.50470123 C9.46687654 383.51297628 11.64839807 383.50708584 13.8302002 383.50120544 C15.41375252 383.50422727 16.99730339 383.50811691 18.58085167 383.51279801 C22.92589024 383.52308275 27.27084635 383.52089497 31.6158917 383.51661742 C36.30447356 383.51415106 40.99303552 383.52316324 45.68161011 383.53065491 C54.86455951 383.54340645 64.04747967 383.54519503 73.23043643 383.54285464 C80.69444105 383.54107183 88.15843678 383.54282034 95.62244034 383.54707909 C96.68463212 383.54767428 97.7468239 383.54826946 98.84120331 383.54888269 C100.99902899 383.55009444 103.15685467 383.55130857 105.31468035 383.55252507 C125.55242075 383.56340236 145.79014448 383.56123721 166.02788581 383.55514022 C184.54151347 383.54997091 203.05508853 383.56122655 221.56870578 383.58023844 C240.57917445 383.59961088 259.58961822 383.60787388 278.60009682 383.60411519 C289.27275138 383.60220224 299.94536115 383.60469984 310.61800766 383.61882973 C319.70374074 383.63073691 328.78940147 383.63215584 337.87513553 383.62003956 C342.51015607 383.61414624 347.14504423 383.613064 351.780056 383.62504196 C356.02520267 383.63588488 360.27010618 383.63281637 364.5152414 383.61878028 C366.0488294 383.61612896 367.58243635 383.61851353 369.11600576 383.62651614 C382.47858782 383.96205477 382.47858782 383.96205477 393.90835571 377.99050903 C398.01083295 370.7701491 397.76247921 363.66693064 397.74932861 355.55400085 C397.75801722 353.63392689 397.75801722 353.63392689 397.76688135 351.67506355 C397.78264291 348.1335718 397.7861099 344.59215947 397.78752995 341.05063689 C397.79123072 337.22725212 397.80638958 333.40391057 397.82014465 329.58055115 C397.84240003 322.96012896 397.85742366 316.33972219 397.86751175 309.71927071 C397.88210784 300.14725824 397.90764729 290.57529947 397.93584304 281.00331854 C397.98129411 265.47277713 398.01791588 249.94222797 398.04898071 234.41165161 C398.07917315 219.32667685 398.11352662 204.24172102 398.1534729 189.1567688 C398.15593445 188.22666524 398.158396 187.29656169 398.16093214 186.33827318 C398.17330688 181.6721372 398.18576338 177.00600145 398.19826055 172.3398658 C398.30180312 133.64010575 398.39046979 94.94032361 398.47085571 56.24050903 C387.91085571 56.24050903 377.35085571 56.24050903 366.47085571 56.24050903 C366.47085571 37.76050903 366.47085571 19.28050903 366.47085571 0.24050903 C397.05608299 0.24050903 397.05608299 0.24050903 405.93960571 8.53738403 C411.65012546 14.88888049 414.71672367 21.85577099 414.72812462 30.45097065 C414.73457351 31.68352189 414.7410224 32.91607314 414.74766672 34.18597442 C414.74472473 35.54556845 414.74158932 36.90516206 414.73828125 38.26475525 C414.74201905 39.71545148 414.74662109 41.1661457 414.7520119 42.61683673 C414.76424125 46.59928223 414.76398151 50.58164373 414.76162314 54.56410372 C414.76121496 58.86074723 414.77225424 63.1573638 414.78173828 67.45399475 C414.79834879 75.87038943 414.80384785 84.2867561 414.80496304 92.70316581 C414.80591347 99.54457866 414.8100235 106.38598227 414.81636429 113.2273922 C414.83397666 132.62516703 414.84320314 152.02291973 414.84170334 171.42070261 C414.84162343 172.46636813 414.84154352 173.51203364 414.84146118 174.58938599 C414.84137942 175.63632858 414.84129766 176.68327118 414.84121342 177.76193931 C414.84040047 194.73014786 414.85954039 211.69826766 414.88773791 228.66645054 C414.91646423 246.09035149 414.93027836 263.51420914 414.92855036 280.93813437 C414.92788638 290.71991613 414.93338213 300.50160483 414.95490646 310.28336525 C414.9731149 318.61156559 414.97746835 326.9396307 414.96388762 335.26784233 C414.95735632 339.51607768 414.95724651 343.76405356 414.97459412 348.01226425 C414.99032284 351.90409406 414.98746354 355.7954586 414.97002585 359.68727704 C414.9669555 361.092365 414.97058978 362.49748767 414.981746 363.9025347 C415.04117806 371.92101081 414.56961536 378.24020711 410.47085571 385.24050903 C410.00163696 386.05004028 409.53241821 386.85957153 409.04898071 387.69363403 C404.10504448 394.38248894 398.44432773 397.93917669 390.47085571 400.24050903 C387.17120904 400.4935087 387.17120904 400.4935087 383.51076031 400.49777794 C382.49139605 400.50303705 382.49139605 400.50303705 381.45143858 400.50840241 C379.17565828 400.51770178 376.90013471 400.51279694 374.62434387 400.50793457 C372.97565751 400.51167157 371.32697292 400.51627329 369.67829114 400.52166522 C365.14857292 400.53390446 360.6189285 400.53363366 356.08919752 400.53127646 C351.20359302 400.53086853 346.31801227 400.54190516 341.43241882 400.5513916 C331.8609782 400.56800751 322.28956221 400.57350141 312.71810838 400.57461636 C304.93848076 400.57556652 297.15886127 400.57967525 289.37923622 400.58601761 C267.32526059 400.60363141 245.27130443 400.61285623 223.21732172 400.61135666 C221.43375977 400.61123679 221.43375977 400.61123679 219.61416626 400.6111145 C218.42367415 400.61103274 217.23318205 400.61095098 216.00661442 400.61086674 C196.71046095 400.61005374 177.41438552 400.62919467 158.11825462 400.65739124 C138.30776825 400.68611113 118.49731995 400.69993203 98.68681222 400.69820368 C87.56364256 400.69753949 76.44055471 400.70304483 65.31740379 400.72455978 C55.84735701 400.74275976 46.37742913 400.7471286 36.90737244 400.73354094 C32.07587177 400.72700542 27.24459931 400.72691523 22.41312027 400.74424744 C17.98838766 400.75995723 13.5640646 400.75713596 9.13934211 400.73967917 C7.5404468 400.73660467 5.94152109 400.74025864 4.34266164 400.75139932 C-3.99743753 400.80565383 -11.21739707 400.68908158 -18.52914429 396.24050903 C-19.33867554 395.77129028 -20.14820679 395.30207153 -20.98226929 394.81863403 C-27.68699111 389.86297008 -31.19367187 384.21703172 -33.52914429 376.24050903 C-33.78214395 373.24979043 -33.78214395 373.24979043 -33.78641319 370.03284073 C-33.79286209 368.80090618 -33.79931098 367.56897164 -33.80595529 366.29970574 C-33.8030133 364.94080073 -33.79987789 363.58189612 -33.79656982 362.22299194 C-33.80030763 360.7730084 -33.80490968 359.32302688 -33.81030047 357.87304854 C-33.82252986 353.89253364 -33.82227008 349.91210279 -33.81991172 345.93157339 C-33.81950353 341.63695576 -33.83054289 337.34236508 -33.84002686 333.04776001 C-33.85663772 324.63504033 -33.86213645 316.22234868 -33.86325161 307.80961397 C-33.86420209 300.97059339 -33.86831236 294.13158205 -33.87465286 287.29256439 C-33.89226586 267.89985522 -33.90149169 248.50716819 -33.89999191 229.11445096 C-33.89987205 227.54634678 -33.89987205 227.54634678 -33.89974976 225.94656372 C-33.89966799 224.89988343 -33.89958623 223.85320315 -33.89950199 222.77480528 C-33.89868918 205.81373879 -33.91782557 188.85276112 -33.94602649 171.89172032 C-33.97475891 154.47346461 -33.98856657 137.05525221 -33.98683894 119.63697219 C-33.98617514 109.85907093 -33.99166298 100.08126278 -34.01319504 90.30338287 C-34.03141158 81.97777295 -34.03575031 73.65229834 -34.02217619 65.32667711 C-34.0156488 61.08034308 -34.01552094 56.83426859 -34.03288269 52.58795929 C-34.04862886 48.69669409 -34.04573432 44.80589389 -34.02831443 40.91463992 C-34.02524789 39.51088004 -34.02886389 38.10708533 -34.04003458 36.70336655 C-34.11976556 25.96887149 -32.78270168 16.85606038 -25.23226929 8.77175903 C-17.665834 1.96890896 -9.9703842 -0.06561544 0 0 Z M13.03335571 42.86550903 C10.99924235 45.95736134 10.86480142 47.60418328 11.47085571 51.24050903 C12.97085571 53.74050903 12.97085571 53.74050903 15.47085571 55.24050903 C18.47085571 55.9071757 18.47085571 55.9071757 21.47085571 55.24050903 C23.8439787 53.44463218 25.11696715 51.97187872 26.40835571 49.30300903 C26.49959571 46.29208901 25.16750099 44.65496577 23.47085571 42.24050903 C22.31340084 40.87053159 22.31340084 40.87053159 19.15835571 40.92800903 C15.49754509 40.93960703 15.49754509 40.93960703 13.03335571 42.86550903 Z M61.03335571 42.86550903 C58.99924235 45.95736134 58.86480142 47.60418328 59.47085571 51.24050903 C60.97085571 53.74050903 60.97085571 53.74050903 63.47085571 55.24050903 C66.47085571 55.9071757 66.47085571 55.9071757 69.47085571 55.24050903 C71.8439787 53.44463218 73.11696715 51.97187872 74.40835571 49.30300903 C74.49959571 46.29208901 73.16750099 44.65496577 71.47085571 42.24050903 C70.31340084 40.87053159 70.31340084 40.87053159 67.15835571 40.92800903 C63.49754509 40.93960703 63.49754509 40.93960703 61.03335571 42.86550903 Z M109.03335571 42.86550903 C106.99924235 45.95736134 106.86480142 47.60418328 107.47085571 51.24050903 C108.97085571 53.74050903 108.97085571 53.74050903 111.47085571 55.24050903 C114.47085571 55.9071757 114.47085571 55.9071757 117.47085571 55.24050903 C119.8439787 53.44463218 121.11696715 51.97187872 122.40835571 49.30300903 C122.49959571 46.29208901 121.16750099 44.65496577 119.47085571 42.24050903 C118.31340084 40.87053159 118.31340084 40.87053159 115.15835571 40.92800903 C111.49754509 40.93960703 111.49754509 40.93960703 109.03335571 42.86550903 Z " fill="#2394FF" transform="translate(65.52914428710938,55.759490966796875)"/>
<path d="M0 0 C0.76331635 0.2896463 1.52663269 0.5792926 2.31307983 0.87771606 C4.82062413 1.83272361 7.32041574 2.80641726 9.8203125 3.78125 C11.57477947 4.45599762 13.32967027 5.12964414 15.08496094 5.80224609 C17.83866552 6.85820522 20.59169255 7.91575702 23.34265137 8.97885132 C30.13373179 11.60122862 36.95104014 14.14561375 43.78125 16.6640625 C46.65457193 17.73095124 49.52720372 18.79967117 52.3994751 19.86938477 C54.25621039 20.55797426 56.11472982 21.24177282 57.97503662 21.9206543 C60.58004249 22.87300312 63.17719801 23.84436353 65.7734375 24.8203125 C66.54456879 25.09690704 67.31570007 25.37350159 68.11019897 25.65847778 C68.82310089 25.93054047 69.53600281 26.20260315 70.27050781 26.48291016 C70.88710266 26.71080231 71.50369751 26.93869446 72.13897705 27.17349243 C74.97204821 28.91090838 76.23430924 30.38654937 77.9453125 33.28125 C78.53344876 36.81266033 78.49170326 40.30291633 78.46289062 43.8762207 C78.4698999 44.94365005 78.47690918 46.01107941 78.48413086 47.1108551 C78.50174527 50.64317807 78.490066 54.17469993 78.4765625 57.70703125 C78.47925859 60.17262424 78.48314198 62.63821619 78.48815918 65.10380554 C78.49406075 70.27967418 78.48547776 75.45526695 78.46679688 80.63110352 C78.44413885 87.2267121 78.45704297 93.82166484 78.48108673 100.41724873 C78.49563931 105.51605538 78.49089333 110.61471038 78.48057556 115.71352196 C78.47792747 118.14249946 78.48110962 120.57149122 78.49049377 123.00045204 C78.53948073 139.26097661 78.14546417 154.81963906 70.3203125 169.53125 C69.98040283 170.18617432 69.64049316 170.84109863 69.2902832 171.51586914 C55.41046961 197.18898841 27.47793337 210.63434723 0.7734375 219.15234375 C-8.08585007 221.76492957 -15.35388961 221.91125295 -24.1171875 219.15625 C-24.85324219 218.9303418 -25.58929688 218.70443359 -26.34765625 218.47167969 C-43.92281159 212.95302052 -61.13534032 205.55991367 -75.0546875 193.28125 C-75.65023437 192.8275 -76.24578125 192.37375 -76.859375 191.90625 C-90.46567448 181.37234073 -99.03582009 164.38297992 -101.76346397 147.66890144 C-102.89424607 138.39796944 -102.50335606 128.91161845 -102.48828125 119.58984375 C-102.49284867 117.1107621 -102.4981559 114.63168172 -102.50416565 112.15260315 C-102.51305619 106.98441382 -102.51071572 101.81637941 -102.50073242 96.64819336 C-102.48918252 90.02376185 -102.50956709 83.39985865 -102.53864956 76.77549648 C-102.55697149 71.66859041 -102.55672819 66.56181234 -102.55101204 61.45488167 C-102.55085868 59.0112235 -102.55691469 56.56755674 -102.56930351 54.12392998 C-102.58415442 50.71826398 -102.57358299 47.31359345 -102.55639648 43.90795898 C-102.57089844 42.39699142 -102.57089844 42.39699142 -102.58569336 40.85549927 C-102.54037011 36.57383262 -102.46690824 33.98584411 -100.27319336 30.23620605 C-98.17373349 28.38615379 -96.66216662 27.32947526 -94.05688477 26.37524414 C-93.27437347 26.07997833 -92.49186218 25.78471252 -91.68563843 25.48049927 C-90.83933868 25.17884857 -89.99303894 24.87719788 -89.12109375 24.56640625 C-88.22742096 24.23365692 -87.33374817 23.90090759 -86.41299438 23.55807495 C-83.48623832 22.47196951 -80.55209882 21.40759925 -77.6171875 20.34375 C-75.59037522 19.5978646 -73.56409341 18.85053622 -71.53833008 18.10180664 C-68.43822485 16.95640308 -65.3376817 15.81235628 -62.23484802 14.67436218 C-55.50385437 12.20308571 -48.80528721 9.65969206 -42.125 7.0546875 C-40.43553377 6.39948212 -38.74600095 5.74444841 -37.05639648 5.08959961 C-34.66975501 4.16430023 -32.28481712 3.23561452 -29.90457153 2.29397583 C-27.72346745 1.43244074 -25.5365253 0.58766595 -23.34765625 -0.25390625 C-21.51497192 -0.97139038 -21.51497192 -0.97139038 -19.64526367 -1.70336914 C-12.27135441 -3.78864069 -6.90322287 -2.73331773 0 0 Z M0.3984375 95.90625 C-0.18436478 96.50140915 -0.76716705 97.0965683 -1.36763 97.70976257 C-3.80430557 100.20173651 -6.23985084 102.69437384 -8.65673828 105.20556641 C-10.4395859 107.0546733 -12.23766196 108.88773757 -14.0390625 110.71875 C-14.58391296 111.29254395 -15.12876343 111.86633789 -15.69012451 112.45751953 C-19.47901951 116.27296839 -19.47901951 116.27296839 -22.24389648 116.31274414 C-24.23657053 115.17764264 -25.52005454 114.05430662 -27.04296875 112.33984375 C-27.58501953 111.75654297 -28.12707031 111.17324219 -28.68554688 110.57226562 C-29.80331938 109.34024924 -30.91279572 108.10065291 -32.01367188 106.85351562 C-35.0384308 103.62877263 -36.2895083 102.38364431 -40.8203125 101.77734375 C-44.0831814 102.05378618 -44.0831814 102.05378618 -46.4921875 103.90625 C-48.1994308 106.21626548 -48.1994308 106.21626548 -48.7421875 109.03125 C-47.67112015 114.09447747 -44.63836928 116.6692611 -41.0546875 120.28125 C-39.90727326 121.46587583 -38.76016256 122.65079571 -37.61328125 123.8359375 C-36.36612305 125.11088298 -35.11741031 126.38430956 -33.8671875 127.65625 C-33.26116699 128.27564453 -32.65514648 128.89503906 -32.03076172 129.53320312 C-31.44697754 130.11779297 -30.86319336 130.70238281 -30.26171875 131.3046875 C-29.48018433 132.09238525 -29.48018433 132.09238525 -28.68286133 132.89599609 C-26.06234762 135.12553497 -24.20032333 136.28196283 -20.70043945 136.27978516 C-16.88328838 134.83915141 -14.49088217 132.19014781 -11.72265625 129.3046875 C-11.12721512 128.7012149 -10.53177399 128.09774231 -9.91828918 127.47598267 C-8.01656386 125.54531017 -6.12893899 123.60154837 -4.2421875 121.65625 C-1.76073527 119.11823408 0.72619956 116.58564991 3.21484375 114.0546875 C3.80899078 113.44872238 4.40313782 112.84275726 5.01528931 112.21842957 C8.65606048 108.52434406 12.36602299 104.97981402 16.35229492 101.6550293 C20.25240344 98.29167135 23.59446034 95.26941226 24.5078125 90.09375 C23.87019352 86.90565512 23.36627633 85.46011745 20.9453125 83.28125 C12.6030649 79.5951406 5.73800559 90.44980923 0.3984375 95.90625 Z " fill="#2A8CFF" transform="translate(268.0546875,178.71875)"/>
<path d="M0 0 C15.84 0 31.68 0 48 0 C48 18.48 48 36.96 48 56 C32.16 56 16.32 56 0 56 C0 37.52 0 19.04 0 0 Z " fill="#446CFF" transform="translate(368,56)"/>
<path d="M0 0 C15.84 0 31.68 0 48 0 C48 18.48 48 36.96 48 56 C32.16 56 16.32 56 0 56 C0 37.52 0 19.04 0 0 Z " fill="#387BFF" transform="translate(304,56)"/>
</svg>
