<?xml version="1.0" encoding="UTF-8"?>
<svg version="1.1" xmlns="http://www.w3.org/2000/svg" width="512" height="512">
<path d="M0 0 C25.27004225 16.48109816 55.9813751 20.30867316 85.20361328 14.96582031 C99.17012871 12.0149763 114.8957069 6.78897398 126.125 -2.35546875 C130.03278718 -5.00136632 134.61116042 -3.46209548 139 -2.625 C179.59958336 6.50813798 216.22939569 31.33692935 239 66.375 C256.17981997 93.73060742 269.86144133 130.43662382 264.53125 163.26171875 C261.89317351 173.5156708 255.4736848 181.51804674 246.44873047 186.89501953 C243.43180765 188.5154401 240.38666462 190.05345274 237.3125 191.5625 C236.17401611 192.12420898 235.03553223 192.68591797 233.86254883 193.26464844 C141.79455131 237.87394258 33.1039454 242.83510264 -73.62548828 209.13452148 C-85.71207302 204.83190472 -97.45439913 199.96432383 -109 194.375 C-109.91394531 193.93897461 -110.82789063 193.50294922 -111.76953125 193.05371094 C-124.81983606 186.7740328 -135.52824446 181.51288338 -141.30859375 167.515625 C-150.11197603 140.25995556 -136.99652338 103.84828179 -124.61328125 79.63671875 C-117.44395642 66.06550176 -108.55373952 54.51505838 -98 43.375 C-97.10796875 42.41851562 -96.2159375 41.46203125 -95.296875 40.4765625 C-78.30274276 22.61611936 -24.95525842 -16.99758673 0 0 Z " fill="#009FF0" transform="translate(195,243.625)"/>
<path d="M0 0 C20.07857438 17.016773 32.30812042 41.87596911 35.5 67.8125 C35.77471541 71.90110457 35.8349493 75.96550247 35.8125 80.0625 C35.80686035 81.15296631 35.8012207 82.24343262 35.79541016 83.36694336 C35.36186297 112.38670328 22.80788868 138.18584158 2.30273438 158.49536133 C-18.35982124 178.05006609 -46.78273859 187.54321009 -74.96948242 186.79125977 C-104.14936867 185.34468894 -129.75680525 172.46684087 -150.02734375 151.5859375 C-170.63554191 128.47089691 -177.75332631 100.50213075 -176.6953125 70.00488281 C-175.08885038 43.74725953 -161.94081505 18.94476013 -142.77539062 1.21728516 C-101.29397376 -35.02622399 -42.10372066 -34.69028864 0 0 Z " fill="#00C9F0" transform="translate(326.5,63.1875)"/>
</svg>
