<?xml version="1.0" encoding="UTF-8"?>
<svg version="1.1" xmlns="http://www.w3.org/2000/svg" width="512" height="512">
<path d="M0 0 C0.7520326 -0.03542715 1.50406521 -0.0708543 2.27888668 -0.107355 C4.80834139 -0.2240519 7.33804989 -0.33311469 9.8678894 -0.44113159 C10.75362137 -0.48019371 11.63935333 -0.51925583 12.55192566 -0.55950165 C30.19146828 -1.33195681 47.83634853 -1.80360292 65.48857307 -2.17094612 C76.70771958 -2.41048394 87.90885322 -2.74071031 99.11691284 -3.30148315 C180.98321727 -7.31819691 180.98321727 -7.31819691 205.13544273 14.54574013 C214.51898594 23.428825 222.54824763 33.57156788 229.8427124 44.20684814 C232.74442153 48.37585347 235.76127706 51.6567817 239.72371101 54.82745171 C241.67990112 56.44998169 241.67990112 56.44998169 244.01721001 59.10993671 C247.3056433 61.99990084 248.77361998 62.05504724 253.09396362 61.99742126 C254.38939087 61.99273331 255.68481812 61.98804535 257.01950073 61.98321533 C258.44797615 61.9527638 259.87644276 61.92189661 261.30490112 61.89065552 C262.81472801 61.87614261 264.32457882 61.86395901 265.83444214 61.85392761 C269.08192767 61.82798129 272.32873674 61.78679448 275.57589722 61.73410988 C280.71071696 61.65212095 285.84534783 61.61158766 290.98068237 61.57807922 C304.6588205 61.48238325 318.33626043 61.33190783 332.01359558 61.15653867 C341.0029071 61.04152196 349.9917991 60.94941153 358.98173523 60.90062541 C364.0868942 60.87103351 369.18984224 60.80466199 374.29420471 60.71081316 C377.46950921 60.66069054 380.64434299 60.64397028 383.82000732 60.63658714 C385.29195442 60.62640297 386.76388071 60.60242957 388.23535156 60.56362915 C399.36407339 60.28095397 399.36407339 60.28095397 402.6330719 63.18524742 C403.94553905 65.2429515 404.84245989 67.16392827 405.67990112 69.44998169 C406.20197144 70.40646606 406.72404175 71.36295044 407.26193237 72.34841919 C407.66798706 73.16568481 408.07404175 73.98295044 408.49240112 74.82498169 C409.12081909 76.07408325 409.12081909 76.07408325 409.76193237 77.34841919 C410.67990112 79.44998169 410.67990112 79.44998169 410.67990112 81.44998169 C411.45853516 81.03317139 411.45853516 81.03317139 412.25289917 80.60794067 C414.61690072 79.35302898 416.99174825 78.1201836 419.36740112 76.88748169 C420.18402222 76.44984497 421.00064331 76.01220825 421.8420105 75.56130981 C422.63800659 75.15203247 423.43400269 74.74275513 424.25411987 74.32107544 C424.98203735 73.93878784 425.70995483 73.55650024 426.45993042 73.16262817 C429.26044641 72.26361727 430.89744726 72.57090099 433.67990112 73.44998169 C436.24536053 76.01544109 436.22036199 77.92684837 436.67990112 81.44998169 C437.22928345 81.57937134 437.77866577 81.70876099 438.34469604 81.84207153 C453.8948344 85.66197901 453.8948344 85.66197901 458.05490112 89.82888794 C459.37334488 92.39906847 460.13184654 94.61986377 460.67990112 97.44998169 C460.94802612 98.70810669 461.21615112 99.96623169 461.49240112 101.26248169 C460.5888703 104.80710261 460.27707967 105.12059193 457.36740112 107.01248169 C455.81687054 107.8475969 454.25264598 108.65749439 452.67990112 109.44998169 C450.67852692 110.55165556 448.67854351 111.65585951 446.67990112 112.76248169 C445.01455729 113.66077177 443.34835507 114.55748151 441.67990112 115.44998169 C442.667323 116.281427 443.65474487 117.11287231 444.67208862 117.96951294 C445.96652702 119.06697158 447.26078866 120.16463873 448.55490112 121.26248169 C449.20587769 121.80968872 449.85685425 122.35689575 450.52755737 122.92068481 C451.15275269 123.4524231 451.777948 123.98416138 452.42208862 124.53201294 C452.99813843 125.01903687 453.57418823 125.50606079 454.16769409 126.00784302 C455.67990112 127.44998169 455.67990112 127.44998169 457.67990112 130.44998169 C457.4895635 135.07899262 455.39256125 137.22421772 452.24240112 140.44998169 C449.11817625 143.65945829 447.07911825 146.16822437 445.67990112 150.44998169 C446.17619019 150.93466919 446.67247925 151.41935669 447.18380737 151.91873169 C449.37003052 154.07591582 451.52696048 156.2595986 453.67990112 158.44998169 C454.36954956 159.13189575 455.059198 159.81380981 455.76974487 160.51638794 C458.94041388 163.82970463 460.54721898 165.56543404 461.24240112 170.19998169 C460.67990112 173.44998169 460.67990112 173.44998169 459.52933121 175.4208231 C458.42954179 177.39828443 458.42954179 177.39828443 459.34362411 179.22803402 C459.73397968 179.86773412 460.12433525 180.50743422 460.52651978 181.16651917 C463.86419075 188.07536617 463.20533039 195.49449418 463.13400269 202.98538208 C463.13287294 204.65171277 463.13351055 206.31804546 463.13577271 207.984375 C463.13691581 212.48594119 463.11347218 216.98707714 463.08547688 221.48854375 C463.06039568 226.20104468 463.05811594 230.91355652 463.05337524 235.62611389 C463.04096516 244.54010779 463.00817027 253.45390441 462.96797729 262.36781162 C462.92319823 272.52015719 462.90125713 282.6725124 462.88119555 292.82493222 C462.83943584 313.70005862 462.76912216 334.57500771 462.67990112 355.44998169 C462.01990112 355.44998169 461.35990112 355.44998169 460.67990112 355.44998169 C459.21407758 353.30717136 457.86866598 351.18291772 456.55490112 348.94998169 C456.18236206 348.32994263 455.809823 347.70990356 455.42599487 347.07107544 C454.5041116 345.53460331 453.59116637 343.99277494 452.67990112 342.44998169 C451.83427612 343.29560669 450.98865112 344.14123169 450.11740112 345.01248169 C447.75344869 347.37643412 446.65003617 347.45159601 443.21115112 347.63748169 C439.67990112 346.44998169 439.67990112 346.44998169 438.45944214 344.76419067 C437.40511201 342.50513371 436.55112353 340.24546623 435.74240112 337.88748169 C435.44011597 337.0811731 435.13783081 336.2748645 434.8263855 335.44412231 C434.08506895 333.45551127 433.37901319 331.45381961 432.67990112 329.44998169 C429.08105139 329.44998169 426.96441295 330.50093235 423.67990112 331.94998169 C418.01323446 334.44998169 418.01323446 334.44998169 414.67990112 334.44998169 C414.99185425 335.19763794 415.30380737 335.94529419 415.62521362 336.71560669 C416.0145105 337.70045044 416.40380737 338.68529419 416.80490112 339.69998169 C417.19935425 340.67451294 417.59380737 341.64904419 418.00021362 342.65310669 C418.67990112 345.44998169 418.67990112 345.44998169 417.92599487 347.64529419 C416.29256322 350.01095382 414.49659477 352.2230669 412.67990112 354.44998169 C412.34990112 355.10998169 412.01990112 355.76998169 411.67990112 356.44998169 C358.40391838 356.51861115 305.12794009 356.57149183 251.85192185 356.60317768 C245.56574039 356.60692991 239.27955902 356.61081287 232.99337769 356.61477661 C231.74188396 356.61556354 230.49039023 356.61635047 229.20097245 356.61716125 C208.9227521 356.63022399 188.64455719 356.65388262 168.36635195 356.68144008 C147.56731632 356.70947011 126.76829405 356.72615286 105.96924031 356.73224717 C93.12959892 356.7363686 80.29002946 356.74939739 67.4504102 356.77373109 C58.65218772 356.78955863 49.85400256 356.79438882 41.05576687 356.79048582 C35.97560572 356.78855963 30.89557049 356.79156371 25.81543159 356.80759811 C21.16678817 356.8221638 16.51835571 356.82295575 11.86970271 356.81267837 C10.18588819 356.81140758 8.50206068 356.8152413 6.81827186 356.82463124 C4.53254419 356.83663922 2.2475819 356.83020106 -0.03813362 356.81912518 C-1.30867785 356.82026434 -2.57922207 356.8214035 -3.88826764 356.82257718 C-8.30078812 356.34350781 -11.67067898 354.95444069 -14.96463013 351.94998169 C-18.83597325 346.97808952 -19.4447818 343.89836932 -19.43362427 337.68362427 C-19.43377029 337.00043625 -19.43391632 336.31724823 -19.43406677 335.61335754 C-19.43337056 333.35704362 -19.42559183 331.10081243 -19.41775513 328.84451294 C-19.41588991 327.2793838 -19.4144665 325.71425408 -19.41346741 324.14912415 C-19.40965039 320.03094876 -19.39982706 315.91280867 -19.38876343 311.79464722 C-19.37853178 307.59187294 -19.37396603 303.38909296 -19.368927 299.18630981 C-19.35820407 290.94085091 -19.34113742 282.69542069 -19.32009888 274.44998169 C-12.44230618 271.07093062 -5.56352307 267.69390183 1.31588745 264.31814575 C3.64618322 263.17438334 5.97626853 262.03019202 8.30612183 260.88552856 C23.05128727 253.64162053 37.82550004 246.46746444 52.67990112 239.44998169 C51.02586186 234.21216789 49.25702166 229.23076726 46.76193237 224.32107544 C45.96432495 222.74036255 45.96432495 222.74036255 45.15060425 221.12771606 C44.60339722 220.05843872 44.05619019 218.98916138 43.49240112 217.88748169 C42.93359253 216.78339966 42.37478394 215.67931763 41.79904175 214.54177856 C40.43145809 211.84167749 39.05832279 209.14456135 37.67990112 206.44998169 C33.61362803 207.73000049 29.84393344 209.24229826 26.01974487 211.12185669 C24.45836792 211.87015747 24.45836792 211.87015747 22.865448 212.63357544 C20.69077218 213.68233672 18.52149129 214.74235528 16.3576355 215.81326294 C14.79819214 216.55382935 14.79819214 216.55382935 13.20724487 217.30935669 C11.79560059 217.99723267 11.79560059 217.99723267 10.35543823 218.69900513 C7.67990112 219.44998169 7.67990112 219.44998169 4.94772339 218.74002075 C2.06843744 217.10215371 1.08696398 215.41221929 -0.32009888 212.44998169 C-0.32009888 211.78998169 -0.32009888 211.12998169 -0.32009888 210.44998169 C-1.57822388 210.67685669 -2.83634888 210.90373169 -4.13259888 211.13748169 C-6.27713013 211.52420044 -6.27713013 211.52420044 -8.32009888 211.44998169 C-12.25780843 208.56170888 -13.20939047 203.99859707 -14.32009888 199.44998169 C-14.69509888 195.57498169 -14.69509888 195.57498169 -14.32009888 192.44998169 C-13.80447388 191.95498169 -13.28884888 191.45998169 -12.75759888 190.94998169 C-12.28322388 190.45498169 -11.80884888 189.95998169 -11.32009888 189.44998169 C-11.62947388 187.74841919 -11.62947388 187.74841919 -11.94509888 186.01248169 C-12.06884888 184.83685669 -12.19259888 183.66123169 -12.32009888 182.44998169 C-8.73422075 178.91959104 -4.49083647 176.85156636 -0.00759888 174.69998169 C0.96016479 174.22625122 0.96016479 174.22625122 1.94747925 173.74295044 C3.52224571 172.97306461 5.10070152 172.21073278 6.67990112 171.44998169 C5.86650269 170.51541138 5.05310425 169.58084106 4.21505737 168.61795044 C2.35240489 166.47781882 1.71456089 165.61557837 1.11740112 162.76248169 C1.88715182 159.59795105 2.90474123 159.1544106 5.67990112 157.44998169 C8.3876404 156.40225621 11.14452304 155.57736489 13.92990112 154.76248169 C16.48740112 153.99935669 19.04490112 153.23623169 21.67990112 152.44998169 C20.02990112 146.83998169 18.37990112 141.22998169 16.67990112 135.44998169 C14.82365112 135.90373169 12.96740112 136.35748169 11.05490112 136.82498169 C5.25774415 137.83642945 5.25774415 137.83642945 2.82833862 136.21170044 C1.9016928 135.08574812 0.99114159 133.94634036 0.09786987 132.79373169 C-1.47094818 130.99335218 -1.47094818 130.99335218 -5.25759888 131.51248169 C-6.61748966 131.79904871 -7.97214356 132.11169175 -9.32009888 132.44998169 C-16.01042146 133.6564333 -16.01042146 133.6564333 -19.32009888 131.44998169 C-19.6976223 129.3621788 -19.6976223 129.3621788 -19.7010498 126.73214722 C-19.70950928 125.73678452 -19.71796875 124.74142181 -19.72668457 123.71589661 C-19.72061188 122.61977554 -19.71453918 121.52365448 -19.70828247 120.39431763 C-19.71353943 119.24298843 -19.71879639 118.09165924 -19.72421265 116.90544128 C-19.73746617 113.08161025 -19.72865305 109.25819231 -19.71853638 105.43435669 C-19.72055612 102.78357421 -19.72346198 100.13280445 -19.72723389 97.48202515 C-19.73269729 91.91677346 -19.7254878 86.35164105 -19.71121216 80.78640747 C-19.69491644 74.35961421 -19.70014915 67.93310693 -19.71669137 61.50632071 C-19.730328 55.98688687 -19.73221435 50.46753891 -19.72437537 44.94809365 C-19.71970661 41.65252227 -19.72023493 38.357114 -19.72898483 35.06154633 C-19.73660701 31.3819095 -19.72498181 27.70281998 -19.70828247 24.02322388 C-19.71435516 22.93519974 -19.72042786 21.8471756 -19.72668457 20.72618103 C-19.67385873 14.44012584 -19.24876335 9.66083519 -14.82009888 4.80545044 C-9.84555425 0.93204199 -6.12863182 0.26527298 0 0 Z " fill="#FCCC55" transform="translate(34.320098876953125,77.55001831054688)"/>
<path d="M0 0 C3.13003645 2.19206195 6.07529686 4.54261927 9 7 C9.72832031 7.58265625 10.45664062 8.1653125 11.20703125 8.765625 C25.72219753 20.86583367 35.42507731 37.81081464 40 56 C40.29777344 57.05058594 40.59554687 58.10117187 40.90234375 59.18359375 C46.89288551 82.62124333 42.17850087 108.08016925 29.93603516 128.80078125 C27.49592624 132.69459504 24.81358408 136.36496742 22 140 C21.38640625 140.79792969 20.7728125 141.59585938 20.140625 142.41796875 C4.54176378 161.24992728 -20.26469272 172.87371994 -44.42578125 175.23730469 C-64.52380404 176.35476781 -82.64248798 172.12190915 -100 162 C-101.01578125 161.42121094 -102.0315625 160.84242188 -103.078125 160.24609375 C-125.66893786 146.64743405 -138.41520542 124.93544306 -145 100 C-145.18618896 99.30060303 -145.37237793 98.60120605 -145.56420898 97.88061523 C-146.96776139 92.1946366 -147.35066531 86.78333497 -147.3125 80.9375 C-147.30686035 80.02210449 -147.3012207 79.10670898 -147.29541016 78.16357422 C-146.84446964 52.55818948 -136.05684464 29.87593699 -118.55859375 11.42578125 C-104.22840276 -2.10173018 -87.03710979 -9.77675039 -68 -14 C-67.04734253 -14.26478149 -67.04734253 -14.26478149 -66.07543945 -14.53491211 C-43.9040388 -19.50332974 -18.69833204 -11.73055736 0 0 Z " fill="#EB5463" transform="translate(308,203)"/>
<path d="M0 0 C14.1614588 10.97774017 24.92907124 25.10094261 28.4375 42.9375 C28.67715887 44.95281319 28.86036525 46.97529613 29 49 C29.0928125 50.29421875 29.185625 51.5884375 29.28125 52.921875 C30.12817626 70.81941975 24.37632391 86.77031975 12.5625 100.3125 C11.05899683 101.89168286 9.53911432 103.45550416 8 105 C7.38640625 105.63679688 6.7728125 106.27359375 6.140625 106.9296875 C-6.92648781 119.49421905 -24.89113297 123.48505232 -42.40234375 123.203125 C-60.53209168 122.59372171 -75.81943027 113.98265931 -88 101 C-99.68445581 88.19751934 -106.07073059 71.40371978 -105.30859375 54.0703125 C-104.09068623 35.97940152 -98.29714219 20.74501171 -85 8 C-84.33742187 7.30648437 -83.67484375 6.61296875 -82.9921875 5.8984375 C-61.31370426 -15.45033497 -24.64509542 -16.97493817 0 0 Z " fill="#F66C82" transform="translate(294,227)"/>
<path d="M0 0 C2 1.6875 2 1.6875 3 4 C2.81812498 9.61483362 0.32226405 12.35127805 -3.56640625 16.0546875 C-4.11989243 16.60109894 -4.6733786 17.14751038 -5.24363708 17.71047974 C-7.00515753 19.44412728 -8.78328981 21.15953061 -10.5625 22.875 C-11.7635109 24.05091901 -12.96339427 25.22799078 -14.16210938 26.40625 C-17.09518227 29.28434799 -20.04327492 32.14621393 -23 35 C-21.4013741 39.09507697 -18.44124158 41.67893625 -15.30078125 44.61328125 C-14.16253283 45.70676843 -13.02518994 46.80119885 -11.88867188 47.89648438 C-10.09987407 49.61100514 -8.30602872 51.31854861 -6.49584961 53.01049805 C-4.74571145 54.65159481 -3.02212068 56.31707075 -1.30078125 57.98828125 C-0.75504959 58.48644852 -0.20931793 58.98461578 0.35295105 59.49787903 C1.8503418 60.97387695 1.8503418 60.97387695 4 64 C3.93884365 67.87046701 3.87295708 70.0335118 1.25 72.9375 C-1.46755013 74.22078756 -3.01573938 74.31577124 -6 74 C-8.04296875 72.6640625 -8.04296875 72.6640625 -10.1875 70.625 C-11.03441406 69.82449219 -11.88132812 69.02398437 -12.75390625 68.19921875 C-13.83874678 67.13567047 -14.92035472 66.06882177 -16 65 C-16.73202637 64.27635254 -17.46405273 63.55270508 -18.21826172 62.80712891 C-23.50656358 57.56550414 -28.76289507 52.29274596 -34 47 C-38.10948917 50.37486275 -41.91089188 53.86867808 -45.59375 57.70703125 C-46.39683594 58.54041016 -47.19992188 59.37378906 -48.02734375 60.23242188 C-49.68556441 61.96268214 -51.33393835 63.70242947 -52.97265625 65.45117188 C-59.77456477 72.45506323 -59.77456477 72.45506323 -63.94140625 73.171875 C-67 73 -67 73 -69.4375 71.4375 C-71.5458791 68.14842861 -71.81560702 66.85559681 -71 63 C-66.3085407 56.5795372 -60.19784128 51.0763087 -54.5625 45.5 C-53.73556641 44.67757812 -52.90863281 43.85515625 -52.05664062 43.0078125 C-50.04005041 41.00287887 -48.02114764 39.00033747 -46 37 C-47.5287789 33.3655151 -49.69722359 31.08469094 -52.5 28.33984375 C-53.386875 27.46392578 -54.27375 26.58800781 -55.1875 25.68554688 C-56.115625 24.77869141 -57.04375 23.87183594 -58 22.9375 C-59.83554786 21.13636866 -61.66898143 19.33307936 -63.5 17.52734375 C-64.3146875 16.73062256 -65.129375 15.93390137 -65.96875 15.11303711 C-68.51732653 12.46184361 -69.90337355 10.75690722 -70.375 7.0625 C-70 4 -70 4 -68.375 1.625 C-65.24834126 -0.51429282 -63.74225395 -0.50388547 -60 0 C-57.82159895 1.71364784 -56.14700434 3.26431884 -54.3046875 5.28515625 C-53.7899588 5.820233 -53.2752301 6.35530975 -52.74490356 6.90660095 C-51.10647512 8.61154965 -49.48914803 10.33456777 -47.875 12.0625 C-46.25282607 13.79299499 -44.62663656 15.51832908 -42.9836731 17.22911072 C-41.96285918 18.29233409 -40.95394178 19.36713379 -39.95846558 20.45411682 C-37.43996266 23.18635702 -37.43996266 23.18635702 -33.99511719 24.14038086 C-31.11079642 22.49174377 -28.93197745 20.2790877 -26.6484375 17.90625 C-26.1483316 17.39952759 -25.64822571 16.89280518 -25.13296509 16.37072754 C-23.53970995 14.75410486 -21.95697556 13.1276557 -20.375 11.5 C-18.78418756 9.87412436 -17.19125458 8.25040757 -15.59561157 6.62927246 C-14.60409831 5.62078267 -13.61568805 4.60923085 -12.63070679 3.59436035 C-8.18799893 -0.94524768 -6.33178967 -1.44409238 0 0 Z " fill="#F4F2F5" transform="translate(289,246)"/>
</svg>
