<?xml version="1.0" encoding="UTF-8"?>
<svg version="1.1" xmlns="http://www.w3.org/2000/svg" width="512" height="512">
<path d="M0 0 C2.59729509 2.31710743 5.13711895 4.68292023 7.66015625 7.08105469 C10.16735285 9.47708274 10.16735285 9.47708274 12.84765625 11.55371094 C16.45412744 14.45677121 19.22241494 17.93649032 22.2109375 21.45605469 C23.02691406 22.37257813 23.84289062 23.28910156 24.68359375 24.23339844 C32.45702821 33.03968675 38.9758093 42.51331495 45.2109375 52.45605469 C45.62085938 53.10380859 46.03078125 53.7515625 46.453125 54.41894531 C57.8156705 72.62570866 65.37078144 93.61351557 70.2109375 114.45605469 C70.41976563 115.33438965 70.62859375 116.21272461 70.84375 117.11767578 C77.23630237 145.34301975 77.01226067 178.37679442 70.2109375 206.45605469 C69.97487793 207.43558105 69.73881836 208.41510742 69.49560547 209.42431641 C60.84986254 243.99056521 44.52387012 273.77764608 21.2109375 300.45605469 C20.48777344 301.30296875 19.76460938 302.14988281 19.01953125 303.02246094 C14.74270184 307.96885268 10.2116514 312.25613654 5.2109375 316.45605469 C4.29957031 317.266875 3.38820313 318.07769531 2.44921875 318.91308594 C-31.23737031 348.66650297 -77.29854245 368.23479105 -122.50390625 368.69433594 C-123.30864883 368.70417511 -124.11339142 368.71401428 -124.94252014 368.72415161 C-181.29355701 369.27054898 -231.21203775 352.98648386 -273.7890625 315.45605469 C-275.05363281 314.37517578 -275.05363281 314.37517578 -276.34375 313.27246094 C-281.29643082 308.99514568 -285.5859949 304.46051854 -289.7890625 299.45605469 C-290.59988281 298.5446875 -291.41070312 297.63332031 -292.24609375 296.69433594 C-300.02722646 287.88459755 -306.54989729 278.40523198 -312.7890625 268.45605469 C-313.40394531 267.48442383 -313.40394531 267.48442383 -314.03125 266.49316406 C-325.3937955 248.28640071 -332.94890644 227.2985938 -337.7890625 206.45605469 C-337.99789062 205.57771973 -338.20671875 204.69938477 -338.421875 203.79443359 C-350.02238761 152.57413228 -339.61608241 94.77093449 -311.7890625 50.45605469 C-304.89135078 39.80662638 -297.17083094 29.96489246 -288.7890625 20.45605469 C-288.06847656 19.61300781 -287.34789062 18.76996094 -286.60546875 17.90136719 C-282.3281535 12.94868637 -277.79352636 8.65912229 -272.7890625 4.45605469 C-271.87769531 3.64523438 -270.96632813 2.83441406 -270.02734375 1.99902344 C-261.21760536 -5.78210928 -251.7382398 -12.3047801 -241.7890625 -18.54394531 C-241.14130859 -18.95386719 -240.49355469 -19.36378906 -239.82617188 -19.78613281 C-167.09379365 -65.17722959 -64.49038523 -55.65463922 0 0 Z " fill="#B9D6FF" transform="translate(389.7890625,95.5439453125)"/>
<path d="M0 0 C0.74765625 -0.02578125 1.4953125 -0.0515625 2.265625 -0.078125 C8.25121233 0.71242427 12.17864768 4.30851836 16.29638672 8.45581055 C16.81420212 8.97318787 17.33201752 9.49056519 17.86552429 10.02362061 C19.56079542 11.72096752 21.24521462 13.42866082 22.9296875 15.13671875 C24.10872754 16.32135903 25.28843541 17.50533498 26.46878052 18.68867493 C29.5628057 21.79411503 32.6477125 24.90846025 35.73077393 28.02478027 C38.88274123 31.20752077 42.04329464 34.38170986 45.203125 37.55664062 C51.39382699 43.77944759 57.57491718 50.01169352 63.75 56.25 C67.59904878 54.66780004 70.00831362 52.22070826 72.9140625 49.28125 C73.66607941 48.52485229 73.66607941 48.52485229 74.43328857 47.75317383 C75.51804337 46.66082521 76.60048196 45.56617265 77.68084717 44.46948242 C79.39138988 42.73336507 81.10814489 41.00361433 82.82666016 39.27539062 C86.47339865 35.60581637 90.11225072 31.92848287 93.75 28.25 C97.96596457 23.98682729 102.18510359 19.72690248 106.41278076 15.4753418 C108.10305948 13.77210867 109.78719563 12.06295767 111.47119141 10.35351562 C112.50914261 9.30829824 113.54737628 8.26336125 114.5859375 7.21875 C115.48876465 6.30544922 116.3915918 5.39214844 117.32177734 4.45117188 C121.64521108 0.53200049 124.81209602 -0.15482683 130.5078125 0.00390625 C135.39215739 0.53999288 138.45007628 2.68577265 141.5625 6.3125 C144.11242636 9.73668683 144.91489315 11.32976448 145 15.5 C145.03867187 16.62148437 145.03867187 16.62148437 145.078125 17.765625 C144.28757573 23.75121233 140.69148164 27.67864768 136.54418945 31.79638672 C136.02681213 32.31420212 135.50943481 32.83201752 134.97637939 33.36552429 C133.27903248 35.06079542 131.57133918 36.74521462 129.86328125 38.4296875 C128.67864097 39.60872754 127.49466502 40.78843541 126.31132507 41.96878052 C123.20588497 45.0628057 120.09153975 48.1477125 116.97521973 51.23077393 C113.79247923 54.38274123 110.61829014 57.54329464 107.44335938 60.703125 C101.22055241 66.89382699 94.98830648 73.07491718 88.75 79.25 C90.33219996 83.09904878 92.77929174 85.50831362 95.71875 88.4140625 C96.22301514 88.9154071 96.72728027 89.41675171 97.24682617 89.93328857 C98.33917479 91.01804337 99.43382735 92.10048196 100.53051758 93.18084717 C102.26663493 94.89138988 103.99638567 96.60814489 105.72460938 98.32666016 C109.39418363 101.97339865 113.07151713 105.61225072 116.75 109.25 C121.01317271 113.46596457 125.27309752 117.68510359 129.5246582 121.91278076 C131.22789133 123.60305948 132.93704233 125.28719563 134.64648438 126.97119141 C135.69170176 128.00914261 136.73663875 129.04737628 137.78125 130.0859375 C138.69455078 130.98876465 139.60785156 131.8915918 140.54882812 132.82177734 C144.46799951 137.14521108 145.15482683 140.31209602 144.99609375 146.0078125 C144.46390144 150.85667581 142.3273332 153.93900758 138.75 157.0625 C135.22780205 159.63076934 132.70144589 160.42257777 128.4375 160.5625 C127.69886719 160.59988281 126.96023438 160.63726562 126.19921875 160.67578125 C120.46996543 159.67978665 116.25236932 154.99872234 112.29541016 151.02246094 C111.78734833 150.51469116 111.2792865 150.00692139 110.75582886 149.48376465 C109.09544854 147.82200282 107.44224546 146.15329449 105.7890625 144.484375 C104.63222362 143.32380179 103.47493928 142.16367246 102.31723022 141.00396729 C99.28462736 137.96376103 96.25808132 134.91759497 93.23278809 131.87011719 C90.13932015 128.75611963 87.04011915 125.64783932 83.94140625 122.5390625 C77.87200184 116.44826634 71.80898879 110.3511574 65.75 104.25 C61.90172523 105.83094692 59.50168383 108.27539826 56.60180664 111.21875 C55.85219917 111.97514771 55.85219917 111.97514771 55.08744812 112.74682617 C54.00599862 113.8392103 52.92683537 114.93386153 51.84971809 116.03051758 C50.14346089 117.76699102 48.43056587 119.49665643 46.71568298 121.22460938 C41.84230729 126.13769511 36.98173768 131.0633811 32.12426758 135.9921875 C29.14987599 139.00932675 26.16818298 142.01909545 23.18209648 145.0246582 C22.04729989 146.1700109 20.91542726 147.31826841 19.78657722 148.46948242 C18.20702781 150.08027741 16.61842426 151.6816123 15.02758789 153.28125 C14.12698135 154.19455078 13.22637482 155.10785156 12.29847717 156.04882812 C7.8210689 159.91605725 3.71885418 160.70987593 -2.0390625 160.56640625 C-6.74733613 159.89260737 -9.49151357 157.09048497 -12.5625 153.6875 C-14.80688807 150.44560612 -15.43564203 147.80332963 -15.5625 143.9375 C-15.59988281 143.19886719 -15.63726562 142.46023438 -15.67578125 141.69921875 C-14.67978665 135.96996543 -9.99872234 131.75236932 -6.02246094 127.79541016 C-5.26080627 127.03331741 -5.26080627 127.03331741 -4.48376465 126.25582886 C-2.82200282 124.59544854 -1.15329449 122.94224546 0.515625 121.2890625 C1.67619821 120.13222362 2.83632754 118.97493928 3.99603271 117.81723022 C7.03623897 114.78462736 10.08240503 111.75808132 13.12988281 108.73278809 C16.24388037 105.63932015 19.35216068 102.54011915 22.4609375 99.44140625 C28.55173366 93.37200184 34.6488426 87.30898879 40.75 81.25 C39.16905308 77.40172523 36.72460174 75.00168383 33.78125 72.10180664 C33.27698486 71.60206833 32.77271973 71.10233002 32.25317383 70.58744812 C31.1607897 69.50599862 30.06613847 68.42683537 28.96948242 67.34971809 C27.23300898 65.64346089 25.50334357 63.93056587 23.77539062 62.21568298 C18.86230489 57.34230729 13.9366189 52.48173768 9.0078125 47.62426758 C5.99067325 44.64987599 2.98090455 41.66818298 -0.0246582 38.68209648 C-1.1700109 37.54729989 -2.31826841 36.41542726 -3.46948242 35.28657722 C-5.08027741 33.70702781 -6.6816123 32.11842426 -8.28125 30.52758789 C-9.19455078 29.62698135 -10.10785156 28.72637482 -11.04882812 27.79847717 C-14.91605725 23.3210689 -15.70987593 19.21885418 -15.56640625 13.4609375 C-14.88903941 8.72773218 -12.08229084 5.9832086 -8.625 2.9375 C-5.50148967 0.71816371 -3.78313951 0.07720693 0 0 Z " fill="#549BFF" transform="translate(191.25,175.75)"/>
</svg>
