<?xml version="1.0" encoding="UTF-8"?>
<svg version="1.1" xmlns="http://www.w3.org/2000/svg" width="512" height="512">
<path d="M0 0 C4.83981742 5.27980082 5.59615376 9.93385651 5.51147461 16.91015625 C4.69057615 23.01667659 1.58218662 27.79682661 -1.5625 33 C-2.24440688 34.16907118 -2.92397552 35.33950904 -3.60131836 36.51123047 C-4.99638 38.9148304 -6.40588297 41.3089659 -7.82861328 43.69628906 C-9.86655508 47.11924552 -11.8573168 50.56804622 -13.83984375 54.0234375 C-29.88443826 81.89897942 -29.88443826 81.89897942 -36.9375 84.25 C-38.42594716 84.33650584 -39.91798257 84.36770173 -41.40893555 84.36352539 C-42.75999641 84.36341209 -42.75999641 84.36341209 -44.13835144 84.36329651 C-45.10718765 84.35813522 -46.07602386 84.35297394 -47.07421875 84.34765625 C-48.56608452 84.34553383 -48.56608452 84.34553383 -50.08808899 84.34336853 C-53.26708982 84.33776761 -56.44602043 84.32521496 -59.625 84.3125 C-61.77929586 84.30748512 -63.93359282 84.30292219 -66.08789062 84.29882812 C-71.37111774 84.28779788 -76.65430385 84.27105886 -81.9375 84.25 C-81.53120361 85.43263428 -81.12490723 86.61526855 -80.70629883 87.83374023 C-75.21328624 103.96458798 -75.21328624 103.96458798 -73.625 112.3125 C-73.39200195 113.43688477 -73.39200195 113.43688477 -73.15429688 114.58398438 C-71.39374651 123.34140015 -70.78987314 131.88727588 -70.875 140.8125 C-70.87951172 141.72580078 -70.88402344 142.63910156 -70.88867188 143.58007812 C-70.9003126 145.80345738 -70.91666149 148.02669121 -70.9375 150.25 C-70.17630356 150.24111755 -69.41510712 150.23223511 -68.63084412 150.2230835 C-61.43686602 150.14274169 -54.24310724 150.08193684 -47.04879665 150.04275131 C-43.35061348 150.02192786 -39.65280281 149.99370776 -35.95483398 149.94824219 C-32.38216076 149.90459489 -28.80984452 149.88082351 -25.23692513 149.87049103 C-23.87781217 149.86313326 -22.51871747 149.84876528 -21.15975761 149.82707977 C-7.82668845 149.62289222 -7.82668845 149.62289222 -1.9375 154.25 C1.80318657 159.07351689 3.43453296 162.89670056 3.34375 169.05859375 C2.6788771 174.2390618 0.22877073 178.14062053 -3.5 181.6875 C-7.56997459 184.29645807 -10.68902565 184.3724174 -15.4284668 184.36352539 C-16.40935776 184.36374443 -16.40935776 184.36374443 -17.4100647 184.3639679 C-19.56898326 184.36327188 -21.72781528 184.35549408 -23.88671875 184.34765625 C-25.38458713 184.34579096 -26.88245611 184.34436758 -28.38032532 184.34336853 C-32.32095019 184.33955207 -36.26153814 184.3297292 -40.20214844 184.31866455 C-44.22395325 184.30843172 -48.24576404 184.3038669 -52.26757812 184.29882812 C-60.15756901 184.28810616 -68.04752991 184.27104017 -75.9375 184.25 C-76.13013428 185.25511375 -76.13013428 185.25511375 -76.32666016 186.28053284 C-76.58648682 187.61228798 -76.58648682 187.61228798 -76.8515625 188.97094727 C-77.02123535 189.8472731 -77.1909082 190.72359894 -77.36572266 191.6264801 C-78.23297841 195.6057611 -79.51914971 199.37511897 -80.9375 203.1875 C-81.38391846 204.3926123 -81.38391846 204.3926123 -81.83935547 205.62207031 C-86.43468517 217.59270661 -92.39389592 228.89155693 -99.9375 239.25 C-99.39150146 239.25142502 -98.84550293 239.25285004 -98.28295898 239.25431824 C-92.57176233 239.27408902 -86.8616239 239.32851913 -81.15087891 239.40258789 C-79.0230266 239.42570618 -76.89506086 239.44014904 -74.76708984 239.44555664 C-71.6981793 239.45489118 -68.63103767 239.49598122 -65.5625 239.54296875 C-64.14795532 239.53706978 -64.14795532 239.53706978 -62.70483398 239.53105164 C-56.26884381 239.67146997 -51.85543979 240.99178722 -46.9375 245.25 C-44.90625 247.76000977 -44.90625 247.76000977 -43.4375 250.44140625 C-42.86805664 251.45557617 -42.29861328 252.46974609 -41.71191406 253.51464844 C-40.8335791 255.14708496 -40.8335791 255.14708496 -39.9375 256.8125 C-38.97412882 258.54341114 -38.01072418 260.27430432 -37.04571533 262.00430298 C-36.03289289 263.82592896 -35.02874257 265.65214726 -34.02539062 267.47900391 C-31.89850122 271.33779255 -29.7138463 275.16196722 -27.515625 278.98046875 C-27.15223022 279.61211441 -26.78883545 280.24376007 -26.41442871 280.89454651 C-25.69230155 282.14926368 -24.97001362 283.40388833 -24.24755859 284.65841675 C-22.56155265 287.58742494 -20.88033728 290.51906665 -19.203125 293.453125 C-18.64399414 294.42926758 -18.08486328 295.40541016 -17.50878906 296.41113281 C-13.79122303 303.12770487 -12.03561258 307.57143069 -12.9375 315.25 C-14.86471917 320.92458978 -18.57851742 324.57050871 -23.9375 327.25 C-29.49281248 327.7572965 -34.35580236 328.01260422 -39.4375 325.5625 C-43.72546141 321.5961357 -46.68081692 317.19466777 -49.546875 312.12890625 C-49.87737854 311.54769516 -50.20788208 310.96648407 -50.54840088 310.36766052 C-51.59887694 308.51823497 -52.64332912 306.66549126 -53.6875 304.8125 C-54.3719893 303.60458725 -55.0568824 302.39690322 -55.7421875 301.18945312 C-56.76892457 299.38016585 -57.79464928 297.57035173 -58.81677246 295.75845337 C-60.60433995 292.59050783 -62.40731653 289.43280301 -64.23632812 286.28857422 C-64.6077594 285.64750229 -64.97919067 285.00643036 -65.36187744 284.34593201 C-66.07525273 283.11621848 -66.79203489 281.88847339 -67.51263428 280.66297913 C-69.9375 276.47337899 -69.9375 276.47337899 -69.9375 274.25 C-77.91047511 274.14822635 -85.88116545 274.10191549 -93.85466957 274.12302971 C-97.5588317 274.1311678 -101.261013 274.12144648 -104.96484375 274.06835938 C-126.3212847 273.09772555 -126.3212847 273.09772555 -144.45849609 282.76416016 C-145.27656738 283.5844873 -146.09463867 284.40481445 -146.9375 285.25 C-149.24072266 286.81787109 -149.24072266 286.81787109 -151.3125 287.984375 C-152.21947632 288.49919434 -152.21947632 288.49919434 -153.14477539 289.02441406 C-153.73637451 289.34635742 -154.32797363 289.66830078 -154.9375 290 C-155.93221313 290.54865723 -155.93221313 290.54865723 -156.94702148 291.10839844 C-177.3855406 302.183626 -198.92542052 307.94879205 -221.9375 310.25 C-221.9375 215.87 -221.9375 121.49 -221.9375 24.25 C-188.9375 24.25 -155.9375 24.25 -121.9375 24.25 C-109.19651442 36.99098558 -109.19651442 36.99098558 -105.25 42.3125 C-104.82267578 42.86615234 -104.39535156 43.41980469 -103.95507812 43.99023438 C-100.9375 47.97653742 -100.9375 47.97653742 -100.9375 50.25 C-84.7675 50.25 -68.5975 50.25 -51.9375 50.25 C-51.2775 48.6 -50.6175 46.95 -49.9375 45.25 C-48.84208384 43.20451137 -47.71234381 41.17722446 -46.55859375 39.1640625 C-46.06629776 38.30232925 -46.06629776 38.30232925 -45.5640564 37.42318726 C-44.50473989 35.571639 -43.44038279 33.72306354 -42.375 31.875 C-42.01401215 31.2473877 -41.65302429 30.61977539 -41.28109741 29.97314453 C-39.48460554 26.84994098 -37.68452344 23.72885371 -35.87988281 20.61035156 C-34.26394391 17.81475289 -32.65786678 15.01385476 -31.0546875 12.2109375 C-30.28763305 10.88994218 -29.51953713 9.56955059 -28.75 8.25 C-28.11707031 7.156875 -27.48414063 6.06375 -26.83203125 4.9375 C-24.0517066 0.99345183 -21.16022265 -1.22255101 -16.75 -3.125 C-10.64001203 -4.12663737 -5.3308454 -3.17582279 0 0 Z " fill="#6A7BFF" transform="translate(490.9375,168.75)"/>
<path d="M0 0 C3.49190812 3.90831507 5.75834609 8.67800198 8.21166992 13.27587891 C9.94314624 16.46196063 11.6807766 19.63793606 13.47924805 22.78686523 C15.18082711 25.85526755 16.51260113 28.99081213 17.8347168 32.23950195 C22.02211235 42.32419438 22.02211235 42.32419438 30.21807861 48.90216064 C37.70961 50.56161077 45.23396537 50.03204239 52.83666992 49.58837891 C55.14243986 49.53118026 57.4484686 49.48356665 59.75463867 49.44580078 C65.37306731 49.33307027 70.97677458 49.1016877 76.58666992 48.77587891 C76.86357666 48.01903809 77.1404834 47.26219727 77.42578125 46.48242188 C78.47760707 44.03015248 79.4334595 42.46129426 81.16088867 40.47119141 C81.66426758 39.88724609 82.16764648 39.30330078 82.6862793 38.70166016 C83.2102832 38.10740234 83.73428711 37.51314453 84.27416992 36.90087891 C85.03117187 36.02109375 85.03117187 36.02109375 85.8034668 35.12353516 C89.56750738 30.79322298 93.51035712 26.85219171 97.58666992 22.77587891 C130.58666992 22.77587891 163.58666992 22.77587891 197.58666992 22.77587891 C197.58666992 117.15587891 197.58666992 211.53587891 197.58666992 308.77587891 C173.74582775 305.52485497 138.84328194 299.82663324 120.00317383 281.22509766 C108.5069288 270.4567155 93.1737562 272.41421915 78.42095947 272.62567139 C74.71314919 272.66797671 71.00558114 272.6528853 67.29760742 272.64306641 C60.05969737 272.63213728 52.82407857 272.68349464 45.58666992 272.77587891 C45.28458618 273.7119548 44.98250244 274.6480307 44.67126465 275.61247253 C43.61352982 278.6975374 42.33783433 281.21349465 40.68041992 284.01416016 C39.81900391 285.48018677 39.81900391 285.48018677 38.94018555 286.97583008 C38.32852539 288.00297119 37.71686523 289.0301123 37.08666992 290.08837891 C35.81566299 292.23671371 34.54483076 294.38515188 33.27416992 296.53369141 C32.64768555 297.58975586 32.02120117 298.64582031 31.37573242 299.73388672 C29.77248747 302.45992822 28.20181211 305.20049393 26.64916992 307.95556641 C26.2115332 308.72473389 25.77389648 309.49390137 25.32299805 310.28637695 C24.52638527 311.68910131 23.73795499 313.09652012 22.9597168 314.50952148 C20.11220108 319.47293495 16.81085135 323.16378819 11.58666992 325.77587891 C6.03135745 326.2831754 1.16836757 326.53848313 -3.91333008 324.08837891 C-8.76923947 319.59666272 -11.492188 315.97053109 -11.85083008 309.27587891 C-11.77034662 305.0358824 -10.9490124 302.39093575 -8.82739258 298.73291016 C-8.28107178 297.77400879 -7.73475098 296.81510742 -7.171875 295.82714844 C-6.59155518 294.82022949 -6.01123535 293.81331055 -5.41333008 292.77587891 C-4.27279141 290.70897176 -3.13615992 288.63990442 -2.00317383 286.56884766 C1.18564203 280.7894178 4.40063998 275.02504781 7.63061523 269.26855469 C8.9002759 267.00515455 10.16119995 264.73758823 11.41772461 262.46679688 C13.10041505 259.43336578 14.80834639 256.41566146 16.52416992 253.40087891 C17.01860596 252.49877686 17.51304199 251.5966748 18.02246094 250.66723633 C18.74840454 249.41003784 18.74840454 249.41003784 19.48901367 248.12744141 C19.89627686 247.40379395 20.30354004 246.68014648 20.72314453 245.93457031 C24.81017247 241.20019313 29.34929647 238.5786556 35.62573242 238.11645508 C37.48733619 238.07583922 39.34963932 238.06108257 41.21166992 238.06884766 C42.19917236 238.05372635 43.1866748 238.03860504 44.20410156 238.02302551 C47.33185993 237.98032949 50.45864983 237.97132783 53.58666992 237.96337891 C55.71820576 237.9402206 57.84971881 237.9148525 59.98120117 237.88720703 C65.18303346 237.82453404 70.38449007 237.78945623 75.58666992 237.77587891 C74.98483887 236.8587915 74.38300781 235.9417041 73.76293945 234.99682617 C65.42123814 222.20969965 65.42123814 222.20969965 62.46166992 215.71337891 C62.14456055 215.03001465 61.82745117 214.34665039 61.50073242 213.64257812 C51.58666992 191.5769043 51.58666992 191.5769043 51.58666992 182.77587891 C50.7628331 182.78476135 49.93899628 182.7936438 49.0901947 182.80279541 C41.30756783 182.88310781 33.52514329 182.94392743 25.74220943 182.98312759 C21.74137052 183.00395874 17.74087544 183.0321935 13.74023438 183.07763672 C9.87579047 183.12125571 6.01167626 183.14504963 2.14700508 183.15538788 C0.67625301 183.16275063 -0.79448201 183.1771284 -2.26509285 183.19879913 C-16.67066129 183.40254026 -16.67066129 183.40254026 -22.41333008 178.77587891 C-26.15401665 173.95236202 -27.78536303 170.12917835 -27.69458008 163.96728516 C-27.02970717 158.78681711 -24.57960081 154.88525838 -20.85083008 151.33837891 C-16.9217686 148.81974975 -13.95190376 148.65308261 -9.38134766 148.66235352 C-8.14028763 148.66242905 -6.8992276 148.66250458 -5.62055969 148.6625824 C-4.2663265 148.667689 -2.91209371 148.67290499 -1.55786133 148.67822266 C-0.17209423 148.68008807 1.21367353 148.68151139 2.59944153 148.68251038 C6.24414902 148.68632581 9.88881657 148.69614778 13.5335083 148.70721436 C17.2536973 148.71744941 20.97389277 148.72201249 24.6940918 148.72705078 C31.99163603 148.73777092 39.28914738 148.75483566 46.58666992 148.77587891 C46.57361816 147.52468262 46.56056641 146.27348633 46.54711914 144.984375 C46.41851566 127.60332074 46.41851566 127.60332074 47.71166992 119.40087891 C47.83856201 118.55074219 47.9654541 117.70060547 48.09619141 116.82470703 C49.97303471 105.2389926 53.13772058 93.64288709 57.58666992 82.77587891 C57.03623016 82.78254074 56.48579041 82.78920258 55.91867065 82.79606628 C50.17590186 82.86257412 44.43324297 82.90774345 38.69018555 82.94067383 C36.54853876 82.95573532 34.40692268 82.97618862 32.26538086 83.00219727 C29.18229581 83.03869618 26.09961954 83.05563193 23.01635742 83.06884766 C22.06300507 83.08433151 21.10965271 83.09981537 20.12741089 83.11576843 C14.05516868 83.11729643 9.46300227 82.59838515 4.91674805 78.13720703 C0.85916182 72.41997652 -2.55772171 66.42702634 -5.91333008 60.27587891 C-11.45995316 50.23031155 -17.15052494 40.28297856 -22.9699707 30.39306641 C-23.52362305 29.45076172 -24.07727539 28.50845703 -24.64770508 27.53759766 C-25.13464844 26.71219482 -25.6215918 25.88679199 -26.12329102 25.03637695 C-29.68429627 18.79653068 -30.15947371 13.98230407 -29.41333008 6.77587891 C-28.14030565 2.48418576 -25.76480783 -0.26616973 -21.97583008 -2.59912109 C-14.15629475 -6.16592668 -6.72421879 -5.91629065 0 0 Z " fill="#6A7BFF" transform="translate(45.413330078125,170.22412109375)"/>
<path d="M0 0 C4.60089279 2.32539701 6.98043826 5.69348202 8.80078125 10.34765625 C10.46819318 16.35033921 9.71296721 20.94079848 6.80078125 26.34765625 C3.0126996 30.8457467 -1.19105394 34.86207053 -5.44921875 38.91015625 C-7.68862917 41.07295357 -9.92031108 43.2436559 -12.15234375 45.4140625 C-12.96269325 46.19754562 -12.96269325 46.19754562 -13.78941345 46.99685669 C-17.19539775 50.30654373 -20.36456835 53.72395186 -23.43310547 57.34350586 C-27.28458533 61.71408896 -31.49997553 65.74962985 -35.63671875 69.84765625 C-36.55904297 70.76546875 -37.48136719 71.68328125 -38.43164062 72.62890625 C-40.68521774 74.8708068 -42.9411095 77.11032225 -45.19921875 79.34765625 C-43.70214929 83.33352124 -42.07535021 85.81918354 -39.19921875 88.97265625 C-23.23008616 108.08410202 -16.19921875 132.78992781 -16.19921875 157.34765625 C-47.87921875 157.34765625 -79.55921875 157.34765625 -112.19921875 157.34765625 C-112.19921875 121.37765625 -112.19921875 85.40765625 -112.19921875 48.34765625 C-99.46937173 49.50491507 -99.46937173 49.50491507 -93.07421875 51.66015625 C-92.39262695 51.87873291 -91.71103516 52.09730957 -91.00878906 52.32250977 C-86.47529253 53.81083877 -82.18976958 55.5707777 -77.99609375 57.84375 C-76.16291553 58.53766187 -76.16291553 58.53766187 -74.234375 57.703125 C-71.81903147 56.0944413 -69.91957207 54.29522784 -67.88671875 52.22265625 C-66.80970703 51.13597656 -66.80970703 51.13597656 -65.7109375 50.02734375 C-63.78002765 47.96730618 -61.93292766 45.88499112 -60.09570312 43.74414062 C-56.02663648 39.0855156 -51.71316537 34.69984782 -47.34375 30.32421875 C-46.10766243 29.08313858 -46.10766243 29.08313858 -44.84660339 27.81698608 C-43.11755013 26.0829023 -41.38716873 24.35014188 -39.65551758 22.61865234 C-37.00378839 19.9647193 -34.36018061 17.3028673 -31.71679688 14.640625 C-30.03043732 12.95133422 -28.34360497 11.26251526 -26.65625 9.57421875 C-25.86765091 8.77843414 -25.07905182 7.98264954 -24.26655579 7.16275024 C-23.52866318 6.42793427 -22.79077057 5.69311829 -22.03051758 4.93603516 C-21.38544754 4.2895401 -20.7403775 3.64304504 -20.07575989 2.97695923 C-14.50871295 -1.85661781 -6.91634799 -2.05156326 0 0 Z " fill="#6A8EFF" transform="translate(381.19921875,16.65234375)"/>
<path d="M0 0 C0.90363281 -0.02835938 1.80726563 -0.05671875 2.73828125 -0.0859375 C11.57653462 1.29540541 17.23266074 8.53539776 23.1875 14.625 C24.09886719 15.54152344 25.01023438 16.45804688 25.94921875 17.40234375 C29.74747963 21.24445179 33.49965092 25.08955212 37.00390625 29.203125 C42.35217797 35.42616579 48.30595155 41.09775846 54.125 46.875 C55.3459369 48.09091114 56.56664192 49.30705516 57.78710938 50.5234375 C60.75124013 53.47664966 63.71848958 56.42669398 66.6875 59.375 C71.4945562 57.79438144 76.27321331 56.18429634 81 54.375 C88.87479531 51.4993725 96.27102352 49.375 104.6875 49.375 C104.6875 85.345 104.6875 121.315 104.6875 158.375 C73.0075 158.375 41.3275 158.375 8.6875 158.375 C10.50580636 127.46379191 19.44559449 105.41795081 38.6875 81.375 C37.74242584 80.43991859 37.74242584 80.43991859 36.77825928 79.48594666 C30.82661243 73.59454308 24.88230766 67.69584929 18.94602585 61.78896236 C15.89425677 58.75281376 12.83977546 55.71950459 9.77880859 52.69262695 C6.82198751 49.76852835 3.87266895 46.83704916 0.92829132 43.90042305 C-0.19334524 42.7843069 -1.31760834 41.67082355 -2.44458771 40.56010246 C-4.02912478 38.99751087 -5.60385286 37.42560691 -7.17675781 35.85131836 C-8.07388489 34.96085312 -8.97101196 34.07038788 -9.89532471 33.15293884 C-14.44169929 27.9280176 -17.65024017 22.45403399 -17.3125 15.375 C-16.13675146 9.75637867 -13.76831465 6.07006581 -9.3125 2.375 C-6.15713331 0.46020483 -3.67638381 0.05199977 0 0 Z " fill="#6A8EFF" transform="translate(138.3125,15.625)"/>
</svg>
