<?xml version="1.0" encoding="UTF-8"?>
<svg version="1.1" xmlns="http://www.w3.org/2000/svg" width="512" height="512">
<path d="M0 0 C1.01790619 0.00215515 2.03581238 0.0043103 3.08456421 0.00653076 C17.69363523 0.05620146 32.02575853 0.30709809 46.375 3.3125 C47.34985352 3.51117676 48.32470703 3.70985352 49.32910156 3.91455078 C97.7109774 14.03517194 141.69928269 35.9516877 177.375 70.3125 C178.3640332 71.26068604 178.3640332 71.26068604 179.37304688 72.22802734 C188.86130305 81.37247479 197.6012044 90.66984009 205.375 101.3125 C206.23306152 102.46355017 207.09113451 103.61459177 207.94921875 104.765625 C213.98736829 112.95680614 219.34595521 121.47054105 224.375 130.3125 C224.73948242 130.94430176 225.10396484 131.57610352 225.47949219 132.22705078 C247.08534998 169.97532572 256.85198095 212.74189997 256.6875 255.9375 C256.68534485 256.95540619 256.6831897 257.97331238 256.68096924 259.02206421 C256.63129854 273.63113523 256.38040191 287.96325853 253.375 302.3125 C253.07698486 303.77478027 253.07698486 303.77478027 252.77294922 305.26660156 C242.65232806 353.6484774 220.7358123 397.63678269 186.375 433.3125 C185.74287598 433.97185547 185.11075195 434.63121094 184.45947266 435.31054688 C175.31502521 444.79880305 166.01765991 453.5387044 155.375 461.3125 C154.22394983 462.17056152 153.07290823 463.02863451 151.921875 463.88671875 C143.73224019 469.92427396 135.22961724 475.30707302 126.375 480.3125 C125.66778809 480.7146875 124.96057617 481.116875 124.23193359 481.53125 C101.09654164 494.5566741 75.92537591 503.30551461 49.9375 508.625 C49.21860596 508.77235596 48.49971191 508.91971191 47.7590332 509.0715332 C33.08339502 511.86090125 18.55831162 512.66142619 3.64770508 512.62817383 C0.70811513 512.6250221 -2.2304558 512.64854926 -5.16992188 512.67382812 C-18.54306192 512.71848737 -31.43916711 511.51301542 -44.625 509.3125 C-46.33055054 509.03031616 -46.33055054 509.03031616 -48.07055664 508.74243164 C-91.33802759 500.97044532 -132.38793216 480.98345309 -165.625 452.3125 C-166.37007813 451.67828125 -167.11515625 451.0440625 -167.8828125 450.390625 C-181.38779833 438.57948485 -194.05918743 425.82889772 -204.625 411.3125 C-205.48149066 410.16255169 -206.33826433 409.01281411 -207.1953125 407.86328125 C-213.23534209 399.67315742 -218.61867614 391.16870382 -223.625 382.3125 C-224.0271875 381.60528809 -224.429375 380.89807617 -224.84375 380.16943359 C-237.8691741 357.03404164 -246.61801461 331.86287591 -251.9375 305.875 C-252.08485596 305.15610596 -252.23221191 304.43721191 -252.3840332 303.6965332 C-255.35789088 288.05024391 -255.99800362 272.57681954 -255.9375 256.6875 C-255.93534485 255.66959381 -255.9331897 254.65168762 -255.93096924 253.60293579 C-255.88129854 238.99386477 -255.63040191 224.66174147 -252.625 210.3125 C-252.42632324 209.33764648 -252.22764648 208.36279297 -252.02294922 207.35839844 C-241.90232806 158.9765226 -219.9858123 114.98821731 -185.625 79.3125 C-184.99287598 78.65314453 -184.36075195 77.99378906 -183.70947266 77.31445312 C-174.56502521 67.82619695 -165.26765991 59.0862956 -154.625 51.3125 C-153.47394983 50.45443848 -152.32290823 49.59636549 -151.171875 48.73828125 C-142.98224019 42.70072604 -134.47961724 37.31792698 -125.625 32.3125 C-124.91778809 31.9103125 -124.21057617 31.508125 -123.48193359 31.09375 C-100.34654164 18.0683259 -75.17537591 9.31948539 -49.1875 4 C-48.46860596 3.85264404 -47.74971191 3.70528809 -47.0090332 3.5534668 C-31.36274391 0.57960912 -15.88931954 -0.06050362 0 0 Z " fill="#8D60F0" transform="translate(255.625,-0.3125)"/>
<path d="M0 0 C0.69479934 -0.00623996 1.38959867 -0.01247993 2.10545254 -0.01890898 C4.4333586 -0.0348626 6.76022096 -0.02222646 9.08813477 -0.00964355 C10.75709647 -0.01506366 12.42605338 -0.02218569 14.09500122 -0.03088379 C18.62806533 -0.04913349 23.16076567 -0.04204289 27.69383621 -0.02936745 C32.43522378 -0.01924828 37.17657997 -0.02863011 41.91796875 -0.03491211 C49.88067219 -0.04219168 57.84322728 -0.0325927 65.8059082 -0.0135498 C75.01505261 0.00821954 84.22384281 0.00116839 93.43297863 -0.02085543 C101.33627196 -0.03900062 109.23945858 -0.04157207 117.142766 -0.03110075 C121.86459472 -0.02486096 126.58625689 -0.02404348 131.30807495 -0.0372467 C135.74706498 -0.0487918 140.18559784 -0.04080422 144.62453842 -0.01766968 C146.25476192 -0.01237538 147.88502381 -0.01390869 149.51523209 -0.02272034 C151.73870346 -0.03363169 153.96070468 -0.01996806 156.18408203 0 C157.42883804 0.0015081 158.67359406 0.0030162 159.95606995 0.00457001 C163.09204102 0.50793457 163.09204102 0.50793457 165.49204254 1.93235016 C167.96177849 5.90798733 167.64381089 9.63180572 167.59997559 14.22521973 C167.60621555 15.22220194 167.61245551 16.21918415 167.61888456 17.24637794 C167.6348764 20.59682282 167.62218574 23.94654642 167.60961914 27.29699707 C167.61503749 29.69501165 167.62215852 32.09302291 167.63085938 34.49102783 C167.64723096 40.33396159 167.64479938 46.1767071 167.63320881 52.01963568 C167.62417942 56.76780732 167.62294833 61.51592136 167.62730408 66.26409912 C167.62791701 66.93959041 167.62852994 67.6150817 167.62916145 68.31104243 C167.63044033 69.68324138 167.63173719 71.05544032 167.63305181 72.42763925 C167.64446111 85.29821071 167.63133847 98.16866826 167.60985035 111.03922105 C167.59197901 122.0854899 167.59508302 133.13159063 167.61352539 144.17785645 C167.63492598 157.00200609 167.64336244 169.82605586 167.63107634 182.65022087 C167.62980212 184.0174039 167.62854464 185.38458695 167.62730408 186.75177002 C167.62637842 187.76082018 167.62637842 187.76082018 167.62543407 188.79025519 C167.62197872 193.53335123 167.62781347 198.27638398 167.63722229 203.01947021 C167.64960477 209.40197902 167.64080328 215.78424466 167.61764526 222.16672516 C167.61234399 224.51292644 167.61389602 226.85915439 167.62269592 229.20534515 C167.63357863 232.40081159 167.61997512 235.59524907 167.59997559 238.79064941 C167.60889847 239.72566095 167.61782136 240.66067249 167.62701464 241.62401772 C167.58047636 245.44062415 167.53255959 247.79881341 165.49204254 251.08351898 C162.24619046 253.00995205 159.95570679 253.01129957 156.18408203 253.01586914 C155.48928269 253.0221091 154.79448336 253.02834907 154.07862949 253.03477812 C151.75072343 253.05073174 149.42386107 253.0380956 147.09594727 253.0255127 C145.42698556 253.0309328 143.75802865 253.03805483 142.08908081 253.04675293 C137.5560167 253.06500263 133.02331636 253.05791203 128.49024582 253.04523659 C123.74885825 253.03511742 119.00750206 253.04449925 114.26611328 253.05078125 C106.30340984 253.05806082 98.34085475 253.04846184 90.37817383 253.02941895 C81.16902942 253.0076496 71.96023922 253.01470075 62.7511034 253.03672457 C54.84781008 253.05486976 46.94462345 253.05744121 39.04131603 253.04696989 C34.31948731 253.04073011 29.59782514 253.03991262 24.87600708 253.05311584 C20.43701705 253.06466094 15.99848419 253.05667336 11.55954361 253.03353882 C9.92932012 253.02824452 8.29905822 253.02977783 6.66884995 253.03858948 C4.44537858 253.04950083 2.22337735 253.0358372 0 253.01586914 C-1.24475601 253.01436104 -2.48951202 253.01285294 -3.77198792 253.01129913 C-6.90795898 252.50793457 -6.90795898 252.50793457 -9.30796051 251.08351898 C-11.77769646 247.10788182 -11.45972886 243.38406342 -11.41589355 238.79064941 C-11.4252535 237.2951761 -11.4252535 237.2951761 -11.43480253 235.7694912 C-11.45079437 232.41904632 -11.43810371 229.06932272 -11.42553711 225.71887207 C-11.43095546 223.32085749 -11.43807649 220.92284623 -11.44677734 218.52484131 C-11.46314893 212.68190755 -11.46071735 206.83916204 -11.44912678 200.99623346 C-11.44009738 196.24806182 -11.4388663 191.49994778 -11.44322205 186.75177002 C-11.44383498 186.07627873 -11.44444791 185.40078744 -11.44507942 184.70482671 C-11.4463583 183.33262776 -11.44765516 181.96042882 -11.44896978 180.58822989 C-11.46037908 167.71765843 -11.44725644 154.84720088 -11.42576832 141.97664809 C-11.40789697 130.93037924 -11.41100099 119.88427852 -11.42944336 108.8380127 C-11.45084395 96.01386305 -11.45928041 83.18981328 -11.4469943 70.36564827 C-11.44572009 68.99846524 -11.44446261 67.63128219 -11.44322205 66.26409912 C-11.44260494 65.59139902 -11.44198784 64.91869891 -11.44135204 64.22561395 C-11.43789669 59.48251791 -11.44373144 54.73948516 -11.45314026 49.99639893 C-11.46552274 43.61389012 -11.45672125 37.23162448 -11.43356323 30.84914398 C-11.42826196 28.5029427 -11.42981399 26.15671475 -11.43861389 23.81052399 C-11.4494966 20.61505755 -11.43589309 17.42062007 -11.41589355 14.22521973 C-11.42481644 13.29020819 -11.43373933 12.35519665 -11.44293261 11.39185143 C-11.39639433 7.57524499 -11.34847756 5.21705573 -9.30796051 1.93235016 C-6.06210842 0.00591709 -3.77162476 0.00456957 0 0 Z " fill="#8667EF" transform="translate(177.907958984375,129.4920654296875)"/>
<path d="M0 0 C15.05223233 12.25046893 26.21074308 28.38707338 29 48 C30.80549113 68.72770531 25.78669117 88.1930353 12.8515625 104.75 C1.31974629 118.18512568 -13.63324108 126.49347842 -31 130 C-31.69931641 129.98404785 -32.39863281 129.9680957 -33.11914062 129.95166016 C-35.67539984 129.96183805 -37.58726849 130.13286189 -40 131 C-42.72286436 133.93485141 -44.359882 137.30477162 -46.125 140.875 C-47.14954517 142.80027628 -48.17557448 144.72476354 -49.203125 146.6484375 C-49.68458984 147.57495117 -50.16605469 148.50146484 -50.66210938 149.45605469 C-55.37358056 158.41472801 -59.94164026 166.59790774 -70 170 C-78.29939248 170.94255637 -84.21041325 169.52639116 -91.1875 164.875 C-95.46297206 161.03509882 -97.53039003 156.09559228 -98.3828125 150.4765625 C-98.65832255 144.50717804 -97.57217323 139.8299807 -94 135 C-89.1243612 129.7171408 -83.38112597 126.20533411 -77 123 C-78.01707031 122.29037109 -78.01707031 122.29037109 -79.0546875 121.56640625 C-97.87266505 108.19573799 -110.87775854 92.27281202 -115 69 C-116.51749202 48.86026457 -113.45244326 29.6894677 -100.38671875 13.671875 C-74.66594913 -16.08442637 -32.81446053 -23.6025103 0 0 Z " fill="#9D53F2" transform="translate(299,162)"/>
<path d="M0 0 C0.82577073 -0.00467997 1.65154146 -0.00935994 2.50233555 -0.01418173 C5.26140604 -0.02612028 8.0199788 -0.016679 10.77905273 -0.00723267 C12.76032806 -0.01129887 14.74160111 -0.01664103 16.72286987 -0.02316284 C22.09883563 -0.03683636 27.47462861 -0.03153758 32.85059738 -0.02202559 C38.4772259 -0.01442922 44.10383965 -0.02147454 49.73046875 -0.02618408 C59.17930761 -0.03164169 68.62807612 -0.02444985 78.0769043 -0.01016235 C89.00032343 0.00616414 99.92357457 0.00087563 110.84698963 -0.01564157 C120.22633457 -0.02925625 129.60562895 -0.03117617 138.98498058 -0.02332556 C144.58654216 -0.01864896 150.18802479 -0.01802389 155.7895813 -0.02793503 C161.05585721 -0.0366021 166.32191657 -0.03058738 171.5881691 -0.01325226 C173.52071905 -0.00928605 175.45328723 -0.01042374 177.38582993 -0.01704025 C180.02423017 -0.02524047 182.66193688 -0.01495262 185.30029297 0 C186.06469476 -0.00669217 186.82909655 -0.01338433 187.61666203 -0.02027929 C192.37044454 0.03196177 195.65017538 0.79068085 199.65014648 3.38095093 C202.3384243 6.33725973 203.02536669 8.22708221 203.02766991 12.1980114 C203.03549315 13.17065937 203.04331639 14.14330734 203.0513767 15.14542949 C203.04133845 16.74433881 203.04133845 16.74433881 203.03109741 18.37554932 C203.03577738 19.50996118 203.04045736 20.64437304 203.04527915 21.81316102 C203.05728094 25.62868125 203.04775134 29.44384575 203.03833008 33.2593689 C203.04074264 35.9891128 203.04762529 38.71884142 203.05426025 41.44857788 C203.06761313 48.10228753 203.06471271 54.75589577 203.05602233 61.40960942 C203.04925115 66.81755698 203.04832661 72.22547609 203.05159378 77.63342667 C203.05205348 78.40270279 203.05251318 79.17197892 203.05298681 79.96456645 C203.05394598 81.52729193 203.05491861 83.09001741 203.05590458 84.65274288 C203.06446332 99.3136089 203.05461736 113.9744187 203.03850348 128.6352755 C203.02510519 141.21475409 203.02742341 153.79414962 203.04125977 166.37362671 C203.05731625 180.97841164 203.06363367 195.58314723 203.05442297 210.18793976 C203.05346732 211.74557439 203.05252421 213.30320902 203.05159378 214.86084366 C203.05113095 215.62724209 203.05066813 216.39364052 203.05019128 217.18326315 C203.04760119 222.5836425 203.05197289 227.98399057 203.05903244 233.38436508 C203.06744864 239.96734906 203.06516505 246.55022572 203.04919021 253.13319741 C203.04130812 256.49196222 203.0398305 259.85040007 203.04813766 263.20918655 C203.05631409 266.85043219 203.04607789 270.49117199 203.03109741 274.13238525 C203.03778958 275.19386335 203.04448174 276.25534145 203.0513767 277.34898555 C203.00845162 282.71439115 202.89776404 286.87005836 199.65014648 291.38095093 C195.58913202 294.84409365 191.49618068 294.80627528 186.38258362 294.76190186 C185.55358376 294.76658183 184.7245839 294.7712618 183.87046283 294.77608359 C181.09446842 294.78804319 178.31896678 294.77857256 175.54296875 294.76913452 C173.55198885 294.77319982 171.56101121 294.77854147 169.57003784 294.7850647 C164.16302252 294.79874987 158.75617878 294.7934344 153.34916043 294.78392744 C147.69182956 294.77633605 142.03451345 294.78337511 136.37718201 294.78808594 C126.8752885 294.79354544 117.37346492 294.7863472 107.87158203 294.77206421 C96.88626802 294.75574205 85.90112108 294.76102231 74.91581112 294.77754343 C65.48553143 294.7911583 56.05530202 294.79307779 46.62501568 294.78522742 C40.99214021 294.78055032 35.35934327 294.77992701 29.72647285 294.78983688 C24.42984195 294.79850407 19.13342635 294.792489 13.8368187 294.77515411 C11.89298167 294.77118777 9.94912652 294.77232583 8.00529671 294.77894211 C5.35151763 294.7871419 2.69842815 294.77685491 0.04469299 294.76190186 C-0.72428186 294.76859402 -1.49325672 294.77528619 -2.28553385 294.78218114 C-7.04522759 294.73017465 -10.41650823 294.11538837 -14.34985352 291.38095093 C-18.2441892 286.14264878 -17.77056607 280.47422171 -17.73080444 274.22177124 C-17.73548442 273.09381763 -17.74016439 271.96586403 -17.74498618 270.80373001 C-17.75695742 267.02205924 -17.74747027 263.24074942 -17.73803711 259.45907593 C-17.74045145 256.74874117 -17.74733462 254.03842176 -17.75396729 251.32809448 C-17.76730348 244.72946988 -17.76442741 238.13094768 -17.75572936 231.53231907 C-17.74895277 226.16923241 -17.74803599 220.80617443 -17.75130081 215.44308472 C-17.75176051 214.67963029 -17.75222021 213.91617587 -17.75269384 213.12958646 C-17.75365302 211.57861804 -17.75462566 210.02764963 -17.75561161 208.47668123 C-17.76416517 193.93502942 -17.75433192 179.39343436 -17.73821051 164.85179186 C-17.72480736 152.37580605 -17.72713546 139.89990398 -17.7409668 127.42391968 C-17.75702322 112.9341176 -17.7633412 98.44436525 -17.75413001 83.95455551 C-17.75317436 82.40930939 -17.75223125 80.86406327 -17.75130081 79.31881714 C-17.75083799 78.5585369 -17.75037516 77.79825667 -17.74989831 77.01493764 C-17.7473086 71.65861775 -17.75167899 66.30232941 -17.75873947 60.9460144 C-17.76715536 54.41797528 -17.76487251 47.89004437 -17.74889724 41.36201763 C-17.74101556 38.03159179 -17.73953709 34.70149567 -17.7478447 31.37104797 C-17.75602154 27.76056128 -17.74578451 24.15058467 -17.73080444 20.54013062 C-17.73749661 19.48779865 -17.74418877 18.43546669 -17.75108373 17.35124588 C-17.70815283 12.03011134 -17.64295269 7.81052502 -14.34985352 3.38095093 C-9.75496449 0.1899597 -5.43078104 -0.04754526 0 0 Z M-10.34985352 9.38095093 C-10.65256506 11.47749375 -10.65256506 11.47749375 -10.6015358 13.93185425 C-10.60675129 14.89602013 -10.61196679 15.860186 -10.61734033 16.85356903 C-10.61064816 18.45363674 -10.61064816 18.45363674 -10.6038208 20.08602905 C-10.60694078 21.21338722 -10.61006076 22.34074539 -10.61327529 23.50226593 C-10.62129601 27.30562972 -10.61491579 31.10883576 -10.60864258 34.91220093 C-10.61024975 37.62843153 -10.61483776 40.34465529 -10.6192627 43.06088257 C-10.62817441 49.68810574 -10.6262268 56.31528372 -10.62043741 62.9425087 C-10.6159279 68.326697 -10.61530493 73.71087261 -10.61748505 79.09506226 C-10.61779151 79.86021353 -10.61809798 80.62536481 -10.61841373 81.41370249 C-10.61905316 82.96789996 -10.61970158 84.52209743 -10.62035891 86.0762949 C-10.62606742 100.66357728 -10.61949617 115.25083456 -10.60875818 129.83811283 C-10.5998222 142.36542561 -10.60137409 154.89270132 -10.6105957 167.42001343 C-10.62128917 181.95368816 -10.62551804 196.48734087 -10.61937118 211.02101898 C-10.61873405 212.56962585 -10.61810531 214.11823272 -10.61748505 215.6668396 C-10.6171765 216.42886263 -10.61686794 217.19088567 -10.61655004 217.97600031 C-10.61482033 223.35618778 -10.61774415 228.73636132 -10.62244415 234.11654663 C-10.62804274 240.66966122 -10.62655816 247.22272787 -10.61588266 253.77583694 C-10.61061208 257.12188445 -10.60966204 260.46778536 -10.61518097 263.81384277 C-10.62060447 267.43460061 -10.61384126 271.05512974 -10.6038208 274.6758728 C-10.60828224 275.74258461 -10.61274369 276.80929642 -10.61734033 277.90833282 C-10.61212483 278.8724987 -10.60690934 279.83666458 -10.6015358 280.83004761 C-10.60121109 281.66662651 -10.60088639 282.50320541 -10.60055184 283.36513519 C-10.53107147 285.60935532 -10.53107147 285.60935532 -8.34985352 287.38095093 C-5.68374528 287.57858543 -3.12141381 287.65019857 -0.45410156 287.63491821 C0.37107373 287.63803819 1.19624903 287.64115818 2.04642963 287.6443727 C4.82716712 287.65238619 7.6076884 287.64601609 10.38842773 287.63973999 C12.37560149 287.64244837 14.36277424 287.64600843 16.34994507 287.65036011 C21.75890421 287.65950463 27.16778736 287.65593138 32.57674789 287.64960194 C38.22662314 287.64455259 43.8764917 287.64923041 49.52636719 287.65237427 C59.01588108 287.65601703 68.50536387 287.65120669 77.99487305 287.64169312 C88.97960432 287.63080798 99.96426135 287.63433334 110.94899082 287.64534593 C120.36555144 287.65440998 129.78208965 287.65570841 139.19865322 287.65046859 C144.82919469 287.64734402 150.45970123 287.64695284 156.09024048 287.65354156 C161.38267125 287.6593016 166.67500595 287.65534285 171.9674263 287.64375305 C173.91455551 287.64109925 175.86169276 287.64188374 177.80881882 287.64627838 C180.45745476 287.651707 183.10577871 287.64493261 185.75439453 287.63491821 C186.53317616 287.63937966 187.3119578 287.6438411 188.11433887 287.64843774 C192.34193665 287.76455278 192.34193665 287.76455278 195.65014648 285.38095093 C195.95285802 283.28440811 195.95285802 283.28440811 195.90182877 280.83004761 C195.90965201 279.38379879 195.90965201 279.38379879 195.9176333 277.90833282 C195.91094113 276.30826511 195.91094113 276.30826511 195.90411377 274.6758728 C195.90723375 273.54851463 195.91035373 272.42115646 195.91356826 271.25963593 C195.92158897 267.45627214 195.91520876 263.6530661 195.90893555 259.84970093 C195.91054272 257.13347032 195.91513073 254.41724656 195.91955566 251.70101929 C195.92846738 245.07379611 195.92651977 238.44661813 195.92073038 231.81939316 C195.91622087 226.43520485 195.9155979 221.05102925 195.91777802 215.6668396 C195.91823771 214.51911268 195.91823771 214.51911268 195.9187067 213.34819937 C195.91934613 211.79400189 195.91999455 210.23980442 195.92065188 208.68560696 C195.92636038 194.09832457 195.91978914 179.51106729 195.90905115 164.92378902 C195.90011517 152.39647625 195.90166706 139.86920053 195.91088867 127.34188843 C195.92158214 112.8082137 195.92581101 98.27456099 195.91966414 83.74088287 C195.91902702 82.192276 195.91839828 80.64366913 195.91777802 79.09506226 C195.91746946 78.33303922 195.91716091 77.57101619 195.91684301 76.78590155 C195.91511329 71.40571408 195.91803712 66.02554054 195.92273712 60.64535522 C195.92833571 54.09224063 195.92685113 47.53917398 195.91617563 40.98606491 C195.91090505 37.6400174 195.90995501 34.29411649 195.91547394 30.94805908 C195.92089743 27.32730124 195.91413423 23.70677211 195.90411377 20.08602905 C195.90857521 19.01931725 195.91303666 17.95260544 195.9176333 16.85356903 C195.9124178 15.88940315 195.90720231 14.92523727 195.90182877 13.93185425 C195.90150406 13.09527534 195.90117936 12.25869644 195.90084481 11.39676666 C195.83136443 9.15254653 195.83136443 9.15254653 193.65014648 7.38095093 C190.98403825 7.18331642 188.42170678 7.11170328 185.75439453 7.12698364 C184.92921924 7.12386366 184.10404394 7.12074368 183.25386333 7.11752915 C180.47312585 7.10951567 177.69260456 7.11588577 174.91186523 7.12216187 C172.92469148 7.11945349 170.93751873 7.11589342 168.9503479 7.11154175 C163.54138875 7.10239723 158.13250561 7.10597048 152.72354507 7.11229992 C147.07366983 7.11734926 141.42380127 7.11267144 135.77392578 7.10952759 C126.28441189 7.10588482 116.79492909 7.11069517 107.30541992 7.12020874 C96.32068865 7.13109387 85.33603162 7.12756852 74.35130215 7.11655593 C64.93474153 7.10749188 55.51820331 7.10619345 46.10163975 7.11143327 C40.47109828 7.11455783 34.84059174 7.11494902 29.21005249 7.10836029 C23.91762171 7.10260026 18.62528702 7.10655901 13.33286667 7.1181488 C11.38573746 7.1208026 9.43860021 7.12001812 7.49147415 7.11562347 C4.84283821 7.11019485 2.19451425 7.11696925 -0.45410156 7.12698364 C-1.62227401 7.12029148 -1.62227401 7.12029148 -2.81404591 7.11346412 C-7.04164368 6.99734907 -7.04164368 6.99734907 -10.34985352 9.38095093 Z " fill="#F9F7FD" transform="translate(163.349853515625,108.61904907226563)"/>
<path d="M0 0 C0.69479934 -0.00623996 1.38959867 -0.01247993 2.10545254 -0.01890898 C4.4333586 -0.0348626 6.76022096 -0.02222646 9.08813477 -0.00964355 C10.75709647 -0.01506366 12.42605338 -0.02218569 14.09500122 -0.03088379 C18.62806533 -0.04913349 23.16076567 -0.04204289 27.69383621 -0.02936745 C32.43522378 -0.01924828 37.17657997 -0.02863011 41.91796875 -0.03491211 C49.88067219 -0.04219168 57.84322728 -0.0325927 65.8059082 -0.0135498 C75.01505261 0.00821954 84.22384281 0.00116839 93.43297863 -0.02085543 C101.33627196 -0.03900062 109.23945858 -0.04157207 117.142766 -0.03110075 C121.86459472 -0.02486096 126.58625689 -0.02404348 131.30807495 -0.0372467 C135.74706498 -0.0487918 140.18559784 -0.04080422 144.62453842 -0.01766968 C146.25476192 -0.01237538 147.88502381 -0.01390869 149.51523209 -0.02272034 C151.73870346 -0.03363169 153.96070468 -0.01996806 156.18408203 0 C157.42883804 0.0015081 158.67359406 0.0030162 159.95606995 0.00457001 C163.09204102 0.50793457 163.09204102 0.50793457 165.49204254 1.93235016 C167.96177849 5.90798733 167.64381089 9.63180572 167.59997559 14.22521973 C167.60621555 15.22220194 167.61245551 16.21918415 167.61888456 17.24637794 C167.6348764 20.59682282 167.62218574 23.94654642 167.60961914 27.29699707 C167.61503749 29.69501165 167.62215852 32.09302291 167.63085938 34.49102783 C167.64723096 40.33396159 167.64479938 46.1767071 167.63320881 52.01963568 C167.62417942 56.76780732 167.62294833 61.51592136 167.62730408 66.26409912 C167.62791701 66.93959041 167.62852994 67.6150817 167.62916145 68.31104243 C167.63044033 69.68324138 167.63173719 71.05544032 167.63305181 72.42763925 C167.64446111 85.29821071 167.63133847 98.16866826 167.60985035 111.03922105 C167.59197901 122.0854899 167.59508302 133.13159063 167.61352539 144.17785645 C167.63492598 157.00200609 167.64336244 169.82605586 167.63107634 182.65022087 C167.62980212 184.0174039 167.62854464 185.38458695 167.62730408 186.75177002 C167.62637842 187.76082018 167.62637842 187.76082018 167.62543407 188.79025519 C167.62197872 193.53335123 167.62781347 198.27638398 167.63722229 203.01947021 C167.64960477 209.40197902 167.64080328 215.78424466 167.61764526 222.16672516 C167.61234399 224.51292644 167.61389602 226.85915439 167.62269592 229.20534515 C167.63357863 232.40081159 167.61997512 235.59524907 167.59997559 238.79064941 C167.60889847 239.72566095 167.61782136 240.66067249 167.62701464 241.62401772 C167.58047636 245.44062415 167.53255959 247.79881341 165.49204254 251.08351898 C162.24619046 253.00995205 159.95570679 253.01129957 156.18408203 253.01586914 C155.48928269 253.0221091 154.79448336 253.02834907 154.07862949 253.03477812 C151.75072343 253.05073174 149.42386107 253.0380956 147.09594727 253.0255127 C145.42698556 253.0309328 143.75802865 253.03805483 142.08908081 253.04675293 C137.5560167 253.06500263 133.02331636 253.05791203 128.49024582 253.04523659 C123.74885825 253.03511742 119.00750206 253.04449925 114.26611328 253.05078125 C106.30340984 253.05806082 98.34085475 253.04846184 90.37817383 253.02941895 C81.16902942 253.0076496 71.96023922 253.01470075 62.7511034 253.03672457 C54.84781008 253.05486976 46.94462345 253.05744121 39.04131603 253.04696989 C34.31948731 253.04073011 29.59782514 253.03991262 24.87600708 253.05311584 C20.43701705 253.06466094 15.99848419 253.05667336 11.55954361 253.03353882 C9.92932012 253.02824452 8.29905822 253.02977783 6.66884995 253.03858948 C4.44537858 253.04950083 2.22337735 253.0358372 0 253.01586914 C-1.24475601 253.01436104 -2.48951202 253.01285294 -3.77198792 253.01129913 C-6.90795898 252.50793457 -6.90795898 252.50793457 -9.30796051 251.08351898 C-11.77769646 247.10788182 -11.45972886 243.38406342 -11.41589355 238.79064941 C-11.4252535 237.2951761 -11.4252535 237.2951761 -11.43480253 235.7694912 C-11.45079437 232.41904632 -11.43810371 229.06932272 -11.42553711 225.71887207 C-11.43095546 223.32085749 -11.43807649 220.92284623 -11.44677734 218.52484131 C-11.46314893 212.68190755 -11.46071735 206.83916204 -11.44912678 200.99623346 C-11.44009738 196.24806182 -11.4388663 191.49994778 -11.44322205 186.75177002 C-11.44383498 186.07627873 -11.44444791 185.40078744 -11.44507942 184.70482671 C-11.4463583 183.33262776 -11.44765516 181.96042882 -11.44896978 180.58822989 C-11.46037908 167.71765843 -11.44725644 154.84720088 -11.42576832 141.97664809 C-11.40789697 130.93037924 -11.41100099 119.88427852 -11.42944336 108.8380127 C-11.45084395 96.01386305 -11.45928041 83.18981328 -11.4469943 70.36564827 C-11.44572009 68.99846524 -11.44446261 67.63128219 -11.44322205 66.26409912 C-11.44260494 65.59139902 -11.44198784 64.91869891 -11.44135204 64.22561395 C-11.43789669 59.48251791 -11.44373144 54.73948516 -11.45314026 49.99639893 C-11.46552274 43.61389012 -11.45672125 37.23162448 -11.43356323 30.84914398 C-11.42826196 28.5029427 -11.42981399 26.15671475 -11.43861389 23.81052399 C-11.4494966 20.61505755 -11.43589309 17.42062007 -11.41589355 14.22521973 C-11.42481644 13.29020819 -11.43373933 12.35519665 -11.44293261 11.39185143 C-11.39639433 7.57524499 -11.34847756 5.21705573 -9.30796051 1.93235016 C-6.06210842 0.00591709 -3.77162476 0.00456957 0 0 Z M-3.90795898 7.50793457 C-3.90795898 86.04793457 -3.90795898 164.58793457 -3.90795898 245.50793457 C50.21204102 245.50793457 104.33204102 245.50793457 160.09204102 245.50793457 C160.09204102 166.96793457 160.09204102 88.42793457 160.09204102 7.50793457 C105.97204102 7.50793457 51.85204102 7.50793457 -3.90795898 7.50793457 Z " fill="#F9F7FD" transform="translate(177.907958984375,129.4920654296875)"/>
<path d="M0 0 C15.05223233 12.25046893 26.21074308 28.38707338 29 48 C30.80549113 68.72770531 25.78669117 88.1930353 12.8515625 104.75 C1.31974629 118.18512568 -13.63324108 126.49347842 -31 130 C-31.69931641 129.98404785 -32.39863281 129.9680957 -33.11914062 129.95166016 C-35.67539984 129.96183805 -37.58726849 130.13286189 -40 131 C-42.72286436 133.93485141 -44.359882 137.30477162 -46.125 140.875 C-47.14954517 142.80027628 -48.17557448 144.72476354 -49.203125 146.6484375 C-49.68458984 147.57495117 -50.16605469 148.50146484 -50.66210938 149.45605469 C-55.37358056 158.41472801 -59.94164026 166.59790774 -70 170 C-78.29939248 170.94255637 -84.21041325 169.52639116 -91.1875 164.875 C-95.46297206 161.03509882 -97.53039003 156.09559228 -98.3828125 150.4765625 C-98.65832255 144.50717804 -97.57217323 139.8299807 -94 135 C-89.1243612 129.7171408 -83.38112597 126.20533411 -77 123 C-78.01707031 122.29037109 -78.01707031 122.29037109 -79.0546875 121.56640625 C-97.87266505 108.19573799 -110.87775854 92.27281202 -115 69 C-116.51749202 48.86026457 -113.45244326 29.6894677 -100.38671875 13.671875 C-74.66594913 -16.08442637 -32.81446053 -23.6025103 0 0 Z M-90 13 C-90.7115625 13.68835938 -91.423125 14.37671875 -92.15625 15.0859375 C-102.11366313 25.38803032 -108.37137625 39.92109325 -108.36132812 54.25976562 C-108.34521484 55.18466797 -108.32910156 56.10957031 -108.3125 57.0625 C-108.31572266 57.99126953 -108.31894531 58.92003906 -108.32226562 59.87695312 C-108.2069363 74.81734271 -103.23324584 88.2656492 -94 100 C-93.34451172 100.91845703 -93.34451172 100.91845703 -92.67578125 101.85546875 C-87.68332881 108.40712556 -78.73621108 115.01603287 -71 118 C-66.95726548 118.34688448 -64.7023077 117.60157715 -61.234375 115.55078125 C-59.89826172 114.77250977 -59.89826172 114.77250977 -58.53515625 113.97851562 C-57.61605469 113.42873047 -56.69695312 112.87894531 -55.75 112.3125 C-53.93256327 111.24563093 -52.11485724 110.17922048 -50.296875 109.11328125 C-49.41265869 108.5927417 -48.52844238 108.07220215 -47.61743164 107.53588867 C-45.09830944 106.05768722 -42.57857463 104.5825776 -40.04296875 103.1328125 C-38.99532349 102.52977295 -38.99532349 102.52977295 -37.92651367 101.91455078 C-35.16673832 100.60443565 -32.98660023 100.49009264 -30 101 C-29.34 101.66 -28.68 102.32 -28 103 C-28.28613978 108.00377768 -30.26441107 112.01545704 -32.5625 116.375 C-32.89185547 117.01566406 -33.22121094 117.65632813 -33.56054688 118.31640625 C-34.36639482 119.88138632 -35.18218493 121.44124021 -36 123 C-19.10500251 122.58048539 -4.9081047 113.8274431 6.4921875 101.875 C20.11296325 86.25990506 23.0217447 68.07082406 22 48 C20.14969473 32.53552202 11.81459835 20.55595324 1 10 C0.41605469 9.39542969 -0.16789062 8.79085937 -0.76953125 8.16796875 C-9.79292022 -0.48991586 -24.63742833 -6.31427891 -37 -7 C-38.73056641 -7.11408203 -38.73056641 -7.11408203 -40.49609375 -7.23046875 C-59.79817612 -8.10411662 -76.37551093 -0.57907411 -90 13 Z " fill="#FAF8FD" transform="translate(299,162)"/>
<path d="M0 0 C0.70632568 0.00644531 1.41265137 0.01289063 2.14038086 0.01953125 C10.53141639 0.31256684 15.36746419 3.3545178 21.0625 9.25 C25.9402273 15.29340227 27.93003649 22.0668914 27.6640625 29.81640625 C26.31502325 37.41304533 22.26612298 44.7803735 16.015625 49.38671875 C8.78071495 53.79259346 1.59966009 54.56035631 -6.8125 53.5 C-14.82122513 51.02817126 -19.74869661 46.46910612 -24.0625 39.47265625 C-27.65640169 32.57186584 -28.26755833 25.20714722 -25.96484375 17.7578125 C-21.15409874 7.02740498 -11.94113268 -0.11363038 0 0 Z " fill="#9D55F2" transform="translate(255.8125,193.5)"/>
<path d="M0 0 C1.78204834 -0.01407143 1.78204834 -0.01407143 3.60009766 -0.02842712 C5.51894775 -0.01157616 5.51894775 -0.01157616 7.4765625 0.00561523 C9.45148682 0.00343239 9.45148682 0.00343239 11.46630859 0.00120544 C14.25052927 -0.0001776 17.0342342 0.01236235 19.81835938 0.03515625 C23.38290398 0.06354157 26.94659195 0.06080277 30.51119995 0.04806614 C33.91641022 0.03942932 37.32136667 0.05455811 40.7265625 0.06811523 C42.6454126 0.06371178 42.6454126 0.06371178 44.60302734 0.05921936 C45.79105957 0.07190353 46.9790918 0.08458771 48.203125 0.09765625 C49.77054443 0.10576073 49.77054443 0.10576073 51.36962891 0.11402893 C54.48004166 0.55541776 55.86570625 1.32554693 58.1015625 3.50170898 C58.61914062 5.81420898 58.61914062 5.81420898 58.6328125 8.50170898 C58.64054687 9.95577148 58.64054687 9.95577148 58.6484375 11.43920898 C58.63296875 12.44983398 58.6175 13.46045898 58.6015625 14.50170898 C58.62476563 16.01764648 58.62476563 16.01764648 58.6484375 17.56420898 C58.64328125 18.53358398 58.638125 19.50295898 58.6328125 20.50170898 C58.62830078 21.38858398 58.62378906 22.27545898 58.61914062 23.18920898 C58.1015625 25.50170898 58.1015625 25.50170898 56.43786621 27.12098694 C53.50449177 28.85456924 51.60103953 28.88819251 48.203125 28.90576172 C46.42107666 28.92478798 46.42107666 28.92478798 44.60302734 28.94419861 C43.32379395 28.94126297 42.04456055 28.93832733 40.7265625 28.93530273 C39.40994629 28.94054459 38.09333008 28.94578644 36.73681641 28.95118713 C33.95270189 28.96011228 31.16887431 28.95770175 28.38476562 28.94775391 C24.82011225 28.93625699 21.25644843 28.95648794 17.69192505 28.98567104 C14.28675162 29.0084448 10.8818103 29.00156649 7.4765625 28.99780273 C5.5577124 29.0146537 5.5577124 29.0146537 3.60009766 29.03184509 C2.41206543 29.02246414 1.2240332 29.01308319 0 29.00341797 C-1.56741943 29.00316872 -1.56741943 29.00316872 -3.16650391 29.00291443 C-6.58888524 28.3750382 -7.7696037 27.19881364 -9.8984375 24.50170898 C-10.41601562 22.27514648 -10.41601562 22.27514648 -10.4296875 19.87670898 C-10.43484375 19.00530273 -10.44 18.13389648 -10.4453125 17.23608398 C-10.42984375 16.33374023 -10.414375 15.43139648 -10.3984375 14.50170898 C-10.41390625 13.59936523 -10.429375 12.69702148 -10.4453125 11.76733398 C-10.43757813 10.46022461 -10.43757813 10.46022461 -10.4296875 9.12670898 C-10.42517578 8.33522461 -10.42066406 7.54374023 -10.41601562 6.72827148 C-9.11738278 1.14170001 -5.2231451 0.00083059 0 0 Z " fill="#F7F8FD" transform="translate(269.8984375,315.498291015625)"/>
<path d="M0 0 C0.66 0.33 1.32 0.66 2 1 C1.34773438 2.02738281 0.69546875 3.05476563 0.0234375 4.11328125 C-4.92725259 11.9470482 -9.65531461 19.81116902 -14 28 C-15.84087873 31.46561016 -17.69837707 34.92184442 -19.5625 38.375 C-20.02197021 39.24415039 -20.48144043 40.11330078 -20.95483398 41.00878906 C-24.71731781 47.95761162 -28.32415648 53.08317946 -36 56 C-40.26310147 56.53288768 -42.37405409 56.33138313 -46.1875 54.3125 C-49.92534778 51.23915849 -53.6876765 47.84675193 -54.23828125 42.828125 C-54.26277344 41.97734375 -54.28726563 41.1265625 -54.3125 40.25 C-54.34988281 39.40953125 -54.38726562 38.5690625 -54.42578125 37.703125 C-53.67270831 32.92214818 -51.0584597 29.79499456 -47.24682617 26.93212891 C-45.69185425 26.02599854 -45.69185425 26.02599854 -44.10546875 25.1015625 C-43.53853806 24.7671817 -42.97160736 24.4328009 -42.38749695 24.08828735 C-40.60079715 23.04197042 -38.80287696 22.01815416 -37 21 C-35.86900879 20.35772461 -34.73801758 19.71544922 -33.57275391 19.05371094 C-30.1630604 17.14130271 -26.74079425 15.25383778 -23.3125 13.375 C-21.0159983 12.11366873 -18.72041001 10.85067285 -16.42578125 9.5859375 C-15.34119629 8.9887793 -14.25661133 8.39162109 -13.13916016 7.77636719 C-9.3235388 5.61720861 -5.60781503 3.3174918 -1.91479492 0.95556641 C-1.2829126 0.64022949 -0.65103027 0.32489258 0 0 Z " fill="#7C72EE" transform="translate(262,270)"/>
<path d="M0 0 C0.70632568 0.00644531 1.41265137 0.01289063 2.14038086 0.01953125 C10.53141639 0.31256684 15.36746419 3.3545178 21.0625 9.25 C25.9402273 15.29340227 27.93003649 22.0668914 27.6640625 29.81640625 C26.31502325 37.41304533 22.26612298 44.7803735 16.015625 49.38671875 C8.78071495 53.79259346 1.59966009 54.56035631 -6.8125 53.5 C-14.82122513 51.02817126 -19.74869661 46.46910612 -24.0625 39.47265625 C-27.65640169 32.57186584 -28.26755833 25.20714722 -25.96484375 17.7578125 C-21.15409874 7.02740498 -11.94113268 -0.11363038 0 0 Z M-17.46484375 16.59765625 C-20.65437268 21.0999768 -20.23175392 26.21901313 -19.8125 31.5 C-18.03066976 38.07049902 -14.15660574 41.59996228 -8.8125 45.5 C-4.78102871 47.76155707 -1.40091952 47.95884195 3.1875 47.5 C10.97500248 45.23034395 15.55105023 41.05386778 19.5625 34.125 C21.17418711 27.35591412 20.61264441 21.64163826 17.1875 15.5 C12.67884588 9.79787862 6.72998187 6.99719044 -0.375 6 C-8.07299306 7.11970808 -12.53161805 10.74296242 -17.46484375 16.59765625 Z " fill="#FAF7FD" transform="translate(255.8125,193.5)"/>
<path d="M0 0 C17.82 0 35.64 0 54 0 C54 4.62 54 9.24 54 14 C36.18 14 18.36 14 0 14 C0 9.38 0 4.76 0 0 Z " fill="#6F7AEC" transform="translate(267,323)"/>
<path d="M0 0 C1.65 0.33 3.3 0.66 5 1 C4.67 2.65 4.34 4.3 4 6 C2.35 5.67 0.7 5.34 -1 5 C-0.67 3.35 -0.34 1.7 0 0 Z " fill="#F5F7FC" transform="translate(325,361)"/>
<path d="M0 0 C1.65 0.33 3.3 0.66 5 1 C4.67 2.65 4.34 4.3 4 6 C2.35 5.67 0.7 5.34 -1 5 C-0.67 3.35 -0.34 1.7 0 0 Z " fill="#F4F6FC" transform="translate(183,361)"/>
<path d="M0 0 C1.65 0.33 3.3 0.66 5 1 C4.67 2.65 4.34 4.3 4 6 C2.35 5.67 0.7 5.34 -1 5 C-0.67 3.35 -0.34 1.7 0 0 Z " fill="#FBF5FD" transform="translate(325,145)"/>
<path d="M0 0 C1.65 0.33 3.3 0.66 5 1 C4.67 2.65 4.34 4.3 4 6 C2.35 5.67 0.7 5.34 -1 5 C-0.67 3.35 -0.34 1.7 0 0 Z " fill="#FAF1FD" transform="translate(183,145)"/>
</svg>
