<?xml version="1.0" encoding="UTF-8"?>
<svg xmlns="http://www.w3.org/2000/svg" xmlns:xlink="http://www.w3.org/1999/xlink" width="100px" height="100px" viewBox="0 0 100 100" version="1.1">
<g id="surface1">
<path style=" stroke:none;fill-rule:nonzero;fill:rgb(100%,100%,100%);fill-opacity:1;" d="M 16.601562 30.273438 C 17.265625 30.5625 17.703125 30.929688 18.210938 31.445312 C 18.351562 31.578125 18.492188 31.71875 18.632812 31.859375 C 18.945312 32.226562 18.945312 32.226562 18.945312 32.617188 C 19.117188 32.695312 19.117188 32.695312 19.289062 32.765625 C 19.765625 33.03125 20.09375 33.328125 20.484375 33.703125 C 24.265625 37.117188 29 38.695312 33.9375 39.546875 C 39.140625 40.460938 43.773438 42.84375 46.921875 47.210938 C 47.875 48.578125 48.765625 49.984375 49.578125 51.429688 C 49.65625 51.539062 49.726562 51.648438 49.804688 51.757812 C 49.9375 51.757812 50.0625 51.757812 50.195312 51.757812 C 50.484375 51.382812 50.484375 51.382812 50.765625 50.890625 C 50.882812 50.710938 51 50.53125 51.109375 50.335938 C 51.234375 50.140625 51.351562 49.945312 51.476562 49.742188 C 54.546875 44.835938 58.398438 41.296875 64.132812 39.90625 C 64.953125 39.734375 65.765625 39.59375 66.59375 39.460938 C 72.726562 38.453125 77.640625 35.773438 81.960938 31.304688 C 82.09375 31.171875 82.21875 31.039062 82.351562 30.898438 C 82.46875 30.78125 82.585938 30.65625 82.710938 30.53125 C 83.007812 30.273438 83.007812 30.273438 83.398438 30.273438 C 82.765625 33.992188 82.109375 37.710938 81.4375 41.421875 C 81.34375 41.914062 81.257812 42.414062 81.164062 42.914062 C 80.976562 43.945312 80.796875 44.976562 80.609375 46 C 80.390625 47.1875 80.171875 48.375 79.960938 49.5625 C 79.75 50.71875 79.546875 51.875 79.335938 53.03125 C 79.25 53.515625 79.15625 54 79.070312 54.484375 C 78.945312 55.164062 78.828125 55.84375 78.703125 56.515625 C 78.664062 56.71875 78.632812 56.914062 78.59375 57.125 C 78.546875 57.398438 78.546875 57.398438 78.492188 57.679688 C 78.453125 57.914062 78.453125 57.914062 78.40625 58.15625 C 78.375 58.304688 78.351562 58.445312 78.320312 58.59375 C 78.28125 58.804688 78.28125 58.804688 78.242188 59.023438 C 78.125 59.375 78.125 59.375 77.640625 59.703125 C 77.429688 59.804688 77.21875 59.90625 77 60.015625 C 76.882812 60.078125 76.765625 60.140625 76.640625 60.195312 C 76.25 60.390625 75.859375 60.585938 75.46875 60.773438 C 75.203125 60.914062 74.929688 61.046875 74.664062 61.179688 C 74.09375 61.460938 73.523438 61.742188 72.960938 62.023438 C 72.226562 62.375 71.5 62.742188 70.773438 63.101562 C 70.085938 63.445312 69.390625 63.789062 68.695312 64.132812 C 68.5625 64.203125 68.429688 64.265625 68.296875 64.335938 C 67.921875 64.515625 67.546875 64.703125 67.171875 64.882812 C 66.953125 64.992188 66.742188 65.09375 66.523438 65.203125 C 66.015625 65.429688 66.015625 65.429688 65.625 65.429688 C 65.632812 65.671875 65.648438 65.914062 65.65625 66.164062 C 65.6875 67.0625 65.710938 67.960938 65.734375 68.859375 C 65.742188 69.25 65.757812 69.632812 65.773438 70.023438 C 65.90625 73.226562 65.90625 73.226562 65.265625 74.148438 C 64.75 74.515625 64.25 74.75 63.671875 75 C 63.296875 75.234375 62.921875 75.46875 62.554688 75.710938 C 62.164062 75.953125 61.765625 76.195312 61.375 76.4375 C 59.8125 77.414062 58.257812 78.390625 56.71875 79.40625 C 56.25 79.6875 56.25 79.6875 55.859375 79.6875 C 56.585938 81.09375 57.390625 82.40625 58.296875 83.703125 C 58.59375 84.179688 58.59375 84.179688 58.59375 84.570312 C 60.554688 83.382812 62.5 82.1875 64.40625 80.929688 C 65.40625 80.273438 65.40625 80.273438 65.625 80.273438 C 65.757812 85.734375 65.632812 90.671875 61.71875 94.921875 C 61.570312 95.085938 61.421875 95.25 61.273438 95.421875 C 58.742188 98.125 55.03125 99.929688 51.304688 100.085938 C 50.882812 100.085938 50.460938 100.09375 50.039062 100.085938 C 49.8125 100.085938 49.59375 100.085938 49.359375 100.078125 C 45.78125 100.007812 42.320312 98.71875 39.648438 96.289062 C 39.492188 96.148438 39.335938 96.007812 39.171875 95.867188 C 36.375 93.25 34.484375 89.578125 34.328125 85.71875 C 34.3125 84.882812 34.320312 84.054688 34.335938 83.226562 C 34.34375 82.9375 34.34375 82.648438 34.34375 82.359375 C 34.351562 81.664062 34.359375 80.96875 34.375 80.273438 C 36.539062 81.46875 38.601562 82.78125 40.65625 84.148438 C 41.015625 84.382812 41.015625 84.382812 41.40625 84.570312 C 41.445312 84.445312 41.492188 84.320312 41.53125 84.1875 C 41.898438 83.367188 42.390625 82.65625 42.882812 81.90625 C 43.078125 81.617188 43.273438 81.320312 43.46875 81.023438 C 43.601562 80.828125 43.601562 80.828125 43.734375 80.632812 C 43.976562 80.25 43.976562 80.25 44.140625 79.6875 C 43.929688 79.609375 43.929688 79.609375 43.710938 79.523438 C 43.1875 79.304688 42.742188 79.054688 42.257812 78.742188 C 42.085938 78.632812 41.914062 78.523438 41.734375 78.40625 C 41.554688 78.289062 41.375 78.171875 41.1875 78.054688 C 40.804688 77.804688 40.414062 77.554688 40.03125 77.3125 C 39.835938 77.1875 39.648438 77.0625 39.445312 76.9375 C 38.414062 76.265625 37.367188 75.617188 36.328125 74.96875 C 36.1875 74.875 36.039062 74.78125 35.890625 74.695312 C 35.765625 74.617188 35.640625 74.539062 35.515625 74.460938 C 35.398438 74.375 35.28125 74.296875 35.15625 74.21875 C 35.015625 74.148438 34.867188 74.078125 34.726562 74.007812 C 34.132812 73.375 34.28125 72.617188 34.296875 71.78125 C 34.296875 71.601562 34.304688 71.421875 34.304688 71.234375 C 34.304688 70.648438 34.3125 70.070312 34.328125 69.492188 C 34.328125 69.101562 34.335938 68.710938 34.335938 68.320312 C 34.34375 67.351562 34.359375 66.390625 34.375 65.429688 C 34.203125 65.375 34.039062 65.320312 33.859375 65.257812 C 33.640625 65.1875 33.429688 65.117188 33.203125 65.039062 C 33.023438 64.976562 32.835938 64.914062 32.648438 64.851562 C 22.90625 61.5625 22.90625 61.5625 21.179688 58.257812 C 20.21875 55.828125 20.125 53.132812 19.960938 50.546875 C 19.796875 48.101562 19.390625 45.710938 18.929688 43.296875 C 18.898438 43.101562 18.859375 42.90625 18.820312 42.703125 C 18.632812 41.71875 18.445312 40.726562 18.257812 39.742188 C 17.921875 38.023438 17.617188 36.304688 17.304688 34.585938 C 17.210938 34.0625 17.117188 33.546875 17.023438 33.03125 C 16.96875 32.726562 16.914062 32.414062 16.851562 32.101562 C 16.828125 31.960938 16.804688 31.820312 16.773438 31.671875 C 16.601562 30.710938 16.601562 30.710938 16.601562 30.273438 Z M 32.8125 46.484375 C 32.203125 47.632812 31.671875 48.796875 31.1875 50 C 31.140625 50.132812 31.085938 50.257812 31.03125 50.390625 C 30.757812 51.054688 30.757812 51.054688 30.664062 51.757812 C 31.960938 52.328125 33.257812 52.890625 34.5625 53.453125 C 34.9375 53.617188 35.3125 53.773438 35.679688 53.9375 C 36.140625 54.140625 36.59375 54.335938 37.046875 54.53125 C 37.25 54.617188 37.25 54.617188 37.453125 54.710938 C 37.9375 54.914062 38.34375 55.085938 38.875 55.0625 C 39.460938 54.789062 39.53125 54.390625 39.757812 53.796875 C 39.84375 53.578125 39.929688 53.359375 40.023438 53.132812 C 40.109375 52.898438 40.195312 52.664062 40.28125 52.429688 C 40.375 52.195312 40.460938 51.96875 40.554688 51.726562 C 40.773438 51.15625 40.992188 50.578125 41.210938 50 C 39.515625 49.203125 37.804688 48.453125 36.070312 47.742188 C 35.6875 47.578125 35.296875 47.421875 34.914062 47.257812 C 33.890625 46.742188 33.890625 46.742188 32.8125 46.484375 Z M 65.015625 47.304688 C 64.859375 47.367188 64.710938 47.4375 64.546875 47.5 C 64.0625 47.703125 63.578125 47.914062 63.085938 48.117188 C 62.757812 48.257812 62.429688 48.398438 62.101562 48.53125 C 60.421875 49.21875 60.421875 49.21875 58.789062 50 C 59.101562 50.804688 59.421875 51.609375 59.742188 52.414062 C 59.828125 52.648438 59.921875 52.875 60.015625 53.109375 C 60.101562 53.335938 60.1875 53.546875 60.273438 53.773438 C 60.398438 54.078125 60.398438 54.078125 60.515625 54.390625 C 60.71875 54.90625 60.71875 54.90625 61.132812 55.273438 C 62.242188 54.804688 63.34375 54.335938 64.445312 53.867188 C 64.828125 53.703125 65.203125 53.546875 65.578125 53.382812 C 66.117188 53.15625 66.65625 52.929688 67.195312 52.695312 C 67.367188 52.625 67.539062 52.554688 67.710938 52.484375 C 67.867188 52.414062 68.023438 52.351562 68.1875 52.28125 C 68.320312 52.21875 68.460938 52.164062 68.601562 52.101562 C 68.851562 51.992188 69.09375 51.875 69.335938 51.757812 C 68.796875 50.015625 68.085938 48.359375 67.382812 46.679688 C 66.476562 46.679688 65.828125 46.960938 65.015625 47.304688 Z M 65.015625 47.304688 "/>
<path style=" stroke:none;fill-rule:nonzero;fill:rgb(100%,100%,100%);fill-opacity:1;" d="M 82.03125 23.046875 C 81.296875 24.132812 80.445312 25.046875 79.515625 25.960938 C 78.992188 26.476562 78.5 26.992188 78.03125 27.554688 C 74.59375 31.53125 70.28125 33.289062 65.21875 34.15625 C 60.085938 35.046875 55 37.046875 51.421875 40.984375 C 51.171875 41.210938 51.171875 41.210938 50.78125 41.210938 C 50.648438 41.46875 50.523438 41.726562 50.390625 41.992188 C 49.609375 41.992188 49.609375 41.992188 49.070312 41.5 C 48.859375 41.273438 48.65625 41.054688 48.453125 40.835938 C 47.25 39.585938 46.023438 38.59375 44.53125 37.695312 C 44.40625 37.625 44.289062 37.546875 44.164062 37.476562 C 40.875 35.53125 37.453125 34.585938 33.710938 33.9375 C 28.203125 32.96875 24.109375 30.242188 20.492188 26.023438 C 19.992188 25.445312 19.476562 24.882812 18.960938 24.3125 C 18.859375 24.210938 18.765625 24.101562 18.664062 24 C 18.429688 23.742188 18.203125 23.492188 17.96875 23.242188 C 21.515625 19.398438 27.609375 17.148438 32.421875 15.429688 C 32.570312 15.375 32.71875 15.320312 32.875 15.265625 C 48.25 9.585938 69.453125 11.835938 82.03125 23.046875 Z M 82.03125 23.046875 "/>
<path style=" stroke:none;fill-rule:nonzero;fill:rgb(100%,100%,100%);fill-opacity:1;" d="M 100 33.984375 C 100.375 40.195312 97.609375 47.148438 93.695312 51.914062 C 93.320312 52.304688 93.320312 52.304688 93.359375 52.734375 C 95.296875 53.3125 97.226562 53.890625 99.21875 54.492188 C 97.867188 58.554688 95.375 62.21875 92.578125 65.429688 C 92.484375 65.539062 92.390625 65.648438 92.289062 65.765625 C 87.835938 70.851562 82.125 74.265625 75.515625 75.65625 C 75.359375 75.695312 75.203125 75.726562 75.046875 75.757812 C 73.742188 76.007812 72.679688 75.976562 71.289062 75.976562 C 71.289062 73.65625 71.289062 71.335938 71.289062 68.945312 C 73.710938 67.664062 76.140625 66.398438 78.59375 65.171875 C 79.125 64.914062 79.65625 64.648438 80.179688 64.382812 C 80.523438 64.210938 80.859375 64.039062 81.195312 63.875 C 81.351562 63.789062 81.507812 63.710938 81.671875 63.632812 C 82.765625 63.085938 82.765625 63.085938 83.203125 63.085938 C 83.210938 62.96875 83.21875 62.859375 83.234375 62.742188 C 83.351562 61.421875 83.554688 60.140625 83.796875 58.84375 C 83.835938 58.625 83.875 58.40625 83.914062 58.179688 C 84.046875 57.453125 84.179688 56.734375 84.304688 56.015625 C 84.398438 55.507812 84.492188 55.007812 84.578125 54.507812 C 84.773438 53.453125 84.960938 52.398438 85.15625 51.351562 C 85.398438 50 85.648438 48.648438 85.890625 47.304688 C 86.078125 46.265625 86.265625 45.226562 86.453125 44.1875 C 86.546875 43.6875 86.632812 43.195312 86.726562 42.695312 C 86.851562 42 86.976562 41.304688 87.101562 40.617188 C 87.140625 40.40625 87.179688 40.203125 87.21875 39.992188 C 87.265625 39.703125 87.265625 39.703125 87.320312 39.414062 C 87.351562 39.25 87.382812 39.085938 87.414062 38.921875 C 87.453125 38.703125 87.453125 38.703125 87.5 38.476562 C 87.523438 38.335938 87.546875 38.195312 87.570312 38.046875 C 87.609375 37.929688 87.648438 37.8125 87.695312 37.695312 C 88.226562 37.453125 88.726562 37.28125 89.28125 37.109375 C 89.453125 37.054688 89.625 37 89.804688 36.945312 C 90.335938 36.78125 90.867188 36.617188 91.398438 36.453125 C 92.015625 36.265625 92.617188 36.070312 93.226562 35.875 C 94.09375 35.609375 94.960938 35.335938 95.828125 35.070312 C 96 35.015625 96.171875 34.960938 96.34375 34.90625 C 96.84375 34.75 97.335938 34.601562 97.835938 34.445312 C 97.984375 34.398438 98.132812 34.359375 98.289062 34.304688 C 98.882812 34.125 99.382812 33.984375 100 33.984375 Z M 100 33.984375 "/>
<path style=" stroke:none;fill-rule:nonzero;fill:rgb(100%,100%,100%);fill-opacity:1;" d="M 0 33.984375 C 1.40625 34.273438 2.765625 34.664062 4.140625 35.09375 C 4.359375 35.15625 4.578125 35.226562 4.8125 35.296875 C 5.273438 35.4375 5.742188 35.585938 6.210938 35.726562 C 6.921875 35.953125 7.640625 36.171875 8.351562 36.390625 C 8.8125 36.53125 9.265625 36.671875 9.71875 36.8125 C 9.929688 36.875 10.148438 36.945312 10.367188 37.015625 C 10.5625 37.070312 10.765625 37.132812 10.96875 37.195312 C 11.140625 37.25 11.3125 37.304688 11.492188 37.359375 C 11.914062 37.5 11.914062 37.5 12.304688 37.695312 C 12.414062 38.070312 12.414062 38.070312 12.507812 38.570312 C 12.5625 38.851562 12.5625 38.851562 12.617188 39.148438 C 12.671875 39.460938 12.671875 39.460938 12.726562 39.78125 C 12.773438 40 12.8125 40.226562 12.851562 40.453125 C 12.992188 41.1875 13.125 41.929688 13.257812 42.664062 C 13.351562 43.179688 13.445312 43.6875 13.539062 44.203125 C 13.742188 45.296875 13.9375 46.390625 14.140625 47.484375 C 14.40625 48.960938 14.679688 50.4375 14.953125 51.914062 C 15.171875 53.101562 15.382812 54.28125 15.601562 55.460938 C 15.703125 56.03125 15.8125 56.609375 15.921875 57.179688 C 16.039062 57.859375 16.164062 58.539062 16.289062 59.21875 C 16.359375 59.59375 16.421875 59.960938 16.492188 60.328125 C 16.53125 60.546875 16.578125 60.773438 16.617188 61 C 16.671875 61.289062 16.671875 61.289062 16.71875 61.578125 C 16.796875 62.09375 16.8125 62.570312 16.796875 63.085938 C 16.96875 63.140625 17.140625 63.195312 17.3125 63.25 C 17.929688 63.460938 18.484375 63.710938 19.070312 64 C 19.382812 64.15625 19.382812 64.15625 19.703125 64.320312 C 19.929688 64.429688 20.15625 64.546875 20.382812 64.664062 C 20.617188 64.78125 20.851562 64.898438 21.085938 65.015625 C 21.578125 65.257812 22.0625 65.5 22.554688 65.75 C 23.179688 66.0625 23.804688 66.375 24.4375 66.695312 C 24.914062 66.9375 25.398438 67.171875 25.882812 67.414062 C 26.226562 67.585938 26.570312 67.757812 26.914062 67.9375 C 27.125 68.039062 27.328125 68.140625 27.546875 68.25 C 27.726562 68.34375 27.90625 68.4375 28.101562 68.53125 C 28.515625 68.75 28.515625 68.75 28.710938 68.945312 C 28.726562 69.46875 28.734375 69.984375 28.734375 70.5 C 28.726562 70.734375 28.726562 70.734375 28.726562 70.976562 C 28.726562 71.476562 28.726562 71.976562 28.726562 72.476562 C 28.71875 72.8125 28.71875 73.148438 28.71875 73.484375 C 28.71875 74.3125 28.71875 75.148438 28.710938 75.976562 C 27.257812 76.015625 25.90625 75.960938 24.484375 75.65625 C 24.320312 75.625 24.15625 75.585938 23.984375 75.554688 C 19.671875 74.601562 15.492188 72.796875 12.109375 69.921875 C 11.875 69.726562 11.640625 69.53125 11.414062 69.34375 C 9.484375 67.726562 7.804688 66.046875 6.25 64.0625 C 6.164062 63.960938 6.085938 63.851562 6 63.742188 C 4.828125 62.25 3.804688 60.695312 2.859375 59.054688 C 2.710938 58.8125 2.710938 58.8125 2.570312 58.5625 C 1.8125 57.226562 1.351562 55.96875 0.78125 54.492188 C 2.71875 53.914062 4.648438 53.335938 6.640625 52.734375 C 6.328125 52.117188 6 51.578125 5.609375 51.015625 C 2.851562 47.007812 1.078125 42.671875 0.195312 37.890625 C 0.15625 37.695312 0.117188 37.5 0.078125 37.296875 C -0.015625 36.617188 -0.015625 35.960938 -0.015625 35.28125 C -0.0078125 35.03125 -0.0078125 34.789062 -0.0078125 34.539062 C -0.0078125 34.359375 0 34.171875 0 33.984375 Z M 0 33.984375 "/>
<path style=" stroke:none;fill-rule:nonzero;fill:rgb(100%,100%,100%);fill-opacity:1;" d="M 13.671875 0 C 19.4375 -0.210938 25.078125 0.773438 30.273438 3.320312 C 30.398438 3.375 30.515625 3.4375 30.640625 3.5 C 32.164062 4.226562 33.546875 5.085938 34.898438 6.09375 C 35.09375 6.234375 35.09375 6.234375 35.296875 6.390625 C 36.007812 6.929688 36.578125 7.46875 37.109375 8.203125 C 36.203125 8.515625 35.304688 8.8125 34.382812 9.070312 C 30.5625 10.164062 26.8125 11.578125 23.304688 13.445312 C 22.851562 13.671875 22.851562 13.671875 22.460938 13.671875 C 22.40625 13.570312 22.351562 13.460938 22.296875 13.351562 C 20.148438 9.226562 17.59375 5.429688 14.804688 1.71875 C 14.390625 1.164062 14.007812 0.601562 13.671875 0 Z M 13.671875 0 "/>
<path style=" stroke:none;fill-rule:nonzero;fill:rgb(100%,100%,100%);fill-opacity:1;" d="M 84.289062 -0.015625 C 84.585938 -0.0078125 84.585938 -0.0078125 84.882812 -0.0078125 C 85.367188 -0.0078125 85.84375 -0.0078125 86.328125 0 C 85.9375 0.6875 85.5 1.3125 85.015625 1.9375 C 82.195312 5.59375 79.585938 9.523438 77.539062 13.671875 C 76.71875 13.421875 75.976562 13.101562 75.210938 12.71875 C 71.796875 11.023438 68.1875 9.71875 64.507812 8.75 C 64.351562 8.710938 64.195312 8.664062 64.03125 8.625 C 63.898438 8.585938 63.757812 8.554688 63.617188 8.515625 C 63.28125 8.398438 63.28125 8.398438 62.890625 8.007812 C 68.445312 2.601562 76.625 -0.078125 84.289062 -0.015625 Z M 84.289062 -0.015625 "/>
</g>
</svg>
