<?xml version="1.0" encoding="UTF-8"?>
<svg xmlns="http://www.w3.org/2000/svg" xmlns:xlink="http://www.w3.org/1999/xlink" width="30px" height="30px" viewBox="0 0 30 30" version="1.1">
<g id="surface1">
<path style=" stroke:none;fill-rule:nonzero;fill:rgb(99.607843%,99.607843%,99.607843%);fill-opacity:1;" d="M 0 0 C 9.898438 0 19.800781 0 30 0 C 30 9.898438 30 19.800781 30 30 C 20.101562 30 10.199219 30 0 30 C 0 20.101562 0 10.199219 0 0 Z M 0 0 "/>
<path style=" stroke:none;fill-rule:nonzero;fill:rgb(0%,0%,0%);fill-opacity:1;" d="M 12.15625 16.160156 C 12.246094 16.238281 12.335938 16.324219 12.421875 16.40625 C 12.441406 16.421875 12.457031 16.441406 12.476562 16.457031 C 12.707031 16.683594 12.929688 16.910156 13.125 17.167969 C 13.144531 17.191406 13.144531 17.191406 13.160156 17.214844 C 13.488281 17.640625 13.78125 18.089844 14.007812 18.574219 C 14.023438 18.613281 14.042969 18.652344 14.0625 18.691406 C 14.332031 19.25 14.539062 19.847656 14.636719 20.460938 C 14.644531 20.511719 14.652344 20.5625 14.664062 20.609375 C 14.722656 20.925781 14.714844 21.242188 14.714844 21.5625 C 14.714844 21.628906 14.714844 21.691406 14.714844 21.757812 C 14.714844 21.933594 14.714844 22.105469 14.714844 22.28125 C 14.710938 22.464844 14.710938 22.648438 14.710938 22.832031 C 14.710938 23.136719 14.710938 23.445312 14.710938 23.75 C 14.710938 24.066406 14.710938 24.382812 14.710938 24.699219 C 14.710938 24.71875 14.710938 24.738281 14.710938 24.757812 C 14.710938 24.855469 14.710938 24.953125 14.710938 25.050781 C 14.710938 25.859375 14.707031 26.671875 14.707031 27.480469 C 13.855469 27.480469 13 27.484375 12.148438 27.484375 C 12.046875 27.484375 11.945312 27.484375 11.847656 27.484375 C 11.824219 27.484375 11.804688 27.484375 11.785156 27.484375 C 11.460938 27.484375 11.136719 27.484375 10.8125 27.484375 C 10.480469 27.484375 10.144531 27.484375 9.8125 27.484375 C 9.625 27.484375 9.4375 27.484375 9.25 27.488281 C 9.074219 27.488281 8.898438 27.488281 8.722656 27.488281 C 8.65625 27.488281 8.59375 27.488281 8.53125 27.488281 C 6.828125 27.492188 5.355469 26.929688 4.136719 25.734375 C 3.042969 24.617188 2.558594 23.070312 2.566406 21.527344 C 2.601562 19.863281 3.175781 18.257812 4.21875 16.960938 C 4.230469 16.949219 4.242188 16.933594 4.253906 16.917969 C 5.152344 15.796875 6.425781 14.988281 7.871094 14.816406 C 9.441406 14.660156 10.964844 15.128906 12.15625 16.160156 Z M 12.15625 16.160156 "/>
<path style=" stroke:none;fill-rule:nonzero;fill:rgb(0%,0%,0%);fill-opacity:1;" d="M 22.175781 14.722656 C 22.34375 14.726562 22.511719 14.726562 22.679688 14.726562 C 23 14.726562 23.316406 14.726562 23.632812 14.726562 C 23.996094 14.730469 24.359375 14.730469 24.722656 14.730469 C 25.464844 14.730469 26.210938 14.734375 26.953125 14.734375 C 26.957031 15.597656 26.957031 16.457031 26.957031 17.320312 C 26.957031 17.421875 26.957031 17.523438 26.957031 17.625 C 26.957031 17.644531 26.957031 17.664062 26.957031 17.6875 C 26.957031 18.015625 26.960938 18.339844 26.960938 18.667969 C 26.960938 19.003906 26.960938 19.34375 26.960938 19.679688 C 26.960938 19.867188 26.960938 20.054688 26.960938 20.246094 C 26.964844 20.421875 26.964844 20.601562 26.964844 20.78125 C 26.964844 20.84375 26.964844 20.910156 26.964844 20.972656 C 26.964844 21.546875 26.9375 22.128906 26.785156 22.683594 C 26.777344 22.714844 26.769531 22.742188 26.761719 22.773438 C 26.480469 23.816406 25.96875 24.75 25.210938 25.527344 C 25.164062 25.578125 25.117188 25.628906 25.070312 25.675781 C 24.128906 26.660156 22.722656 27.382812 21.347656 27.425781 C 21.234375 27.425781 21.121094 27.425781 21.007812 27.425781 C 20.988281 27.425781 20.96875 27.425781 20.945312 27.425781 C 19.992188 27.425781 19.09375 27.199219 18.25 26.746094 C 18.234375 26.738281 18.21875 26.730469 18.199219 26.71875 C 17.902344 26.5625 17.636719 26.371094 17.371094 26.160156 C 17.347656 26.144531 17.347656 26.144531 17.324219 26.121094 C 16.890625 25.777344 16.492188 25.382812 16.171875 24.929688 C 16.160156 24.914062 16.148438 24.898438 16.136719 24.878906 C 15.632812 24.175781 15.273438 23.375 15.085938 22.527344 C 15.082031 22.5 15.074219 22.472656 15.070312 22.445312 C 14.90625 21.671875 14.890625 20.785156 15.058594 20.007812 C 15.0625 19.984375 15.070312 19.957031 15.074219 19.929688 C 15.261719 19.050781 15.617188 18.214844 16.140625 17.488281 C 16.15625 17.472656 16.167969 17.457031 16.179688 17.441406 C 16.335938 17.226562 16.503906 17.03125 16.683594 16.835938 C 16.746094 16.769531 16.804688 16.703125 16.867188 16.632812 C 16.949219 16.539062 17.035156 16.457031 17.128906 16.375 C 17.179688 16.335938 17.226562 16.292969 17.273438 16.25 C 17.910156 15.683594 18.679688 15.269531 19.480469 15 C 19.503906 14.992188 19.523438 14.984375 19.546875 14.976562 C 20.394531 14.691406 21.292969 14.71875 22.175781 14.722656 Z M 22.175781 14.722656 "/>
<path style=" stroke:none;fill-rule:nonzero;fill:rgb(0%,0%,0%);fill-opacity:1;" d="M 9.695312 2.34375 C 9.722656 2.347656 9.746094 2.355469 9.769531 2.359375 C 11.21875 2.660156 12.550781 3.472656 13.4375 4.667969 C 13.472656 4.714844 13.511719 4.761719 13.546875 4.804688 C 14.183594 5.640625 14.519531 6.675781 14.648438 7.703125 C 14.652344 7.734375 14.65625 7.761719 14.660156 7.789062 C 14.839844 9.316406 14.386719 10.914062 13.445312 12.125 C 13.085938 12.578125 12.707031 13.003906 12.246094 13.359375 C 12.230469 13.371094 12.214844 13.382812 12.199219 13.394531 C 11.207031 14.171875 9.921875 14.628906 8.660156 14.621094 C 8.632812 14.621094 8.605469 14.621094 8.578125 14.621094 C 8.492188 14.621094 8.402344 14.621094 8.3125 14.621094 C 8.25 14.621094 8.1875 14.621094 8.125 14.621094 C 7.953125 14.621094 7.78125 14.621094 7.605469 14.621094 C 7.425781 14.621094 7.246094 14.621094 7.066406 14.621094 C 6.726562 14.621094 6.386719 14.621094 6.046875 14.621094 C 5.65625 14.621094 5.269531 14.621094 4.882812 14.621094 C 4.085938 14.621094 3.289062 14.621094 2.492188 14.617188 C 2.488281 13.785156 2.488281 12.949219 2.484375 12.113281 C 2.484375 12.015625 2.484375 11.914062 2.484375 11.816406 C 2.484375 11.796875 2.484375 11.777344 2.484375 11.757812 C 2.484375 11.4375 2.484375 11.121094 2.484375 10.804688 C 2.484375 10.476562 2.480469 10.152344 2.480469 9.824219 C 2.480469 9.640625 2.480469 9.457031 2.480469 9.273438 C 2.480469 9.101562 2.480469 8.929688 2.480469 8.757812 C 2.480469 8.691406 2.480469 8.628906 2.480469 8.566406 C 2.472656 6.8125 3.101562 5.28125 4.304688 4.015625 C 4.328125 3.992188 4.347656 3.96875 4.371094 3.945312 C 4.542969 3.765625 4.730469 3.617188 4.929688 3.46875 C 4.960938 3.441406 4.996094 3.417969 5.027344 3.390625 C 5.722656 2.855469 6.535156 2.53125 7.382812 2.34375 C 7.417969 2.335938 7.417969 2.335938 7.449219 2.328125 C 8.152344 2.171875 9 2.1875 9.695312 2.34375 Z M 9.695312 2.34375 "/>
<path style=" stroke:none;fill-rule:nonzero;fill:rgb(0%,0%,0%);fill-opacity:1;" d="M 14.96875 2.226562 C 15.78125 2.226562 16.589844 2.230469 17.398438 2.234375 C 17.777344 2.234375 18.152344 2.234375 18.527344 2.238281 C 18.855469 2.238281 19.183594 2.238281 19.511719 2.238281 C 19.683594 2.242188 19.859375 2.242188 20.03125 2.242188 C 20.195312 2.242188 20.359375 2.242188 20.523438 2.242188 C 20.582031 2.242188 20.640625 2.242188 20.703125 2.242188 C 22.277344 2.242188 23.675781 2.765625 24.875 3.78125 C 24.914062 3.8125 24.914062 3.8125 24.953125 3.847656 C 25.070312 3.945312 25.070312 3.945312 25.109375 3.984375 C 25.109375 4.003906 25.109375 4.023438 25.109375 4.042969 C 25.125 4.050781 25.140625 4.058594 25.160156 4.066406 C 25.296875 4.140625 25.386719 4.277344 25.488281 4.394531 C 25.5 4.410156 25.515625 4.425781 25.53125 4.441406 C 26.628906 5.738281 26.96875 7.328125 26.894531 8.992188 C 26.875 9.222656 26.832031 9.445312 26.777344 9.667969 C 26.765625 9.714844 26.753906 9.765625 26.746094 9.8125 C 26.570312 10.53125 26.269531 11.230469 25.839844 11.835938 C 25.828125 11.855469 25.8125 11.875 25.800781 11.894531 C 25.625 12.136719 25.441406 12.363281 25.234375 12.582031 C 25.179688 12.640625 25.125 12.703125 25.074219 12.769531 C 24.976562 12.878906 24.867188 12.972656 24.757812 13.066406 C 24.730469 13.089844 24.703125 13.113281 24.675781 13.136719 C 23.488281 14.1875 21.988281 14.652344 20.417969 14.554688 C 19.285156 14.457031 18.175781 13.910156 17.3125 13.183594 C 17.289062 13.164062 17.289062 13.164062 17.265625 13.144531 C 16.929688 12.859375 16.617188 12.566406 16.347656 12.21875 C 16.335938 12.199219 16.324219 12.183594 16.308594 12.167969 C 15.542969 11.179688 14.960938 9.863281 14.96875 8.597656 C 14.96875 8.570312 14.96875 8.542969 14.96875 8.511719 C 14.96875 8.421875 14.96875 8.332031 14.96875 8.238281 C 14.96875 8.175781 14.96875 8.109375 14.96875 8.042969 C 14.96875 7.867188 14.96875 7.6875 14.96875 7.511719 C 14.96875 7.324219 14.96875 7.140625 14.96875 6.953125 C 14.96875 6.640625 14.96875 6.328125 14.96875 6.019531 C 14.96875 5.695312 14.96875 5.375 14.96875 5.054688 C 14.96875 5.035156 14.96875 5.015625 14.96875 4.996094 C 14.96875 4.894531 14.96875 4.796875 14.96875 4.695312 C 14.96875 3.875 14.96875 3.050781 14.96875 2.226562 Z M 14.96875 2.226562 "/>
</g>
</svg>
