<?xml version="1.0" encoding="UTF-8"?>
<svg version="1.1" xmlns="http://www.w3.org/2000/svg" width="512" height="512">
<path d="M0 0 C0.70456329 -0.00686325 1.40912659 -0.0137265 2.13504028 -0.02079773 C4.45945503 -0.03906922 6.783195 -0.0352279 9.10766602 -0.02954102 C10.7266512 -0.03410281 12.34563444 -0.03940838 13.96461487 -0.04542542 C17.35653554 -0.05435728 20.74822079 -0.05193281 24.14013672 -0.04199219 C28.48260117 -0.03050472 32.82425218 -0.05070952 37.16660976 -0.07990932 C40.5098434 -0.09827396 43.85288222 -0.09797835 47.19615364 -0.0922718 C48.79690759 -0.09211861 50.39767475 -0.09816167 51.99838066 -0.11056328 C54.23901955 -0.12547659 56.47815742 -0.11479574 58.71875 -0.09765625 C60.62925392 -0.097407 60.62925392 -0.097407 62.57835388 -0.09715271 C66.49637289 0.48978625 68.13871354 1.64312222 70.92407227 4.40405273 C72.1147684 6.78544501 72.04834711 8.22475036 72.04712009 10.88245583 C72.04911114 11.83043812 72.05110219 12.77842042 72.05315357 13.75512946 C72.05024073 14.80375076 72.04732789 15.85237207 72.04432678 16.93276978 C72.04560842 18.59529708 72.04560842 18.59529708 72.04691595 20.2914108 C72.04857189 24.03030885 72.04304749 27.76916269 72.03759766 31.50805664 C72.03731578 34.17826947 72.03742942 36.84847953 72.03804016 39.51869202 C72.03856529 45.28033537 72.03541963 51.04196743 72.02980232 56.80360794 C72.02168584 65.13403995 72.01907195 73.46446648 72.01781433 81.79490201 C72.01562405 95.30947879 72.00896459 108.82404954 71.99951172 122.33862305 C71.990337 135.46915659 71.98325646 148.59968851 71.97900391 161.73022461 C71.97860982 162.94365014 71.97860982 162.94365014 71.97820777 164.18158932 C71.97690277 168.23973135 71.97563905 172.29787339 71.97439587 176.35601544 C71.96402399 210.03869891 71.94640631 243.72137509 71.92407227 277.40405273 C72.87668945 277.36924805 73.82930664 277.33444336 74.81079102 277.29858398 C76.06504883 277.27151367 77.31930664 277.24444336 78.61157227 277.21655273 C79.85293945 277.18174805 81.09430664 277.14694336 82.37329102 277.11108398 C87.13436109 277.50391155 89.67143683 278.98439924 92.79907227 282.52905273 C94.3779052 286.56384802 94.54434686 290.34293531 92.92407227 294.40405273 C88.54095675 298.7797102 86.10647284 300.02912896 79.73695374 300.03325844 C78.68078545 300.04415924 78.68078545 300.04415924 77.60328043 300.05528027 C75.24360078 300.07352991 72.8855467 300.05617711 70.52587891 300.03897095 C68.81730093 300.0447322 67.10872914 300.05267335 65.40017033 300.06260717 C60.70489012 300.08350331 56.01011724 300.07315278 51.31483507 300.05767608 C46.2513486 300.04637782 41.18795025 300.06381771 36.1244812 300.07757568 C26.20507031 300.0998289 16.2858484 300.0949976 6.36643004 300.08051248 C-1.69403273 300.06922845 -9.75444248 300.06768572 -17.81491089 300.07313156 C-18.96136517 300.07389773 -20.10781944 300.07466389 -21.28901476 300.07545327 C-23.61788918 300.07705187 -25.94676359 300.07867294 -28.27563798 300.08031623 C-50.12235549 300.09457984 -71.96896815 300.07817138 -93.81566846 300.0513144 C-112.56816417 300.02897509 -131.32050513 300.03285505 -150.07299805 300.0559082 C-171.84061641 300.08265537 -193.60814284 300.09320649 -215.37577534 300.07784688 C-217.69616507 300.07625411 -220.01655482 300.07468226 -222.33694458 300.07313156 C-224.04953576 300.07197449 -224.04953576 300.07197449 -225.79672474 300.07079405 C-233.84911454 300.06647381 -241.90144612 300.07377061 -249.9538269 300.08552933 C-259.76472302 300.09954081 -269.57541907 300.09578278 -279.38629222 300.06912561 C-284.39364813 300.05596929 -289.40067027 300.05086601 -294.40802383 300.06737137 C-298.98997964 300.08224629 -303.57129162 300.07412346 -308.15318882 300.04748361 C-309.81258733 300.04188819 -311.47203998 300.04476284 -313.1314038 300.05686255 C-315.38464916 300.07203516 -317.63568004 300.05651318 -319.8888092 300.03325844 C-321.14091218 300.03244668 -322.39301516 300.03163491 -323.68306065 300.03079855 C-328.19973655 299.19645767 -329.84518315 297.62386477 -333.07592773 294.40405273 C-334.34369459 291.39179679 -334.42373935 288.64269208 -334.07592773 285.40405273 C-332.07041517 281.31874937 -330.3435539 278.9710153 -326.07592773 277.40405273 C-322.62280273 277.20874023 -322.62280273 277.20874023 -318.82592773 277.27905273 C-317.56264648 277.29709961 -316.29936523 277.31514648 -314.99780273 277.33374023 C-313.55147461 277.36854492 -313.55147461 277.36854492 -312.07592773 277.40405273 C-312.07961491 276.83659741 -312.08330208 276.26914209 -312.08710098 275.68449116 C-312.17547194 261.87148666 -312.24139152 248.05853175 -312.28317642 234.24530506 C-312.30406204 227.5652719 -312.33239798 220.88548218 -312.37768555 214.20556641 C-312.4211076 207.76057109 -312.44505753 201.315772 -312.45543671 194.87064171 C-312.46283453 192.41021319 -312.4772805 189.94979556 -312.49884796 187.48945045 C-312.5278325 184.04644075 -312.53188566 180.60424465 -312.5300293 177.16113281 C-312.5444104 176.14117722 -312.5587915 175.12122162 -312.5736084 174.07035828 C-312.54779093 169.6528763 -312.51799904 167.12632581 -310.17254639 163.29423523 C-306.53195335 160.01210034 -304.08529156 160.26005158 -299.24291992 160.21118164 C-298.1889225 160.19891541 -298.1889225 160.19891541 -297.1136322 160.18640137 C-294.78336438 160.16154763 -292.45315756 160.14502998 -290.12280273 160.13061523 C-288.92872173 160.12262972 -288.92872173 160.12262972 -287.71051788 160.11448288 C-283.49557966 160.08774914 -279.28067105 160.06837652 -275.06567383 160.05395508 C-270.71648222 160.03732221 -266.36805059 159.9925574 -262.01914597 159.94158363 C-258.67162225 159.90788774 -255.32427823 159.89637507 -251.97660065 159.890728 C-250.37383478 159.88402005 -248.77108054 159.86880967 -247.16847992 159.84483719 C-244.92053314 159.81313473 -242.67462628 159.81315529 -240.42651367 159.82055664 C-239.14903259 159.81246979 -237.87155151 159.80438293 -236.55535889 159.79605103 C-231.9369156 160.60308565 -230.33859061 162.08129884 -227.07592773 165.40405273 C-226.13022784 168.24115241 -225.9522929 169.9653776 -225.95567322 172.90287781 C-225.95361122 174.28477798 -225.95361122 174.28477798 -225.95150757 175.69459534 C-225.95690048 177.20726234 -225.95690048 177.20726234 -225.96240234 178.75048828 C-225.96225632 179.81406555 -225.96211029 180.87764282 -225.96195984 181.97344971 C-225.96265761 185.4959109 -225.97044373 189.0183195 -225.97827148 192.54077148 C-225.98013614 194.98029044 -225.98155982 197.41980976 -225.9825592 199.85932922 C-225.9863806 206.28566519 -225.99620769 212.71197862 -226.00726318 219.13830566 C-226.0192821 226.84588404 -226.02388134 234.55346994 -226.02971649 242.26105499 C-226.03941962 253.97540326 -226.05857885 265.68970205 -226.07592773 277.40405273 C-205.28592773 277.40405273 -184.49592773 277.40405273 -163.07592773 277.40405273 C-163.10211182 271.83127441 -163.1282959 266.25849609 -163.15527344 260.5168457 C-163.23802843 242.12858252 -163.29356858 223.74031212 -163.33498859 205.35191154 C-163.3607752 194.20025011 -163.39593462 183.04876504 -163.453125 171.8972168 C-163.50294578 162.17803681 -163.53521542 152.45898454 -163.54637021 142.73968041 C-163.55289117 137.5928524 -163.56822702 132.44638976 -163.60457802 127.2996788 C-163.6385164 122.45530506 -163.648985 117.6114472 -163.64146614 112.76696587 C-163.64284165 110.98919433 -163.65278706 109.21140553 -163.67195511 107.4337368 C-163.69686057 105.00482364 -163.69084354 102.57785406 -163.67720032 100.14889526 C-163.69904663 99.09537268 -163.69904663 99.09537268 -163.72133428 98.02056682 C-163.63693508 92.45591306 -161.86575946 90.1807414 -158.07592773 86.40405273 C-155.1638809 84.94802932 -152.58738347 85.24447214 -149.3347168 85.21118164 C-148.64180542 85.20300415 -147.94889404 85.19482666 -147.23498535 85.18640137 C-144.93718327 85.16154877 -142.63944304 85.14503021 -140.34155273 85.13061523 C-139.5565313 85.12529156 -138.77150986 85.11996788 -137.96269989 85.11448288 C-133.8061165 85.08774954 -129.64956313 85.06837686 -125.49291992 85.05395508 C-121.2042575 85.03732292 -116.9163659 84.99255869 -112.62799454 84.94158363 C-109.32679386 84.90788511 -106.02577538 84.89637478 -102.72441864 84.890728 C-101.14398063 84.8840207 -99.56355439 84.86881197 -97.983284 84.84483719 C-95.76646165 84.81312903 -93.55170743 84.81315604 -91.3347168 84.82055664 C-90.07500061 84.81246979 -88.81528442 84.80438293 -87.51739502 84.79605103 C-82.95627578 85.60186089 -81.33714954 87.16820015 -78.07592773 90.40405273 C-76.58870242 93.37850336 -76.94237032 96.40705181 -76.95567322 99.6678772 C-76.95439158 100.80362625 -76.95439158 100.80362625 -76.95308405 101.96231973 C-76.95143006 104.51274529 -76.95694931 107.06310584 -76.96240234 109.61352539 C-76.96268426 111.4364573 -76.9625264 113.25938932 -76.96195984 115.08232117 C-76.96167203 120.04279821 -76.96756605 125.00325125 -76.9745338 129.96372271 C-76.98077013 135.14340628 -76.98137136 140.32309035 -76.9825592 145.5027771 C-76.98567169 155.31648036 -76.99388397 165.13017253 -77.00390869 174.9438709 C-77.01507239 186.11419902 -77.02058093 197.28452766 -77.02560413 208.45485997 C-77.03606665 231.4379318 -77.05441111 254.42098841 -77.07592773 277.40405273 C-56.28592773 277.40405273 -35.49592773 277.40405273 -14.07592773 277.40405273 C-14.09163818 269.28142822 -14.10734863 261.15880371 -14.12353516 252.79003906 C-14.17166896 226.81081946 -14.20504819 200.83160106 -14.22912372 174.85234867 C-14.23287591 170.81806958 -14.23675887 166.78379061 -14.24072266 162.74951172 C-14.24150959 161.9463479 -14.24229652 161.14318408 -14.2431073 160.31568196 C-14.25616684 147.3051542 -14.27982369 134.29466615 -14.30738612 121.28416196 C-14.33542508 107.93756383 -14.35210079 94.59098652 -14.35819322 81.24436015 C-14.3623128 73.00651167 -14.37533153 64.76877542 -14.39967714 56.53096148 C-14.41551569 50.8845904 -14.42033237 45.23827747 -14.41643187 39.59188578 C-14.41450736 36.33252457 -14.41912186 33.07340151 -14.43354416 29.81406593 C-14.44841163 26.28175437 -14.44490197 22.74992776 -14.43669128 19.21760559 C-14.44542981 18.18550471 -14.45416833 17.15340382 -14.46317166 16.09002715 C-14.42398784 9.87778285 -13.80192958 6.19564432 -9.33067322 1.61680603 C-6.15037976 -0.09376902 -3.60189965 0.01528903 0 0 Z " fill="#0098CD" transform="translate(376.075927734375,163.595947265625)"/>
<path d="M0 0 C1.07191338 -0.01073296 1.07191338 -0.01073296 2.16548157 -0.02168274 C4.51194491 -0.03850033 6.85647886 -0.01921287 9.20288086 0.00219727 C10.84142718 0.001368 12.47997341 -0.00109354 14.11851501 -0.00511169 C17.54573731 -0.00796479 20.97230429 0.00668453 24.39941406 0.03417969 C28.78672536 0.0682893 33.17286747 0.06223105 37.56023502 0.04351711 C40.94125574 0.03293703 44.32200549 0.04189351 47.70300102 0.05690193 C49.32048169 0.06207503 50.93799076 0.06161253 52.55546761 0.05535698 C54.81754323 0.04989117 57.0779576 0.07031914 59.33984375 0.09765625 C60.62524551 0.10385483 61.91064728 0.11005341 63.23500061 0.11643982 C67.23202364 0.7268214 68.8330919 1.72074704 71.60522461 4.63110352 C73.78130008 8.53627859 73.86286142 12.01690545 73.87988281 16.4375 C73.88754921 17.43363312 73.88754921 17.43363312 73.89537048 18.44989014 C73.90921296 20.63408548 73.90831385 22.8179634 73.90600586 25.00219727 C73.90989566 26.52767554 73.91423091 28.05315273 73.91899109 29.57862854 C73.92644173 32.77201858 73.92617038 35.96529805 73.92089844 39.15869141 C73.91510442 43.24194634 73.93203842 47.32474757 73.95524311 51.40792751 C73.97000636 54.55730313 73.97084866 57.70657011 73.96773338 60.8559742 C73.96824527 62.36100221 73.97345798 63.86603651 73.9835453 65.37103081 C73.99594367 67.47942091 73.98909885 69.58693541 73.97753906 71.6953125 C73.97816849 72.89268539 73.97879791 74.09005829 73.97944641 75.32371521 C73.44883959 80.01324101 72.02266995 83.41615037 68.41772461 86.50610352 C64.69310818 87.99595009 61.56161073 88.35190261 57.60522461 87.63110352 C53.52107011 85.2338824 51.97568497 83.08978277 50.60522461 78.63110352 C50.28447247 75.6992943 50.23343535 72.77778405 50.19116211 69.83032227 C50.16211288 68.57575981 50.16211288 68.57575981 50.13247681 67.29585266 C50.07292269 64.63687182 50.02639287 61.97784712 49.98022461 59.31860352 C49.94202255 57.51064242 49.90296952 55.70269909 49.86303711 53.89477539 C49.76724116 49.47369653 49.6831213 45.0525325 49.60522461 40.63110352 C48.59722982 41.64877713 48.59722982 41.64877713 47.5688715 42.68700981 C31.21299761 59.19831641 14.83693686 75.68938846 -1.56045437 92.1594677 C-9.48967008 100.1247696 -17.41221022 108.09650422 -25.31933594 116.08374023 C-32.2116274 123.04582681 -39.11615725 129.99549909 -46.03562886 136.93057644 C-49.69866541 140.60273453 -53.35530082 144.28079055 -56.99734306 147.97378159 C-60.42707484 151.45109975 -63.87296073 154.9115543 -67.33181572 158.35989761 C-68.59684021 159.62684456 -69.85589796 160.89978249 -71.10837173 162.17913818 C-82.93017247 174.24205308 -82.93017247 174.24205308 -91.39477539 174.63110352 C-99.82520544 172.34786204 -106.21193408 162.94566044 -111.71508789 156.52954102 C-113.91642932 154.04151326 -116.27566054 151.73916274 -118.64477539 149.41235352 C-121.10112388 146.91214166 -123.35786907 144.25429836 -125.64477539 141.59985352 C-127.33275825 139.7008728 -129.08247273 137.91104363 -130.89477539 136.13110352 C-133.98834182 133.09277934 -136.81583046 129.88345031 -139.64477539 126.59985352 C-141.87153428 124.09474977 -144.24658031 121.76767178 -146.63696289 119.42016602 C-149.12983011 116.88298116 -151.42888834 114.19169256 -153.75024414 111.49829102 C-155.86608434 109.09598314 -158.09724149 106.85901517 -160.39477539 104.63110352 C-163.43204498 105.99720619 -165.60392565 107.56184159 -168.00415039 109.86157227 C-168.67704102 110.50030273 -169.34993164 111.1390332 -170.04321289 111.79711914 C-170.73672852 112.46420898 -171.43024414 113.13129883 -172.14477539 113.81860352 C-176.85551531 118.31888262 -181.60537647 122.73573039 -186.52856445 127.00341797 C-189.19706487 129.33085024 -191.79396788 131.72818354 -194.39477539 134.13110352 C-197.67258949 137.15115223 -200.96060807 140.15314488 -204.33227539 143.06860352 C-207.9243613 146.18074475 -211.41029531 149.39982438 -214.89477539 152.63110352 C-218.97778561 156.4174204 -223.09247256 160.148774 -227.30493164 163.79125977 C-230.03848138 166.19780542 -232.71589893 168.66415301 -235.39477539 171.13110352 C-239.32083733 174.74580491 -243.2815036 178.31037247 -247.31665039 181.80297852 C-250.92257235 184.97510536 -254.44433485 188.24092344 -257.97680664 191.49438477 C-262.49295425 195.48522926 -265.1036039 196.06156929 -270.94555664 195.95922852 C-274.36517187 195.50109825 -276.09993168 194.14802887 -278.39477539 191.63110352 C-280.18070119 188.05925192 -280.11645602 184.51562794 -279.39477539 180.63110352 C-277.58164183 177.43409416 -275.06672804 175.12784616 -272.39477539 172.63110352 C-271.6788623 171.95192871 -271.6788623 171.95192871 -270.94848633 171.2590332 C-267.1487046 167.65886477 -263.28287618 164.13540036 -259.39477539 160.63110352 C-258.50016602 159.82157227 -257.60555664 159.01204102 -256.68383789 158.17797852 C-254.25897524 155.99024755 -251.82762157 153.80994944 -249.39477539 151.63110352 C-247.72771839 150.13153733 -246.06105544 148.63153298 -244.39477539 147.13110352 C-234.39477539 138.13110352 -224.39477539 129.13110352 -214.39477539 120.13110352 C-213.56719727 119.38602539 -212.73961914 118.64094727 -211.88696289 117.87329102 C-210.2473766 116.39817734 -208.60677884 114.924187 -206.96508789 113.45141602 C-202.37446882 109.33012541 -197.81033295 105.18233487 -193.26977539 101.00610352 C-189.38480887 97.43403661 -185.46334508 93.91314283 -181.47290039 90.45922852 C-177.86697843 87.28710167 -174.34521593 84.02128359 -170.81274414 80.76782227 C-166.42310382 76.88877015 -163.73593324 75.98544672 -158.00415039 76.14282227 C-153.18002541 77.04554026 -150.61633109 80.11613475 -147.39477539 83.63110352 C-146.59813477 84.4805957 -145.80149414 85.33008789 -144.98071289 86.20532227 C-143.14165235 88.19356914 -141.31658146 90.18934152 -139.50415039 92.20141602 C-136.07983318 95.99563036 -132.58347911 99.72042924 -129.08227539 103.44360352 C-127.79573864 104.81332153 -126.50928062 106.1831135 -125.22290039 107.55297852 C-124.58545898 108.23166992 -123.94801758 108.91036133 -123.29125977 109.60961914 C-120.29917676 112.79891462 -117.31553316 115.9960554 -114.33227539 119.19360352 C-113.76541016 119.80026855 -113.19854492 120.40693359 -112.61450195 121.03198242 C-109.59347371 124.26659273 -106.58205474 127.50958222 -103.58227539 130.76391602 C-102.95458252 131.44252686 -102.32688965 132.1211377 -101.68017578 132.8203125 C-100.48379434 134.11406096 -99.29009072 135.410293 -98.09960938 136.70947266 C-97.5563501 137.29591553 -97.01309082 137.8823584 -96.45336914 138.48657227 C-95.98213623 138.99857178 -95.51090332 139.51057129 -95.02539062 140.03808594 C-92.95708624 142.05870072 -90.65265686 143.82479834 -88.39477539 145.63110352 C-48.13477539 105.37110352 -7.87477539 65.11110352 33.60522461 23.63110352 C13.80522461 23.13610352 13.80522461 23.13610352 -6.39477539 22.63110352 C-12.75841175 18.8129217 -12.75841175 18.8129217 -14.39477539 14.63110352 C-14.64590066 11.41903608 -14.59300434 8.6343898 -13.39477539 5.63110352 C-8.95688164 1.17880365 -6.4645692 0.00483392 0 0 Z " fill="#00B9C4" transform="translate(354.394775390625,48.368896484375)"/>
</svg>
