<?xml version="1.0" encoding="UTF-8"?>
<svg version="1.1" xmlns="http://www.w3.org/2000/svg" width="512" height="512">
<path d="M0 0 C17.73818234 15.73406659 33.36808711 33.49808312 44.98632812 54.26367188 C45.44007813 55.0715918 45.89382813 55.87951172 46.36132812 56.71191406 C74.61614861 107.57426995 81.47160302 166.14264949 65.86181641 222.27490234 C53.5316134 264.36813859 27.83604818 303.37570248 -7.01367188 330.26367188 C-7.56506836 330.69147949 -8.11646484 331.11928711 -8.68457031 331.56005859 C-54.29470793 366.72367663 -111.1720298 381.65735576 -168.22216797 374.7421875 C-222.70229672 367.36001217 -274.25708812 339.01585996 -308.01367188 295.26367188 C-308.44147949 294.71227539 -308.86928711 294.16087891 -309.31005859 293.59277344 C-344.47367663 247.98263582 -359.40735576 191.10531395 -352.4921875 134.05517578 C-344.93071608 78.25184981 -315.71631944 27.04419381 -271.06958008 -7.43286133 C-263.67662487 -13.0190594 -256.10666444 -18.20834006 -248.01367188 -22.73632812 C-247.20575195 -23.19007812 -246.39783203 -23.64382812 -245.56542969 -24.11132812 C-167.00109761 -67.75502219 -68.37581097 -58.95838599 0 0 Z " fill="#BADDFB" transform="translate(396.013671875,93.736328125)"/>
<path d="M0 0 C5.78841021 3.21247356 10.17753938 8.1915285 14.74859619 12.90124512 C15.8539917 14.01785324 16.96073582 15.13312776 18.0687561 16.24713135 C20.95914766 19.16025846 23.83105013 22.0909509 26.69927979 25.02587891 C29.63820814 28.02656145 32.59453572 31.00999635 35.54937744 33.99499512 C41.32811328 39.83777347 47.08740163 45.69925323 52.83453369 51.57312012 C56.503115 50.03614314 58.78734153 47.83410584 61.55206299 45.0032959 C62.00636185 44.54125763 62.46066071 44.07921936 62.9287262 43.60317993 C63.91189358 42.60240228 64.89283182 41.59943086 65.87177086 40.59451675 C67.42714926 38.99956777 68.99006304 37.41237825 70.55543518 35.82723999 C75.00437006 31.32042232 79.44364286 26.80427582 83.86749268 22.27282715 C86.57798807 19.49750445 89.30086114 16.73483253 92.03165627 13.97948837 C93.064506 12.93247235 94.09267835 11.88081894 95.11581993 10.82431412 C101.70684871 4.02149444 107.60913282 -1.52136703 117.27203369 -2.92687988 C124.97300141 -1.84604231 130.83525435 0.5972977 135.67828369 6.79187012 C138.25098567 10.75522181 139.14752537 13.5360776 139.20953369 18.32312012 C139.23789307 19.30796387 139.26625244 20.29280762 139.29547119 21.30749512 C138.19732484 29.08758285 133.59671324 34.40163295 128.17340088 39.7677002 C127.51267075 40.4370459 126.85194061 41.1063916 126.17118835 41.79602051 C124.00129774 43.98846909 121.81714296 46.16600592 119.63140869 48.34265137 C118.10878173 49.87051767 116.58667472 51.39890229 115.06506348 52.92778015 C111.88074105 56.12248757 108.68907958 59.30963258 105.49224854 62.49182129 C101.40378189 66.5630877 97.3360346 70.65437011 93.27378464 74.75177479 C90.13757626 77.90997752 86.98972127 81.0563658 83.83835602 84.1994381 C82.33390647 85.70306957 80.83327752 87.21053415 79.33663177 88.72193336 C77.24066198 90.8353886 75.12926959 92.93216245 73.01324463 95.0255127 C72.40309006 95.64735947 71.79293549 96.26920624 71.16429138 96.90989685 C66.16302199 101.80313177 60.99490593 104.61214958 53.83453369 104.94812012 C45.42364874 104.55179956 40.20559378 100.68178896 34.54815674 94.91784668 C33.86905746 94.24590271 33.18995819 93.57395874 32.49028015 92.88165283 C30.26303843 90.67123214 28.05436689 88.44326075 25.84625244 86.21374512 C24.29625905 84.66458097 22.74544957 83.11623295 21.19386292 81.56866455 C17.95072782 78.32838293 14.71652009 75.07952027 11.48858643 71.82409668 C7.35679418 67.65820954 3.20524365 63.51269915 -0.95296955 59.37320328 C-4.15606218 56.18069366 -7.34931036 52.97848276 -10.53960228 49.77318573 C-12.06658391 48.24103244 -13.59638851 46.7116871 -15.12908363 45.18524933 C-17.27135648 43.04844452 -19.40023437 40.8991217 -21.52606201 38.74597168 C-22.15725952 38.12130005 -22.78845703 37.49662842 -23.43878174 36.85302734 C-28.69036424 31.48653962 -31.58243799 26.36763213 -31.66546631 18.63562012 C-31.4743406 11.36374206 -28.89383776 7.22969232 -23.79046631 2.26062012 C-15.51389846 -3.06003064 -8.97489418 -3.70950572 0 0 Z " fill="#64B5F6" transform="translate(202.16546630859375,215.4268798828125)"/>
</svg>
