<?xml version="1.0" encoding="UTF-8"?>
<svg version="1.1" xmlns="http://www.w3.org/2000/svg" width="128" height="128">
<path d="M0 0 C10.85560769 4.29294568 19.05866544 12.26268745 23.70996094 22.95947266 C31.78553255 46.6284422 28.48297244 75.78581116 27.35253906 100.359375 C27.31290291 101.27944525 27.27326675 102.1995155 27.2324295 103.14746666 C27.11111196 105.74885075 26.96112395 108.34668466 26.79882812 110.94580078 C26.7630365 111.70622397 26.72724487 112.46664717 26.69036865 113.25011349 C26.32300138 118.28687584 25.01380445 121.37957449 21.83691406 125.2890625 C18.58472445 126.91515731 15.00259037 126.46350726 11.42749023 126.48193359 C10.12236732 126.49419983 10.12236732 126.49419983 8.7908783 126.50671387 C5.90388685 126.53158037 3.0169446 126.54808667 0.12988281 126.5625 C-0.8549729 126.56782368 -1.83982861 126.57314735 -2.85452843 126.57863235 C-8.0668294 126.6053688 -13.27910637 126.62474253 -18.49145508 126.63916016 C-23.87872575 126.65581355 -29.26538532 126.70059582 -34.65242481 126.7515316 C-38.79168919 126.78516527 -42.93080779 126.79673331 -47.07019615 126.80238724 C-49.05615601 126.80910994 -51.04210594 126.82435836 -53.02793312 126.84827805 C-55.80762358 126.87985074 -58.58565628 126.8799784 -61.36547852 126.87255859 C-62.18592651 126.88896393 -63.00637451 126.90536926 -63.85168457 126.92227173 C-68.14395242 126.87536883 -69.68584056 126.67430762 -73.1504364 123.87759399 C-75.77674129 120.49982116 -76.28872268 118.94869211 -76.31025696 114.76104736 C-76.31741226 113.80775543 -76.32456757 112.8544635 -76.3319397 111.87228394 C-76.3346286 110.82291656 -76.3373175 109.77354919 -76.34008789 108.69238281 C-76.34665909 107.58982147 -76.35323029 106.48726013 -76.36000061 105.35128784 C-76.37976722 101.68992043 -76.39140376 98.0285941 -76.40136719 94.3671875 C-76.40544271 93.11879845 -76.40951824 91.87040939 -76.41371727 90.58419037 C-76.43243819 84.65856647 -76.4470005 78.73295569 -76.45532924 72.80730939 C-76.4650965 65.97126197 -76.49140134 59.1355388 -76.53183013 52.29960561 C-76.56565765 46.37614295 -76.5774767 40.4527595 -76.58153343 34.52919769 C-76.58641008 32.01099194 -76.59805451 29.49278992 -76.61657143 26.97464752 C-76.64087402 23.4506083 -76.64001355 19.92741738 -76.63305664 16.40332031 C-76.6458667 15.36204987 -76.65867676 14.32077942 -76.671875 13.24795532 C-76.62901696 7.29451116 -76.16408231 3.80980764 -72.16308594 -0.7109375 C-55.5428562 -9.02105237 -17.32006335 -5.49714625 0 0 Z M-65.16308594 13.2890625 C-66.46462095 17.19366753 -66.31880231 20.90935214 -66.32421875 24.97973633 C-66.32918365 25.86786514 -66.33414856 26.75599396 -66.33926392 27.67103577 C-66.35388327 30.61272961 -66.36068731 33.55436953 -66.36621094 36.49609375 C-66.37196275 38.54009503 -66.37772048 40.58409629 -66.38348389 42.62809753 C-66.39399335 46.91621146 -66.39983632 51.20430664 -66.40332031 55.49243164 C-66.40880372 60.98365617 -66.43282879 66.47463257 -66.46129227 71.9657793 C-66.47992824 76.18915019 -66.48512477 80.41246145 -66.48665619 84.63586998 C-66.48968127 86.66004479 -66.49770491 88.68421859 -66.51084137 90.70835304 C-66.5279211 93.54249497 -66.52601681 96.37603238 -66.51953125 99.21020508 C-66.52874603 100.04418823 -66.53796082 100.87817139 -66.54745483 101.73742676 C-66.51230405 106.64801608 -65.9209876 110.05327308 -63.16308594 114.2890625 C-59.53378305 116.70859776 -57.79954158 116.55780892 -53.47607422 116.59545898 C-52.46333939 116.60794426 -52.46333939 116.60794426 -51.43014526 116.62068176 C-49.19783768 116.64478007 -46.96582231 116.65355355 -44.73339844 116.66015625 C-43.1802461 116.6691229 -41.62709465 116.67824475 -40.07394409 116.68751526 C-36.81734112 116.70400744 -33.56084097 116.71170574 -30.30419922 116.71459961 C-26.13535398 116.71998309 -21.96747791 116.75765927 -17.79890633 116.80334377 C-14.59036753 116.83311763 -11.38206199 116.84032322 -8.17339706 116.84132576 C-6.63680458 116.84552766 -5.10021137 116.85796096 -3.56375504 116.87884331 C-1.41141201 116.90576699 0.73868665 116.90093237 2.89111328 116.88842773 C4.11450409 116.89349838 5.3378949 116.89856903 6.59835815 116.90379333 C10.75722544 116.11437236 12.22076196 114.54641438 14.83691406 111.2890625 C15.97193844 107.88398937 15.95707634 105.29685538 15.95043945 101.70629883 C15.95058548 101.04261795 15.95073151 100.37893707 15.95088196 99.69514465 C15.95018588 97.50376098 15.94240776 95.31246255 15.93457031 93.12109375 C15.93270505 91.60080512 15.93128166 90.08051589 15.93028259 88.56022644 C15.92646594 84.56041807 15.91664291 80.56064606 15.90557861 76.56085205 C15.89534619 72.47872408 15.89078105 68.39659023 15.88574219 64.31445312 C15.87501989 56.30597291 15.85795368 48.29752223 15.83691406 40.2890625 C15.10577393 40.27447998 14.37463379 40.25989746 13.62133789 40.24487305 C10.29684035 40.1702334 6.97332939 40.07362449 3.64941406 39.9765625 C2.49892578 39.95400391 1.3484375 39.93144531 0.16308594 39.90820312 C-0.94873047 39.87275391 -2.06054688 39.83730469 -3.20605469 39.80078125 C-4.22723389 39.77459717 -5.24841309 39.74841309 -6.30053711 39.72143555 C-9.57109112 39.22743545 -11.50149754 38.22495196 -14.16308594 36.2890625 C-15.50414999 33.6069344 -15.37759012 31.40508218 -15.47949219 28.40625 C-15.52138672 27.23964844 -15.56328125 26.07304687 -15.60644531 24.87109375 C-15.64576172 23.64777344 -15.68507812 22.42445312 -15.72558594 21.1640625 C-15.76876953 19.93300781 -15.81195313 18.70195312 -15.85644531 17.43359375 C-15.96277298 14.38553397 -16.06480374 11.3373906 -16.16308594 8.2890625 C-22.33773507 8.16533348 -28.5116605 8.07466106 -34.68725586 8.0144043 C-36.78731864 7.98928199 -38.88729417 7.95517792 -40.98706055 7.91186523 C-44.00819434 7.85111379 -47.02817089 7.82282987 -50.04980469 7.80078125 C-50.98644455 7.77497482 -51.92308441 7.7491684 -52.8881073 7.72257996 C-58.7069157 7.72008431 -61.53842402 8.30016714 -65.16308594 13.2890625 Z " fill="#FFFFFF" transform="translate(89.1630859375,1.7109375)"/>
<path d="M0 0 C1.8569751 -0.00472824 1.8569751 -0.00472824 3.75146484 -0.009552 C5.11295609 -0.00776222 6.47444701 -0.00571127 7.8359375 -0.00341797 C9.22216814 -0.00409106 10.60839867 -0.00506113 11.99462891 -0.00631714 C14.90333172 -0.00779387 17.81200387 -0.00564037 20.72070312 -0.00097656 C24.45690348 0.00472073 28.19303202 0.00144159 31.92922974 -0.00454903 C34.79273016 -0.00815532 37.65621343 -0.00701574 40.51971436 -0.00442123 C41.89768482 -0.00375215 43.27565682 -0.00457973 44.65362549 -0.00690079 C46.57637504 -0.00942839 48.49913002 -0.0048957 50.421875 0 C52.06615479 0.00119339 52.06615479 0.00119339 53.74365234 0.00241089 C56.2109375 0.12939453 56.2109375 0.12939453 57.2109375 1.12939453 C57.4609375 4.56689453 57.4609375 4.56689453 57.2109375 8.12939453 C53.80292592 10.40140225 52.5947032 10.38190927 48.59375 10.38818359 C47.44245605 10.39448792 46.29116211 10.40079224 45.10498047 10.4072876 C43.86119629 10.40323914 42.61741211 10.39919067 41.3359375 10.39501953 C39.42192139 10.39788971 39.42192139 10.39788971 37.46923828 10.40081787 C34.76906821 10.40218001 32.06925919 10.39948344 29.36914062 10.39013672 C25.9088792 10.37874223 22.44892803 10.38530366 18.98867798 10.39728165 C15.68775336 10.40624793 12.38686617 10.39996947 9.0859375 10.39501953 C7.22026123 10.40109222 7.22026123 10.40109222 5.31689453 10.4072876 C4.16560059 10.40098328 3.01430664 10.39467896 1.828125 10.38818359 C0.81347168 10.38659241 -0.20118164 10.38500122 -1.24658203 10.38336182 C-3.7890625 10.12939453 -3.7890625 10.12939453 -6.7890625 8.12939453 C-7.0390625 4.56689453 -7.0390625 4.56689453 -6.7890625 1.12939453 C-5.00989783 -0.64977014 -2.40592951 0.00174618 0 0 Z " fill="#FFFFFF" transform="translate(38.7890625,63.87060546875)"/>
<path d="M0 0 C1.19463867 -0.00630432 2.38927734 -0.01260864 3.62011719 -0.019104 C4.91594727 -0.01505554 6.21177734 -0.01100708 7.546875 -0.00683594 C8.88444082 -0.00818272 10.22200617 -0.01012336 11.55957031 -0.01263428 C14.36397966 -0.01558494 17.16826169 -0.01128987 19.97265625 -0.00195312 C23.57092422 0.00944153 27.16889386 0.00288172 30.76715088 -0.00909805 C33.52948258 -0.0163183 36.29174333 -0.014028 39.05407715 -0.00884247 C41.02726433 -0.00685568 43.00045426 -0.01293935 44.97363281 -0.019104 C46.16827148 -0.01279968 47.36291016 -0.00649536 48.59375 0 C50.17687988 0.00238678 50.17687988 0.00238678 51.79199219 0.00482178 C54.296875 0.25878906 54.296875 0.25878906 56.296875 2.25878906 C56.546875 5.25878906 56.546875 5.25878906 56.296875 8.25878906 C53.62493598 10.93072808 52.32660745 10.51195034 48.59375 10.51757812 C47.39911133 10.52388245 46.20447266 10.53018677 44.97363281 10.53668213 C43.67780273 10.53263367 42.38197266 10.52858521 41.046875 10.52441406 C39.70930918 10.52576085 38.37174383 10.52770149 37.03417969 10.5302124 C34.22977034 10.53316306 31.42548831 10.528868 28.62109375 10.51953125 C25.02282578 10.5081366 21.42485614 10.5146964 17.82659912 10.52667618 C15.06426742 10.53389642 12.30200667 10.53160613 9.53967285 10.52642059 C7.56648567 10.52443381 5.59329574 10.53051748 3.62011719 10.53668213 C2.42547852 10.53037781 1.23083984 10.52407349 0 10.51757812 C-1.05541992 10.51598694 -2.11083984 10.51439575 -3.19824219 10.51275635 C-5.703125 10.25878906 -5.703125 10.25878906 -7.703125 8.25878906 C-7.953125 5.25878906 -7.953125 5.25878906 -7.703125 2.25878906 C-5.03118598 -0.41314995 -3.73285745 0.00562778 0 0 Z " fill="#FFFFFF" transform="translate(39.703125,99.7412109375)"/>
<path d="M0 0 C1.19463867 -0.00630432 2.38927734 -0.01260864 3.62011719 -0.019104 C4.91594727 -0.01505554 6.21177734 -0.01100708 7.546875 -0.00683594 C8.88444082 -0.00818272 10.22200617 -0.01012336 11.55957031 -0.01263428 C14.36397966 -0.01558494 17.16826169 -0.01128987 19.97265625 -0.00195312 C23.57092422 0.00944153 27.16889386 0.00288172 30.76715088 -0.00909805 C33.52948258 -0.0163183 36.29174333 -0.014028 39.05407715 -0.00884247 C41.02726433 -0.00685568 43.00045426 -0.01293935 44.97363281 -0.019104 C46.16827148 -0.01279968 47.36291016 -0.00649536 48.59375 0 C50.17687988 0.00238678 50.17687988 0.00238678 51.79199219 0.00482178 C54.296875 0.25878906 54.296875 0.25878906 56.296875 2.25878906 C56.609375 5.25878906 56.609375 5.25878906 56.296875 8.25878906 C52.88886342 10.53079678 51.6806407 10.5113038 47.6796875 10.51757812 C46.52839355 10.52388245 45.37709961 10.53018677 44.19091797 10.53668213 C42.94713379 10.53263367 41.70334961 10.52858521 40.421875 10.52441406 C38.50785889 10.52728424 38.50785889 10.52728424 36.55517578 10.5302124 C33.85500571 10.53157454 31.15519669 10.52887797 28.45507812 10.51953125 C24.9948167 10.50813676 21.53486553 10.51469819 18.07461548 10.52667618 C14.77369086 10.53564246 11.47280367 10.529364 8.171875 10.52441406 C6.30619873 10.53048676 6.30619873 10.53048676 4.40283203 10.53668213 C3.25153809 10.53037781 2.10024414 10.52407349 0.9140625 10.51757812 C-0.10059082 10.51598694 -1.11524414 10.51439575 -2.16064453 10.51275635 C-4.703125 10.25878906 -4.703125 10.25878906 -7.703125 8.25878906 C-8.015625 5.25878906 -8.015625 5.25878906 -7.703125 2.25878906 C-5.03118598 -0.41314995 -3.73285745 0.00562778 0 0 Z " fill="#FFFFFF" transform="translate(39.703125,81.7412109375)"/>
<path d="M0 0 C1.14984375 -0.00257812 2.2996875 -0.00515625 3.484375 -0.0078125 C5.28648438 0.00378906 5.28648438 0.00378906 7.125 0.015625 C8.32640625 0.00789063 9.5278125 0.00015625 10.765625 -0.0078125 C12.49039063 -0.00394531 12.49039063 -0.00394531 14.25 0 C15.83167969 0.00338379 15.83167969 0.00338379 17.4453125 0.00683594 C20.125 0.265625 20.125 0.265625 23.125 2.265625 C23.375 5.828125 23.375 5.828125 23.125 9.265625 C20.78783991 11.60278509 14.93667112 10.43725119 11.82617188 10.45117188 C11.1473999 10.45109131 10.46862793 10.45101074 9.76928711 10.45092773 C7.69949736 10.45311234 5.63024207 10.47125991 3.56054688 10.49023438 C2.26310547 10.49216797 0.96566406 10.49410156 -0.37109375 10.49609375 C-1.56919678 10.50020264 -2.7672998 10.50431152 -4.00170898 10.50854492 C-6.875 10.265625 -6.875 10.265625 -8.875 8.265625 C-9.1875 5.265625 -9.1875 5.265625 -8.875 2.265625 C-5.42139557 -0.03677795 -4.07000616 0.00870723 0 0 Z " fill="#FFFFFF" transform="translate(40.875,44.734375)"/>
</svg>
