<?xml version="1.0" encoding="UTF-8"?>
<svg version="1.1" xmlns="http://www.w3.org/2000/svg" width="256" height="256">
<path d="M0 0 C1.35707314 -0.01007584 1.35707314 -0.01007584 2.74156189 -0.02035522 C5.72774778 -0.03932819 8.71370879 -0.04325918 11.69995117 -0.04541016 C13.78114412 -0.05183893 15.86233617 -0.05856735 17.94352722 -0.06558228 C22.30547175 -0.07755354 26.66733708 -0.08126328 31.02929688 -0.08007812 C36.60780665 -0.07987503 42.18580645 -0.10716837 47.76419544 -0.14162254 C52.06314915 -0.16390444 56.36198042 -0.16791525 60.66098595 -0.16685867 C62.71700484 -0.16921302 64.77302719 -0.17802712 66.82898903 -0.19352341 C69.71057033 -0.21320773 72.59105578 -0.20733545 75.47265625 -0.1953125 C76.73618423 -0.21217102 76.73618423 -0.21217102 78.02523804 -0.22937012 C84.82620696 -0.15757821 90.03077487 1.74954919 95.17260742 6.25537109 C95.71143555 6.90634766 96.25026367 7.55732422 96.80541992 8.22802734 C97.3597168 8.87642578 97.91401367 9.52482422 98.48510742 10.19287109 C102.11505982 15.46120741 102.20294143 20.12237814 102.12573242 26.31005859 C102.12290253 27.16862961 102.12007263 28.02720062 102.11715698 28.91178894 C102.10600063 31.64234609 102.08090451 34.37257005 102.05541992 37.10302734 C102.04538424 38.95914238 102.03625942 40.81526259 102.02807617 42.67138672 C102.00607618 47.2112278 101.97157773 51.75082116 101.93041992 56.29052734 C103.89833496 56.25910645 103.89833496 56.25910645 105.90600586 56.22705078 C110.77373336 56.15464764 115.64141327 56.10872621 120.50952148 56.07080078 C122.61637374 56.05068608 124.72317018 56.02339067 126.82983398 55.98876953 C129.85829439 55.94024566 132.8860167 55.91755718 135.91479492 55.89990234 C136.85659607 55.8792572 137.79839722 55.85861206 138.76873779 55.83734131 C145.30874067 55.83509753 145.30874067 55.83509753 148.52319336 58.18994141 C150.03995133 60.45402634 150.47261499 61.59004297 150.43041992 64.29052734 C150.44588867 65.28052734 150.44588867 65.28052734 150.46166992 66.29052734 C149.63777258 69.39225852 148.53902106 70.37951823 145.93041992 72.29052734 C142.59113692 72.85649077 139.29308235 72.75520749 135.91479492 72.68115234 C134.94382874 72.67549255 133.97286255 72.66983276 132.97247314 72.66400146 C129.87461823 72.64163046 126.77792459 72.59143207 123.68041992 72.54052734 C121.57887414 72.52046331 119.47731021 72.50221237 117.37573242 72.48583984 C112.22684822 72.44176315 107.07883089 72.37272993 101.93041992 72.29052734 C101.95136719 73.43005859 101.97231445 74.56958984 101.99389648 75.74365234 C102.06668606 80.00019603 102.11236035 84.25668548 102.15014648 88.51367188 C102.17017366 90.35068028 102.19740374 92.18762564 102.23217773 94.02441406 C102.28109057 96.67577736 102.30347756 99.32629276 102.32104492 101.97802734 C102.35201263 103.19570801 102.35201263 103.19570801 102.38360596 104.43798828 C102.38623738 111.23337529 100.46302986 116.4004317 95.96557617 121.53271484 C95.31459961 122.07154297 94.66362305 122.61037109 93.99291992 123.16552734 C93.34452148 123.71982422 92.69612305 124.27412109 92.02807617 124.84521484 C86.76651853 128.47049665 82.04473609 128.58766094 75.86083984 128.58105469 C74.95612442 128.58777191 74.051409 128.59448914 73.11927795 128.60140991 C70.13309207 128.62038287 67.14713106 128.62431387 64.16088867 128.62646484 C62.07969572 128.63289361 59.99850368 128.63962203 57.91731262 128.64663696 C53.5553681 128.65860823 49.19350276 128.66231797 44.83154297 128.66113281 C39.2530332 128.66092972 33.6750334 128.68822306 28.0966444 128.72267723 C23.7976907 128.74495913 19.49885943 128.74896994 15.1998539 128.74791336 C13.14383501 128.7502677 11.08781266 128.7590818 9.03185081 128.77457809 C6.15026951 128.79426241 3.26978406 128.78839013 0.38818359 128.77636719 C-0.4541684 128.7876062 -1.29652039 128.79884521 -2.16439819 128.8104248 C-8.96536712 128.7386329 -14.16993503 126.8315055 -19.31176758 122.32568359 C-19.8505957 121.67470703 -20.38942383 121.02373047 -20.94458008 120.35302734 C-21.49887695 119.70462891 -22.05317383 119.05623047 -22.62426758 118.38818359 C-26.25421997 113.11984728 -26.34210158 108.45867655 -26.26489258 102.27099609 C-26.26206268 101.41242508 -26.25923279 100.55385406 -26.25631714 99.66926575 C-26.24516078 96.93870859 -26.22006467 94.20848464 -26.19458008 91.47802734 C-26.1845444 89.6219123 -26.17541958 87.7657921 -26.16723633 85.90966797 C-26.14523633 81.36982689 -26.11073789 76.83023353 -26.06958008 72.29052734 C-28.03749512 72.32194824 -28.03749512 72.32194824 -30.04516602 72.35400391 C-34.91289352 72.42640705 -39.78057343 72.47232848 -44.64868164 72.51025391 C-46.7555339 72.5303686 -48.86233033 72.55766401 -50.96899414 72.59228516 C-53.99745455 72.64080903 -57.02517686 72.66349751 -60.05395508 72.68115234 C-61.4666568 72.71212006 -61.4666568 72.71212006 -62.90789795 72.74371338 C-69.44790083 72.74595715 -69.44790083 72.74595715 -72.66235352 70.39111328 C-74.17911148 68.12702835 -74.61177515 66.99101172 -74.56958008 64.29052734 C-74.57989258 63.63052734 -74.59020508 62.97052734 -74.60083008 62.29052734 C-73.77693273 59.18879617 -72.67818121 58.20153646 -70.06958008 56.29052734 C-66.73029707 55.72456391 -63.43224251 55.8258472 -60.05395508 55.89990234 C-59.08298889 55.90556213 -58.11202271 55.91122192 -57.1116333 55.91705322 C-54.01377838 55.93942423 -50.91708474 55.98962262 -47.81958008 56.04052734 C-45.7180343 56.06059138 -43.61647036 56.07884232 -41.51489258 56.09521484 C-36.36600838 56.13929154 -31.21799104 56.20832476 -26.06958008 56.29052734 C-26.09052734 55.15099609 -26.11147461 54.01146484 -26.13305664 52.83740234 C-26.20584622 48.58085866 -26.2515205 44.32436921 -26.28930664 40.06738281 C-26.30933381 38.23037441 -26.3365639 36.39342905 -26.37133789 34.55664062 C-26.42025072 31.90527733 -26.44263771 29.25476193 -26.46020508 26.60302734 C-26.48085022 25.79124023 -26.50149536 24.97945312 -26.52276611 24.14306641 C-26.52539754 17.3476794 -24.60219002 12.18062298 -20.10473633 7.04833984 C-19.45375977 6.50951172 -18.8027832 5.97068359 -18.13208008 5.41552734 C-17.48368164 4.86123047 -16.8352832 4.30693359 -16.16723633 3.73583984 C-10.90567868 0.11055804 -6.18389625 -0.00660626 0 0 Z M-8.06958008 19.29052734 C-12.65675193 30.75845697 -10.06958008 43.93918913 -10.06958008 56.29052734 C21.61041992 56.29052734 53.29041992 56.29052734 85.93041992 56.29052734 C88.3155591 27.94277171 88.3155591 27.94277171 82.93041992 18.29052734 C78.93736409 15.82489233 74.68046615 16.00017178 70.11425781 16.01586914 C68.95719078 16.00820274 68.95719078 16.00820274 67.77674866 16.00038147 C65.23544483 15.98651993 62.69441324 15.98743958 60.15307617 15.98974609 C58.38097534 15.98585737 56.60887544 15.98152233 54.83677673 15.97676086 C51.12552873 15.96930613 47.41437587 15.96958459 43.703125 15.97485352 C38.95401906 15.98064821 34.20530311 15.96371361 29.45626163 15.94050884 C25.79733514 15.92575696 22.13850228 15.92490176 18.47955132 15.92801857 C16.72890894 15.92750612 14.97826123 15.9222828 13.22764778 15.91220665 C10.77683491 15.89983072 8.32677789 15.90664038 5.87597656 15.91821289 C4.79802826 15.90674728 4.79802826 15.90674728 3.69830322 15.89505005 C-0.94190863 15.94332963 -4.21584698 16.66717888 -8.06958008 19.29052734 Z M-10.06958008 72.29052734 C-12.45471925 100.63828298 -12.45471925 100.63828298 -7.06958008 110.29052734 C-3.07652425 112.75616236 1.1803737 112.5808829 5.74658203 112.56518555 C6.51796005 112.57029648 7.28933807 112.57540741 8.08409119 112.58067322 C10.62539502 112.59453476 13.16642661 112.59361511 15.70776367 112.59130859 C17.4798645 112.59519732 19.25196441 112.59953235 21.02406311 112.60429382 C24.73531111 112.61174856 28.44646397 112.6114701 32.15771484 112.60620117 C36.90682079 112.60040648 41.65553673 112.61734108 46.40457821 112.64054585 C50.0635047 112.65529773 53.72233757 112.65615292 57.38128853 112.65303612 C59.1319309 112.65354856 60.88257861 112.65877189 62.63319206 112.66884804 C65.08400493 112.68122396 67.53406196 112.6744143 69.98486328 112.6628418 C70.70349548 112.67048553 71.42212769 112.67812927 72.16253662 112.68600464 C76.80274847 112.63772506 80.07668682 111.91387581 83.93041992 109.29052734 C88.51759177 97.82259772 85.93041992 84.64186555 85.93041992 72.29052734 C54.25041992 72.29052734 22.57041992 72.29052734 -10.06958008 72.29052734 Z " fill="#6982E3" transform="translate(90.069580078125,63.70947265625)"/>
<path d="M0 0 C0.66 -0.0103125 1.32 -0.020625 2 -0.03125 C5.07643023 0.78592678 6.08820099 1.93364954 8 4.5 C8.60666813 7.66802488 8.56036472 10.7980137 8.53125 14.015625 C8.53699036 15.41032013 8.53699036 15.41032013 8.54284668 16.83319092 C8.54556676 18.80010053 8.53819882 20.76704625 8.52148438 22.73388672 C8.5001726 25.72576986 8.52123236 28.71522514 8.546875 31.70703125 C8.54422985 33.62240109 8.539101 35.53776943 8.53125 37.453125 C8.53934692 38.33985901 8.54744385 39.22659302 8.55578613 40.14019775 C8.45153383 47.14658563 6.68740723 52.43325696 2.03515625 57.7421875 C1.38417969 58.28101563 0.73320312 58.81984375 0.0625 59.375 C-0.91009766 60.20644531 -0.91009766 60.20644531 -1.90234375 61.0546875 C-7.34128356 64.80218793 -12.35557646 64.8201537 -18.75390625 64.8359375 C-20.160709 64.8459227 -20.160709 64.8459227 -21.59593201 64.85610962 C-23.57361902 64.86621198 -25.55133995 64.87092739 -27.52905273 64.87060547 C-30.55574312 64.87499021 -33.58098815 64.91136682 -36.60742188 64.94921875 C-38.53124502 64.95508507 -40.45507508 64.9590557 -42.37890625 64.9609375 C-43.28314835 64.97530853 -44.18739044 64.98967957 -45.11903381 65.00448608 C-51.38103166 64.95885684 -51.38103166 64.95885684 -54.56811523 62.59619141 C-56.11452616 60.33234072 -56.54242533 59.21522104 -56.5 56.5 C-56.5103125 55.84 -56.520625 55.18 -56.53125 54.5 C-55.73038202 51.48496762 -54.46834424 50.40555103 -52 48.5 C-49.17718679 48.10554412 -46.7311101 47.94198855 -43.91015625 47.9609375 C-43.12861679 47.94914459 -42.34707733 47.93735168 -41.54185486 47.92520142 C-39.04853373 47.88995826 -36.55604973 47.88077601 -34.0625 47.875 C-31.57277316 47.85862497 -29.08341856 47.83650172 -26.59385681 47.80337524 C-25.04688581 47.78384386 -23.4997449 47.77439965 -21.95265198 47.77645874 C-17.90518241 47.73664577 -14.49751174 47.64615442 -11 45.5 C-8.48014958 41.39348914 -8.72033549 36.95599491 -8.7265625 32.27734375 C-8.70628424 30.67121685 -8.68543367 29.0650971 -8.6640625 27.45898438 C-8.64142388 24.94191415 -8.62497134 22.42512654 -8.61914062 19.90795898 C-8.60962377 17.46807636 -8.57587446 15.02944582 -8.5390625 12.58984375 C-8.54410797 11.83871811 -8.54915344 11.08759247 -8.55435181 10.31370544 C-8.48791941 6.78600383 -8.27698682 4.85879324 -6.09130859 2.02758789 C-3.82302569 0.37072983 -2.77519707 -0.04336245 0 0 Z " fill="#6274DD" transform="translate(232,175.5)"/>
<path d="M0 0 C0.66 -0.0103125 1.32 -0.020625 2 -0.03125 C5.01503238 0.76961798 6.09444897 2.03165576 8 4.5 C8.39445588 7.32281321 8.55801145 9.7688899 8.5390625 12.58984375 C8.55085541 13.37138321 8.56264832 14.15292267 8.57479858 14.95814514 C8.61004174 17.45146627 8.61922399 19.94395027 8.625 22.4375 C8.64137503 24.92722684 8.66349828 27.41658144 8.69662476 29.90614319 C8.71615614 31.45311419 8.72560035 33.0002551 8.72354126 34.54734802 C8.76335423 38.59481759 8.85384558 42.00248826 11 45.5 C15.10651086 48.01985042 19.54400509 47.77966451 24.22265625 47.7734375 C25.82878315 47.79371576 27.4349029 47.81456633 29.04101562 47.8359375 C31.55808585 47.85857612 34.07487346 47.87502866 36.59204102 47.88085938 C39.03192364 47.89037623 41.47055418 47.92412554 43.91015625 47.9609375 C44.66128189 47.95589203 45.41240753 47.95084656 46.18629456 47.94564819 C49.71399617 48.01208059 51.64120676 48.22301318 54.47241211 50.40869141 C56.12927017 52.67697431 56.54336245 53.72480293 56.5 56.5 C56.51546875 57.49 56.51546875 57.49 56.53125 58.5 C55.71407322 61.57643023 54.56635046 62.58820099 52 64.5 C48.83197512 65.10666813 45.7019863 65.06036472 42.484375 65.03125 C41.55457825 65.0350769 40.62478149 65.03890381 39.66680908 65.04284668 C37.69989947 65.04556676 35.73295375 65.03819882 33.76611328 65.02148438 C30.77423014 65.0001726 27.78477486 65.02123236 24.79296875 65.046875 C22.87759891 65.04422985 20.96223057 65.039101 19.046875 65.03125 C17.71677399 65.04339539 17.71677399 65.04339539 16.35980225 65.05578613 C9.35341437 64.95153383 4.06674304 63.18740723 -1.2421875 58.53515625 C-1.78101563 57.88417969 -2.31984375 57.23320312 -2.875 56.5625 C-3.42929687 55.91410156 -3.98359375 55.26570313 -4.5546875 54.59765625 C-8.30218793 49.15871644 -8.3201537 44.14442354 -8.3359375 37.74609375 C-8.3459227 36.339291 -8.3459227 36.339291 -8.35610962 34.90406799 C-8.36621198 32.92638098 -8.37092739 30.94866005 -8.37060547 28.97094727 C-8.37499021 25.94425688 -8.41136682 22.91901185 -8.44921875 19.89257812 C-8.45508507 17.96875498 -8.4590557 16.04492492 -8.4609375 14.12109375 C-8.47530853 13.21685165 -8.48967957 12.31260956 -8.50448608 11.38096619 C-8.45885684 5.11896834 -8.45885684 5.11896834 -6.09619141 1.93188477 C-3.83234072 0.38547384 -2.71522104 -0.04242533 0 0 Z " fill="#504FCC" transform="translate(24,175.5)"/>
<path d="M0 0 C0.92979675 -0.0038269 1.85959351 -0.00765381 2.81756592 -0.01159668 C4.78447553 -0.01431676 6.75142125 -0.00694882 8.71826172 0.00976562 C11.71014486 0.0310774 14.69960014 0.01001764 17.69140625 -0.015625 C19.60677609 -0.01297985 21.52214443 -0.007851 23.4375 0 C24.76760101 -0.01214539 24.76760101 -0.01214539 26.12457275 -0.02453613 C33.13096063 0.07971617 38.41763196 1.84384277 43.7265625 6.49609375 C44.26539063 7.14707031 44.80421875 7.79804688 45.359375 8.46875 C46.19082031 9.44134766 46.19082031 9.44134766 47.0390625 10.43359375 C50.78656293 15.87253356 50.8045287 20.88682646 50.8203125 27.28515625 C50.8302977 28.691959 50.8302977 28.691959 50.84048462 30.12718201 C50.85058698 32.10486902 50.85530239 34.08258995 50.85498047 36.06030273 C50.85936521 39.08699312 50.89574182 42.11223815 50.93359375 45.13867188 C50.93946007 47.06249502 50.9434307 48.98632508 50.9453125 50.91015625 C50.95968353 51.81439835 50.97405457 52.71864044 50.98886108 53.65028381 C50.94323184 59.91228166 50.94323184 59.91228166 48.58056641 63.09936523 C46.31671572 64.64577616 45.19959604 65.07367533 42.484375 65.03125 C41.494375 65.04671875 41.494375 65.04671875 40.484375 65.0625 C37.46934262 64.26163202 36.38992603 62.99959424 34.484375 60.53125 C34.08991912 57.70843679 33.92636355 55.2623601 33.9453125 52.44140625 C33.93351959 51.65986679 33.92172668 50.87832733 33.90957642 50.07310486 C33.87433326 47.57978373 33.86515101 45.08729973 33.859375 42.59375 C33.84299997 40.10402316 33.82087672 37.61466856 33.78775024 35.12510681 C33.76821886 33.57813581 33.75877465 32.0309949 33.76083374 30.48390198 C33.72102077 26.43643241 33.63052942 23.02876174 31.484375 19.53125 C27.37786414 17.01139958 22.94036991 17.25158549 18.26171875 17.2578125 C16.65559185 17.23753424 15.0494721 17.21668367 13.44335938 17.1953125 C10.92628915 17.17267388 8.40950154 17.15622134 5.89233398 17.15039062 C3.45245136 17.14087377 1.01382082 17.10712446 -1.42578125 17.0703125 C-2.17690689 17.07535797 -2.92803253 17.08040344 -3.70191956 17.08560181 C-7.22962117 17.01916941 -9.15683176 16.80823682 -11.98803711 14.62255859 C-13.64489517 12.35427569 -14.05898745 11.30644707 -14.015625 8.53125 C-14.03109375 7.54125 -14.03109375 7.54125 -14.046875 6.53125 C-12.15502268 -0.59101757 -6.08172771 -0.05503083 0 0 Z " fill="#82B5FA" transform="translate(189.515625,15.46875)"/>
<path d="M0 0 C1.40680275 -0.0099852 1.40680275 -0.0099852 2.84202576 -0.02017212 C4.81971277 -0.03027448 6.7974337 -0.03498989 8.77514648 -0.03466797 C11.80183687 -0.03905271 14.8270819 -0.07542932 17.85351562 -0.11328125 C19.77733877 -0.11914757 21.70116883 -0.1231182 23.625 -0.125 C24.5292421 -0.13937103 25.43348419 -0.15374207 26.36512756 -0.16854858 C32.62712541 -0.12291934 32.62712541 -0.12291934 35.81420898 2.23974609 C37.36061991 4.50359678 37.78851908 5.62071646 37.74609375 8.3359375 C37.7615625 9.3259375 37.7615625 9.3259375 37.77734375 10.3359375 C36.97647577 13.35096988 35.71443799 14.43038647 33.24609375 16.3359375 C30.42328054 16.73039338 27.97720385 16.89394895 25.15625 16.875 C24.37471054 16.88679291 23.59317108 16.89858582 22.78794861 16.91073608 C20.29462748 16.94597924 17.80214348 16.95516149 15.30859375 16.9609375 C12.81886691 16.97731253 10.32951231 16.99943578 7.83995056 17.03256226 C6.29297956 17.05209364 4.74583865 17.06153785 3.19874573 17.05947876 C-0.84872384 17.09929173 -4.25639451 17.18978308 -7.75390625 19.3359375 C-10.27375667 23.44244836 -10.03357076 27.87994259 -10.02734375 32.55859375 C-10.04762201 34.16472065 -10.06847258 35.7708404 -10.08984375 37.37695312 C-10.11248237 39.89402335 -10.12893491 42.41081096 -10.13476562 44.92797852 C-10.14428248 47.36786114 -10.17803179 49.80649168 -10.21484375 52.24609375 C-10.20979828 52.99721939 -10.20475281 53.74834503 -10.19955444 54.52223206 C-10.26598684 58.04993367 -10.47691943 59.97714426 -12.66259766 62.80834961 C-14.93088056 64.46520767 -15.97870918 64.87929995 -18.75390625 64.8359375 C-19.41390625 64.84625 -20.07390625 64.8565625 -20.75390625 64.8671875 C-23.83033648 64.05001072 -24.84210724 62.90228796 -26.75390625 60.3359375 C-27.36057438 57.16791262 -27.31427097 54.0379238 -27.28515625 50.8203125 C-27.28898315 49.89051575 -27.29281006 48.96071899 -27.29675293 48.00274658 C-27.29947301 46.03583697 -27.29210507 44.06889125 -27.27539062 42.10205078 C-27.25407885 39.11016764 -27.27513861 36.12071236 -27.30078125 33.12890625 C-27.2981361 31.21353641 -27.29300725 29.29816807 -27.28515625 27.3828125 C-27.29325317 26.49607849 -27.3013501 25.60934448 -27.30969238 24.69573975 C-27.20544008 17.68935187 -25.44131348 12.40268054 -20.7890625 7.09375 C-20.13808594 6.55492187 -19.48710937 6.01609375 -18.81640625 5.4609375 C-18.16800781 4.90664063 -17.51960938 4.35234375 -16.8515625 3.78125 C-11.41262269 0.03374957 -6.39832979 0.0157838 0 0 Z " fill="#7090E9" transform="translate(42.75390625,15.6640625)"/>
</svg>
