<?xml version="1.0" encoding="UTF-8"?>
<svg version="1.1" xmlns="http://www.w3.org/2000/svg" width="512" height="512">
<path d="M0 0 C1.55501826 0.54230133 3.11070681 1.0826837 4.66699219 1.62133789 C8.03095079 2.79094119 11.38905981 3.97567886 14.74365234 5.171875 C19.2520718 6.77866715 23.76991015 8.35681194 28.29141235 9.92636108 C59.31571484 20.69949451 90.08698242 32.14328323 120.78271484 43.81604004 C123.98182055 45.03183833 127.18219281 46.24424852 130.3828125 47.45605469 C135.2105931 49.28580583 140.03320619 51.12853615 144.85159302 52.98287964 C146.58890587 53.65009442 148.32753639 54.3138904 150.06759644 54.97390747 C163.50439754 60.0790801 176.97807873 65.66423544 184.0625 79.0625 C184.79858398 82.19238281 184.79858398 82.19238281 185.30859375 85.765625 C185.4045282 86.42330872 185.50046265 87.08099243 185.5993042 87.75860596 C185.91264767 89.94161831 186.2074719 92.12660684 186.5 94.3125 C186.60510895 95.07425537 186.7102179 95.83601074 186.81851196 96.62084961 C189.38533161 115.25587835 191.28949268 133.95702989 192.86395264 152.70007324 C192.99063968 154.20746602 193.11893229 155.71472532 193.24932861 157.22180176 C195.04899321 178.05917388 195.26377991 198.90324307 195.30747986 219.80635834 C195.31239002 221.82968017 195.32029359 223.85297192 195.32873535 225.87628174 C195.52503195 289.66177239 187.81863457 340.48308195 144.0625 389.0625 C143.33015137 389.87944336 143.33015137 389.87944336 142.58300781 390.71289062 C132.66408376 401.73682335 122.38026242 412.46488109 111.0625 422.0625 C109.96350642 423.02321191 108.86599593 423.9856216 107.76953125 424.94921875 C74.40328337 454.2187101 37.63727349 478.83560348 -1.125 500.375 C-1.93251709 500.82544678 -2.74003418 501.27589355 -3.57202148 501.73999023 C-10.13894966 505.32992969 -15.58286104 507.35795357 -23.1875 507.4375 C-24.40953125 507.46585938 -25.6315625 507.49421875 -26.890625 507.5234375 C-35.8860967 506.96269542 -44.13294524 501.50939963 -51.75 497.125 C-52.74700928 496.55507324 -53.74401855 495.98514648 -54.77124023 495.39794922 C-83.13797866 479.07625404 -110.65095514 460.88411299 -135.9375 440.0625 C-137.19820312 439.04349609 -137.19820312 439.04349609 -138.484375 438.00390625 C-158.80558962 421.52962677 -158.80558962 421.52962677 -166.24829102 413.74902344 C-167.98744574 412.01263366 -169.80306851 410.43071876 -171.67578125 408.83984375 C-175.79133611 405.25944281 -179.54667938 401.43834731 -183.25 397.4375 C-183.89952637 396.73802246 -184.54905273 396.03854492 -185.21826172 395.31787109 C-216.83444453 361.0676558 -235.72796447 325.57308314 -240.9375 279.0625 C-241.05754395 277.99692871 -241.17758789 276.93135742 -241.30126953 275.83349609 C-245.44064243 236.23493483 -244.564154 194.68911535 -240.9375 155.0625 C-240.87197937 154.33341431 -240.80645874 153.60432861 -240.73895264 152.85314941 C-238.80033615 131.42322465 -236.16772999 110.1746766 -231.9375 89.0625 C-231.71408936 87.90613037 -231.49067871 86.74976074 -231.26049805 85.55834961 C-229.03549136 74.86099937 -229.03549136 74.86099937 -224.875 70.625 C-224.18277344 69.88378906 -223.49054688 69.14257812 -222.77734375 68.37890625 C-215.48196698 62.42820691 -207.30858669 58.74337265 -198.546875 55.48046875 C-197.46569901 55.069142 -196.38452301 54.65781525 -195.27058411 54.23402405 C-191.74646485 52.89633837 -188.21722901 51.57280475 -184.6875 50.25 C-182.83360933 49.54972741 -180.97972103 48.8494481 -179.12617207 48.14827156 C-171.07026444 45.10095033 -163.00465282 42.07990998 -154.9375 39.0625 C-152.83671214 38.2750068 -150.73596131 37.48741483 -148.63525391 36.69970703 C-122.21958037 26.80424295 -95.6971336 17.20923113 -69.06567383 7.90989685 C-64.01165699 6.14456151 -58.96547456 4.36026269 -53.92904663 2.54536438 C-51.19967663 1.56619849 -48.46393456 0.6060154 -45.72583008 -0.34841919 C-43.97121991 -0.96612599 -42.22457838 -1.60633302 -40.47851562 -2.24780273 C-26.11094437 -7.1841899 -13.84803365 -4.99821508 0 0 Z " fill="#73DA7E" transform="translate(279.9375,4.9375)"/>
<path d="M0 0 C7.05115442 2.00543853 13.88994845 4.3684479 20.72265625 7.01953125 C22.20094154 7.59111214 22.20094154 7.59111214 23.70909119 8.17424011 C25.77800977 8.97638563 27.84608009 9.78072219 29.91333008 10.5871582 C33.05345372 11.80898009 36.199377 13.01495926 39.34570312 14.22070312 C41.36756473 15.006843 43.38906175 15.7939213 45.41015625 16.58203125 C46.33852798 16.9353804 47.26689972 17.28872955 48.22340393 17.65278625 C59.11487432 21.94851593 69.39005657 28.39031103 75 39 C75.73608398 42.12988281 75.73608398 42.12988281 76.24609375 45.703125 C76.3420282 46.36080872 76.43796265 47.01849243 76.5368042 47.69610596 C76.85014767 49.87911831 77.1449719 52.06410684 77.4375 54.25 C77.54260895 55.01175537 77.6477179 55.77351074 77.75601196 56.55834961 C80.32283161 75.19337835 82.22699268 93.89452989 83.80145264 112.63757324 C83.92813968 114.14496602 84.05643229 115.65222532 84.18682861 117.15930176 C85.98649321 137.99667388 86.20127991 158.84074307 86.24497986 179.74385834 C86.24989002 181.76718017 86.25779359 183.79047192 86.26623535 185.81378174 C86.46253195 249.59927239 78.75613457 300.42058195 35 349 C34.26765137 349.81694336 34.26765137 349.81694336 33.52050781 350.65039062 C23.60158376 361.67432335 13.31776242 372.40238109 2 382 C0.90100642 382.96071191 -0.19650407 383.9231216 -1.29296875 384.88671875 C-34.65921663 414.1562101 -71.42522651 438.77310348 -110.1875 460.3125 C-110.99501709 460.76294678 -111.80253418 461.21339355 -112.63452148 461.67749023 C-119.20144966 465.26742969 -124.64536104 467.29545357 -132.25 467.375 C-133.47203125 467.40335938 -134.6940625 467.43171875 -135.953125 467.4609375 C-144.9485967 466.90019542 -153.19544524 461.44689963 -160.8125 457.0625 C-161.80950928 456.49257324 -162.80651855 455.92264648 -163.83374023 455.33544922 C-192.20047866 439.01375404 -219.71345514 420.82161299 -245 400 C-246.26070312 398.98099609 -246.26070312 398.98099609 -247.546875 397.94140625 C-267.72661961 381.5818156 -267.72661961 381.5818156 -275.4375 373.5625 C-277.17065598 371.82934402 -279.00188648 370.26793953 -280.875 368.6875 C-285.68613149 364.54615349 -289.9549747 359.8877389 -294 355 C-294 354.67 -294 354.34 -294 354 C-292.6809668 353.98018066 -291.36193359 353.96036133 -290.00292969 353.93994141 C-285.00781306 353.86262633 -280.0129414 353.77412864 -275.01806641 353.68261719 C-272.87521272 353.64483791 -270.7323065 353.60990675 -268.58935547 353.578125 C-250.30863842 353.30387139 -232.24897319 352.47795711 -214.3125 348.6875 C-212.72828247 348.35939331 -212.72828247 348.35939331 -211.11206055 348.0246582 C-202.24425421 346.14115261 -193.59130269 343.88980181 -185 341 C-184.18563477 340.72849121 -183.37126953 340.45698242 -182.53222656 340.17724609 C-150.60179511 329.39283517 -119.75957797 313.99096502 -94 292 C-93.09636719 291.278125 -92.19273437 290.55625 -91.26171875 289.8125 C-83.8481764 283.78369809 -77.02521775 277.23603748 -70.25 270.5 C-69.37496826 269.63415283 -68.49993652 268.76830566 -67.59838867 267.8762207 C-37.21492992 237.34915925 -16.14888683 198.32983602 -3.16796875 157.546875 C-2.51608872 155.56725269 -1.83836871 153.59406006 -1.06738281 151.65771484 C1.95306897 143.96194404 3.40318552 136.27648074 4.625 128.125 C4.73016937 127.4413739 4.83533875 126.7577478 4.94369507 126.05340576 C5.66316905 121.3734565 6.34237602 116.68903772 7 112 C7.13712402 111.02675781 7.27424805 110.05351562 7.41552734 109.05078125 C12.00768296 74.80068407 9.19511768 39.29954385 0.39550781 5.96582031 C0 4 0 4 0 0 Z " fill="#2AD352" transform="translate(389,45)"/>
<path d="M0 0 C8.84280397 6.17619966 15.81837928 14.53492134 18.33203125 25.13671875 C19.98128425 35.1230213 18.7028506 43.828891 13.7578125 52.71484375 C10.42556231 57.07633845 6.66977977 60.88718107 2.7578125 64.71484375 C1.56247651 65.90752712 0.36851226 67.10158654 -0.82421875 68.296875 C-2.61090228 70.08733937 -4.39977665 71.8743277 -6.20678711 73.64428711 C-9.13462896 76.52436228 -11.92391589 79.45902805 -14.6015625 82.57421875 C-19.29641488 88.01022626 -24.45190033 92.97137348 -29.5703125 98.00390625 C-33.73902844 102.13008427 -37.70884408 106.33351961 -41.53125 110.78125 C-44.44869462 114.07836206 -47.60005342 117.13383129 -50.7421875 120.21484375 C-55.13134609 124.55716194 -59.39417906 128.90554876 -63.375 133.62890625 C-66.58705678 137.21727094 -70.05910241 140.55064585 -73.48266602 143.93579102 C-76.94637841 147.37552962 -80.21358785 150.90056037 -83.37109375 154.625 C-86.38369441 157.9898045 -89.62790792 161.12029563 -92.84008789 164.29321289 C-96.17016979 167.59825266 -99.29010408 171.005248 -102.328125 174.58203125 C-105.37145781 177.97317352 -108.63195624 181.14682682 -111.89257812 184.328125 C-114.35773368 186.75105786 -116.67377338 189.18992484 -118.84375 191.8828125 C-125.09692206 199.266444 -133.46359056 203.17140203 -142.98046875 204.06640625 C-155.37381467 204.68629599 -164.14955314 201.18869118 -173.58642578 193.15722656 C-176.31108355 190.6514832 -178.75886316 188.02398858 -181.2265625 185.265625 C-187.41351267 178.42585133 -193.93280237 171.94492716 -200.4921875 165.46484375 C-213.00885296 153.09760977 -213.00885296 153.09760977 -216.75 148.69921875 C-219.72912768 145.19920065 -222.94452198 141.96726544 -226.21875 138.74609375 C-226.75640991 138.2163092 -227.29406982 137.68652466 -227.84802246 137.14068604 C-230.08314283 134.94198361 -232.32094119 132.74619529 -234.56835938 130.56005859 C-245.25598234 120.14734847 -253.05537818 110.87658435 -253.7421875 95.33984375 C-253.42770986 84.63502486 -249.0628291 76.52297865 -241.70703125 68.91015625 C-232.86497678 61.03498254 -224.11158318 58.30345263 -212.38671875 58.53125 C-199.83240956 59.26423451 -191.52151875 65.82127371 -183.0078125 74.5234375 C-182.16675964 75.36777847 -181.32570679 76.21211945 -180.45916748 77.08204651 C-177.79397879 79.76288528 -175.14328822 82.45758068 -172.4921875 85.15234375 C-170.69748555 86.95854813 -168.90192036 88.7638952 -167.10546875 90.56835938 C-165.38463833 92.30261345 -163.66456022 94.03761441 -161.9453125 95.7734375 C-161.14627502 96.57986191 -160.34723755 97.38628632 -159.52398682 98.21714783 C-156.33518675 101.46041949 -153.19798648 104.68378314 -150.32324219 108.21118164 C-148.4892855 110.75878261 -148.4892855 110.75878261 -146.2421875 111.71484375 C-145.9743042 111.12026367 -145.7064209 110.52568359 -145.43041992 109.91308594 C-144.23008077 107.69244618 -143.03515752 106.29048305 -141.23046875 104.54296875 C-140.64128662 103.96538818 -140.05210449 103.38780762 -139.44506836 102.79272461 C-138.82124268 102.18952393 -138.19741699 101.58632324 -137.5546875 100.96484375 C-131.93854048 95.47754983 -131.93854048 95.47754983 -126.6796875 89.65234375 C-123.04063704 85.34659703 -119.00717188 81.45440743 -115.00195312 77.49414062 C-111.53815982 74.05431821 -108.27086266 70.52921619 -105.11328125 66.8046875 C-102.09999128 63.43911311 -98.8549776 60.30794767 -95.64208984 57.13427734 C-92.9179054 54.43055626 -90.28868556 51.70734644 -87.8046875 48.77734375 C-84.11675499 44.43700058 -80.05124207 40.49794295 -76.00463867 36.49682617 C-72.51832261 33.03465427 -69.22578868 29.48655261 -66.046875 25.73828125 C-63.2664918 22.6208819 -60.27206271 19.71942323 -57.29516602 16.79174805 C-54.5718595 14.09754772 -52.01030248 11.34121477 -49.5546875 8.40234375 C-36.66365509 -6.53536916 -17.34482968 -9.94154872 0 0 Z " fill="#FEFEFE" transform="translate(373.2421875,148.28515625)"/>
</svg>
